<?xml version="1.0" standalone="no"?>
<!DOCTYPE svg PUBLIC "-//W3C//DTD SVG 1.1//EN" "http://www.w3.org/Graphics/SVG/1.1/DTD/svg11.dtd" >
<svg xmlns="http://www.w3.org/2000/svg" xmlns:xlink="http://www.w3.org/1999/xlink" version="1.1">
<metadata></metadata>
<defs>
<font id="the_chicken_love_storyregular" horiz-adv-x="755" >
<font-face units-per-em="2048" ascent="1536" descent="-512" />
<missing-glyph horiz-adv-x="307" />
<glyph horiz-adv-x="0" />
<glyph horiz-adv-x="682" />
<glyph unicode=" "  horiz-adv-x="307" />
<glyph unicode="&#x09;" horiz-adv-x="307" />
<glyph unicode="&#xa0;" horiz-adv-x="307" />
<glyph unicode="!" horiz-adv-x="370" d="M16 -184q-2 2 2 10q12 29 20.5 54.5t12.5 43.5q6 23 10 37h11.5t19.5 -2l23 -4l4 -2q6 -6 6 -23q0 -2 -3 -25.5t-10.5 -50t-18.5 -48t-27 -21.5q-23 0 -36.5 13.5t-13.5 17.5zM72 25q0 10 4 30q0 20 13 93t31.5 173.5t40 213t41 212t33 172t15.5 91.5q2 16 21.5 28.5 t35.5 12.5q25 0 25 -31q-16 -109 -30.5 -195t-28 -160.5t-28 -144t-29.5 -143.5t-30.5 -160t-33.5 -192l-7 -27l-18 -14l-23 2q-33 6 -32 39z" />
<glyph unicode="&#x22;" horiz-adv-x="452" d="M53 956q0 2 4 11q20 27 47 66.5t50 78.5q27 45 55 94q10 0 29 -8l22 -10l2 -2q0 -12 -12 -44t-32.5 -72t-46.5 -82t-52 -73q-6 -2 -15 -2q-27 0 -39 19.5t-12 23.5zM223 956q0 2 4 11q20 27 47 66.5t50 78.5q27 45 55 94q10 0 29 -8l22 -10l2 -2q0 -12 -12 -44t-32.5 -72 t-46.5 -82t-52 -73q-6 -2 -15 -2q-27 0 -39 19.5t-12 23.5z" />
<glyph unicode="$" horiz-adv-x="624" d="M109 14q0 37 8 59.5t17 35t18 16.5l10 4h16l17 -10q16 -16 16 -33q0 -16 -7 -32.5t-7 -39.5q0 -12 7 -25.5t29 -21.5q10 76 20.5 145.5t14.5 94.5q-35 35 -66.5 90t-31.5 115q0 43 20.5 70.5t47 46t51 28.5t35.5 14q4 39 8 68t8 39l6 22l16 11h33q18 -10 23.5 -19.5 t5.5 -23.5v-12.5t-2 -15.5t-4 -25.5t-4 -43.5q28 1 65 -32q16 -23 21.5 -42.5t5.5 -35.5q0 -49 -18.5 -81t-41.5 -32q-14 0 -22 10l-23 17v22l13 23q2 4 4 13t2 20q0 12 -5 18t-14 16q-8 -55 -19 -119.5t-20 -131.5l7 -7h-7q2 -4 15.5 -18t29 -36.5t29 -53.5t13.5 -70 q0 -18 -5.5 -46t-20.5 -54.5t-42 -49t-70 -30.5q-4 -47 -6 -77t-6 -46t-14.5 -23.5t-28.5 -9.5l-29 4l-16 19v22q0 12 4 43t8 68q-35 12 -57.5 29.5t-34.5 38t-17 40t-5 35.5zM266 408q0 -16 5.5 -31t13.5 -29q4 25 11 56.5t11 60.5q-41 -14 -41 -57zM330 -29q29 16 28 62 q0 29 -12 63q-4 -35 -8 -66.5t-8 -58.5z" />
<glyph unicode="&#x26;" horiz-adv-x="868" d="M133 -39q0 90 41 185.5t119 166.5q-37 86 -68.5 179.5t-31.5 187.5q0 102 29.5 178t75.5 130t101.5 90t108.5 56.5t97 31t67 12.5q49 6 95 1t82 -23.5t58.5 -53.5t22.5 -88q0 -82 -56.5 -179.5t-138.5 -194.5t-173 -187.5t-161 -155.5q57 -121 121 -212t121 -156.5 t103.5 -104.5t70.5 -53q43 -33 81 -48.5t66.5 -24.5t45 -17.5t16.5 -26.5q-2 -16 -17.5 -21.5t-50.5 -5.5q-20 0 -81.5 18.5t-147.5 81t-189.5 181.5t-207.5 317q-53 -59 -83 -119.5t-30 -134.5q0 -66 24.5 -100.5t61.5 -51t77 -19.5t71 -3q27 0 47 2t43 4q23 4 38 5.5 t21 -15.5v-6q0 -31 -38 -51.5t-128 -20.5q-41 0 -90 6q-10 2 -45 10.5t-71.5 34t-66.5 71.5t-30 124zM285 700q0 -82 22.5 -163.5t52.5 -155.5q78 80 159 163t167 179q20 23 47 56.5t51.5 71.5t41 77t16.5 71q0 39 -32 65t-110 26q-74 0 -142.5 -25t-123.5 -69t-93 -104 t-52 -130q-2 -16 -3 -30.5t-1 -31.5z" />
<glyph unicode="'" horiz-adv-x="350" d="M168 956q0 2 4 11q20 27 47 66.5t49 78.5q27 45 56 94q10 0 28 -8l23 -10l2 -2q0 -12 -12.5 -44t-33 -72t-46 -82t-52.5 -73q-6 -2 -14 -2q-27 0 -39 19.5t-12 23.5z" />
<glyph unicode="*" horiz-adv-x="616" d="M74 944q0 18 27.5 26.5t101.5 10.5q-29 27 -51.5 51.5t-22.5 36.5q0 4 2 6l14 21q6 6 9.5 11t13.5 5q14 0 39.5 -19.5t71.5 -62.5q0 45 -1.5 87t-3.5 52q0 8 8.5 13.5t18.5 8.5t19.5 5t11.5 2q8 0 14 -7t10 -25.5t6.5 -51.5t2.5 -86q41 45 67.5 72.5t32.5 27.5 q18 0 28.5 -6t16.5 -14t8 -13l2 -5q0 -12 -18.5 -37t-65.5 -74q57 4 70 6q10 0 17 -2t14 -31l4 -24q0 -18 -40 -25.5t-87 -9.5q25 -25 41 -38t25 -21.5t13.5 -11.5t4.5 -9q0 -8 -13 -29l-14 -20q-2 -4 -12 -4q-16 0 -43 20.5t-51 42.5q0 -66 2 -92t2 -29q0 -10 -17.5 -18 t-38.5 -8q-18 0 -20 10l-2 6q-4 10 -6 49t-4 80q-49 -51 -68.5 -71.5t-22.5 -22.5q-4 -4 -8 -4q-14 0 -36.5 13.5t-22.5 27.5q0 2 1 3t1 3l4 4q6 12 37 47t63 70q-14 0 -29.5 -1t-31.5 -1q-35 0 -60.5 4t-27.5 14l-4 25q0 4 -1 6t-1 6z" />
<glyph unicode="+" horiz-adv-x="501" d="M18 336q0 12 9.5 19t33 11.5t63.5 5.5t99 1v53.5v58t-1 49t-3 27.5q0 8 8.5 13.5t18.5 8.5t19 5t11 2q10 0 16.5 -8.5t10.5 -32t5 -66.5t1 -112q53 0 92 2t50 4q10 0 17 -2t13 -31l4 -25q0 -12 -19.5 -19t-47 -10t-57 -4t-52.5 -1q0 -106 2 -147.5t2 -43.5q0 -10 -17 -18 t-38 -8q-18 0 -20 10l-2 6q-2 8 -4.5 31.5t-4.5 53.5t-3 60.5t-1 55.5q-23 0 -53.5 -2t-60.5 -2q-33 0 -57.5 4t-26.5 14l-5 25q0 4 -1 6t-1 6z" />
<glyph unicode="," horiz-adv-x="249" d="M14 -162q0 2 4 10q20 27 47 67t50 79q27 45 55 94q10 0 29 -8l22 -10l2 -2q0 -12 -12 -44t-32.5 -72t-46.5 -82t-52 -73q-6 -2 -14 -2q-27 0 -39.5 19.5t-12.5 23.5z" />
<glyph unicode="-" horiz-adv-x="505" d="M16 336q0 18 46.5 25.5t112 9.5t140 2t134.5 4q10 0 17 -2t13 -31l4 -25q0 -10 -21.5 -17t-57 -11t-82 -6t-93.5 -2q-41 0 -77.5 1t-65.5 4t-46 5t-17 6l-5 25q0 4 -1 6t-1 6z" />
<glyph unicode="." horiz-adv-x="339" d="M96 -41q0 2 4 10q20 27 35 48.5t25 37.5q10 18 18 33q10 0 29 -8l22 -10l2 -2q4 -8 5 -17q0 -20 -16.5 -54t-57.5 -79q-6 -2 -15 -2q-27 0 -39 19.5t-12 23.5z" />
<glyph unicode="/" horiz-adv-x="696" d="M63 -59q0 10 2.5 23t12.5 30q6 23 40 103.5t80 191t99 235.5t100 234.5t81 189.5t42 101q10 29 17.5 44t40.5 15l24 -6l2 -6l6 -17l-6 -35q-45 -119 -84 -214t-74.5 -178t-68.5 -159.5t-69 -159.5t-77 -177.5t-88 -212.5l-12 -29l-22 -12l-23 6q-23 10 -23 33z" />
<glyph unicode="0" horiz-adv-x="487" d="M20 133q0 106 24 198.5t54.5 164t61 119t45.5 63.5q29 33 59.5 53.5t69.5 20.5q18 -1 41 -7q47 -16 68.5 -79.5t21.5 -149.5q0 -61 -11.5 -158.5t-45 -189.5t-94 -158.5t-156.5 -66.5q-43 0 -70 18.5t-42 47t-20.5 62t-5.5 62.5zM104 147q0 -47 9 -82.5t32 -35.5 q14 0 45 3t65 43t67.5 136t58.5 283q2 10 2 21v22q0 61 -16.5 100t-28.5 41q-14 0 -26.5 -9.5t-22.5 -19.5q-16 -8 -47 -56t-61.5 -119t-53.5 -157t-23 -170z" />
<glyph unicode="1" horiz-adv-x="286" d="M14 -193q0 10 4 31q0 20 13.5 93t32 173.5t40 213t41 212t32.5 172t16 91.5q2 16 21 28.5t36 12.5q25 0 24 -25v-6q-16 -109 -30.5 -195t-27.5 -160.5t-27.5 -144.5t-30 -143.5t-30.5 -159.5t-34 -193l-6 -26l-18 -14l-23 2q-33 6 -33 38z" />
<glyph unicode="2" horiz-adv-x="589" d="M23 -123q0 14 9 30.5t21 39.5q10 18 45 74.5t84 139.5t105.5 184t111.5 208q35 57 35 100q0 29 -12 50.5t-47 21.5q-68 0 -111 -31.5t-67.5 -70.5t-33.5 -74t-11 -41q0 -33 -3.5 -53.5t-31.5 -32.5l-25 -6l-4 6q-12 4 -15 26.5t-3 51.5q0 25 15 76t49 104t90.5 93 t140.5 40q45 0 75.5 -15.5t49 -38t26.5 -50t8 -54.5q0 -25 -35.5 -102.5t-92 -183t-127 -225t-138.5 -226.5q68 27 114 45.5t88 33.5t88 29.5t116 34.5q20 0 28 -24.5t8 -30.5q0 -14 -6 -17t-16 -7q-8 -4 -44 -16.5t-85 -30t-103.5 -38t-102.5 -38t-84 -30.5t-44 -17 l-9 -4.5t-9 -2.5q-6 0 -14.5 8.5t-15.5 20.5t-12 24.5t-5 18.5z" />
<glyph unicode="3" horiz-adv-x="622" d="M16 -178q0 12 16.5 32.5t22.5 20.5q12 0 22.5 -8t31 -19.5t55.5 -19.5t94 -8q35 0 78 13t81 39t63.5 64.5t25.5 92.5q0 47 -22.5 80.5t-53.5 54t-63.5 30t-53.5 9.5q-39 0 -63.5 -4t-30.5 -4q-23 0 -44 16t-21 33q0 12 10 20q43 6 86 11.5t82 14.5t70.5 23.5t50.5 38.5 q23 29 35 67t16 70.5t5 54t1 19.5q0 37 -3 68t-15.5 54.5t-36 36.5t-62.5 13q-74 0 -108.5 -13t-52 -28.5t-26.5 -28t-28 -12.5q-39 0 -39 35t28 60.5t68.5 43t88 23.5t84.5 4q102 -8 146 -72.5t44 -150.5q0 -43 -6 -94t-22.5 -100.5t-45 -91.5t-73.5 -64q25 -10 49 -29.5 t43.5 -46.5t33 -60.5t13.5 -76.5q0 -37 -9.5 -66.5t-19.5 -52.5t-19.5 -36t-9.5 -15l-17 -21q-17 -20 -51 -43.5t-84 -43t-114 -19.5q-41 0 -80 8t-69.5 18.5t-51 20.5t-26.5 16l-21 17q-2 2 -2 6z" />
<glyph unicode="4" horiz-adv-x="571" d="M16 45q-2 -4 28 84t97 283q43 123 66.5 197.5t39 114.5t28 53.5t30.5 13.5q14 0 23.5 -9.5t9.5 -40.5q0 -10 -9.5 -39.5t-22.5 -69.5t-28.5 -84t-27.5 -80t-20.5 -59.5t-6.5 -23.5q-20 -57 -41 -113q-16 -47 -35.5 -99t-33.5 -89q66 8 100.5 12t59 6t47 3t63.5 4 q18 59 28.5 94t17.5 53t13.5 23.5t16.5 5.5t18 -2l23 -7l14 -14l-2 -16q-4 -10 -14.5 -49t-24.5 -84q23 2 39 2h23l12 -2l8 -17l2 -8v-16q0 -18 -4 -26.5t-16.5 -11.5t-34 -3t-56.5 -2q0 2 -8 -26t-23.5 -73t-36 -100t-42.5 -109l-8 -14l-19 -2l-24 8q-27 12 -27 27 q2 0 23.5 67.5t68.5 200.5q0 4 4 12q-45 0 -90 -3t-84 -7t-65.5 -7t-32.5 -3q-4 0 -6 -1t-6 -1q-12 0 -17 12l-12 6q-16 6 -20.5 13.5t-4.5 15.5z" />
<glyph unicode="5" horiz-adv-x="622" d="M23 -121q0 78 22.5 111t38.5 33l6 4l19 -17q14 -14 14 -30q0 -10 -3 -18.5t-6 -19t-6.5 -24.5t-3.5 -37q0 -14 3.5 -30.5t12.5 -30t25.5 -22.5t42.5 -9q33 0 75 19.5t82 50t77 71.5t61 84q27 59 27 129q0 59 -24.5 103.5t-77.5 44.5q-55 0 -97.5 -11.5t-81.5 -25.5 t-76.5 -28.5t-82.5 -20.5q-25 0 -31 5t-6 19q0 27 6 85.5t16.5 123t22.5 122.5t22 85q2 8 33 19.5t75 24.5t95 28.5t97 31t79 29t39 25.5q4 2 6 4t6 2q6 0 16.5 -7t21 -16.5t18.5 -19.5t8 -18q0 4 -2 4q-4 0 -12.5 -19.5t-18.5 -49.5t-17 -63.5t-7 -62.5q0 -4 1 -6t1 -4 q0 -4 -7.5 -9.5t-29.5 -9.5l-23 -4l-16 2l-6 9q-2 4 -2 24q0 14 1 34.5t3 39t4 29.5l2 12v4q-35 -18 -62.5 -29.5t-31.5 -11.5q2 0 -22.5 -7t-58.5 -16.5t-69 -18.5t-53 -11q-8 -59 -12 -85t-8.5 -46.5t-9.5 -51t-15 -98.5q31 16 93.5 42t141.5 26q18 0 58.5 -1t80.5 -22.5 t70.5 -71t32.5 -143.5q0 -66 -35 -140.5t-91 -139t-128 -107.5t-147 -43q-78 0 -127 46t-49 130z" />
<glyph unicode="6" horiz-adv-x="616" d="M18 18q0 94 33 186.5t85 178.5t115.5 163t125.5 144q29 31 59.5 53.5t57.5 22.5q10 0 21 -7t11 -20l2 -8l-20 -29h2l-28 -22q-29 -23 -77.5 -75t-110 -136t-126.5 -209q45 23 88 33t82 10q53 0 88 -10t39 -10q0 -2 20.5 -10.5t45 -28t45 -56t20.5 -96.5 q0 -55 -25.5 -115.5t-71.5 -109.5t-109.5 -81t-137.5 -32q-119 0 -176.5 67.5t-57.5 196.5zM96 12q0 -72 41 -126t123 -54q41 0 85 23.5t80 61.5t58.5 83t22.5 88q0 47 -38 87t-124 40q-55 0 -113.5 -20.5t-93.5 -59.5l-24 -26q-2 -6 -4.5 -12.5t-5.5 -15.5t-5 -25.5 t-2 -43.5z" />
<glyph unicode="7" horiz-adv-x="612" d="M20 336l5 18l14 6q45 14 99.5 23.5t100.5 16t77 9.5l32 3q47 102 83 181t50 107q-47 -6 -106.5 -16t-113.5 -19.5t-95 -16.5t-51 -9q-4 0 -6.5 -1t-6.5 -1q-6 0 -12 6t-10 25l-6 24l6 19l12 6q10 2 48 9t79 17q49 10 109 23q57 6 108 14q41 4 81 9.5t50 5.5l17 -2l8 -15 v-26q0 -16 -12.5 -40t-34 -63t-48 -94t-53.5 -133q47 4 85 5t46 1l15 -2l8 -12l2 -4v-25q-2 -20 -8 -28.5t-25.5 -10.5t-57.5 -4t-103 -10q-4 -6 -30 -55.5t-65 -127t-86 -173t-92 -193.5l-14 -23l-21 -8l-22 15q-20 14 -21 30q0 10 5.5 20.5t9.5 20.5q6 14 30.5 60.5 t57 113t71.5 146.5t74 161q-86 -10 -154.5 -20t-82.5 -14q-6 -2 -17 -2q-6 0 -12 6t-10 24z" />
<glyph unicode="8" horiz-adv-x="602" d="M23 -78q0 88 22.5 165t99.5 114q-25 14 -41 39.5t-25 54.5t-13.5 57.5t-4.5 50.5q0 70 15.5 127.5t36 99.5t41 68.5t28.5 36.5q31 37 67 53.5t75 16.5q47 0 93 -22.5t82 -61.5t58.5 -91t22.5 -110q0 -45 -11.5 -91t-34 -89t-56.5 -79t-79 -56q57 -39 83 -89t26 -116 q0 -43 -16.5 -91t-49 -89t-79 -67.5t-107.5 -26.5q-43 0 -85 16t-75 44t-53 62.5t-20 73.5zM111 -49q0 -39 12 -65.5t31.5 -42t42 -22.5t43.5 -7q76 0 130 53t54 137q0 21 -2 31q-4 35 -20.5 58.5t-39 37.5t-49 20.5t-49.5 6.5q-37 0 -64.5 -19.5t-48 -49.5t-30.5 -66.5 t-10 -71.5zM145 406q0 -92 37 -122t80 -30q33 0 56.5 8t23.5 12q2 -2 25.5 10.5t52.5 40t52.5 71.5t23.5 104q-6 104 -56.5 163.5t-109.5 59.5q-37 0 -70 -25q-12 -10 -31.5 -36.5t-38 -65.5t-32 -88t-13.5 -102z" />
<glyph unicode="9" horiz-adv-x="630" d="M20 428q0 12 4.5 43t16.5 70t35.5 81t62.5 77.5t94.5 59t133.5 25.5q76 0 123 -33.5t73.5 -83t36.5 -106.5t10 -104q0 -88 -31.5 -179.5t-83 -176.5t-117 -159.5t-132.5 -127.5q-29 -23 -58.5 -37.5t-52.5 -14.5q-12 0 -26.5 7.5t-14.5 19.5q0 2 1 2t1 2l-2 8q0 2 6 6 l17 19q10 4 20 12t25 15q14 8 45 31.5t67.5 62.5t76.5 92t75 121q-47 -12 -96 -13q-78 0 -146.5 28t-107.5 81q-23 33 -34 61.5t-15 50t-4 36v18.5v-2q-2 0 -3 8zM111 408q0 -45 18 -78t49 -54.5t71 -32t83 -10.5q25 0 55.5 5.5t87.5 19.5l4 -4q4 16 12.5 33.5t18.5 44.5 q2 10 11 47t9 84q0 33 -9 75t-28.5 78.5t-51 62.5t-76.5 26q-49 0 -95.5 -23t-81 -62.5t-56 -94t-21.5 -117.5z" />
<glyph unicode=":" horiz-adv-x="407" d="M137 96q10 43 11.5 71t3.5 44t9 23.5t27 9.5h23h2q8 -8 14 -23.5t6 -40.5q0 -8 -1 -26.5t-5 -38t-15 -34.5t-30 -15q-35 0 -40 14t-5 16zM166 369q0 2 1 3t1 3q12 57 13 85.5t3 42t7.5 15.5t25.5 4h23h2q20 -14 20 -63q0 -8 -1 -27.5t-5 -39t-14.5 -34t-28.5 -14.5 t-30.5 8t-14.5 13q0 2 -1 2t-1 2z" />
<glyph unicode=";" horiz-adv-x="409" d="M76 10q0 2 1 4t1 4q18 45 32.5 94.5t24.5 89.5t18.5 65.5t14.5 25.5q4 0 8 -1t10 -1l25 -4l2 -2q4 -2 4 -25q0 -16 -6 -62t-18.5 -95.5t-30 -87.5t-37.5 -38t-33.5 12.5t-13.5 16.5q0 2 -1 2t-1 2zM162 369v4q8 33 11 59.5t7 44.5q2 23 4 37q4 4 31 4h23h2q8 -6 14 -21.5 t6 -41.5q0 -8 -1 -26.5t-6 -38t-15.5 -34t-28.5 -14.5t-28.5 5t-14.5 11.5t-4 10.5z" />
<glyph unicode="&#x3c;" horiz-adv-x="538" d="M51 358q0 37 10.5 66t22.5 39q72 61 139.5 97t120.5 55.5t90 24.5t49 5q23 0 27 -10t4 -27l-6 -24l-14 -15l-25 -4q-12 -4 -55 -13t-99 -32q-27 -10 -61.5 -26.5t-65 -35t-54 -35.5t-25.5 -30q0 -12 48 -34.5t109.5 -44t119.5 -39t79 -19.5q20 -4 22 -20v-9l-10 -22 q-12 -25 -33 -25q-16 0 -24 2q-12 2 -43 8.5t-72 18.5t-86 27.5t-82 34t-61.5 41t-24.5 46.5z" />
<glyph unicode="=" horiz-adv-x="593" d="M45 238q0 18 46 25t111.5 9t140.5 2t134 5q10 0 17.5 -2.5t13.5 -30.5l4 -25q0 -10 -21.5 -17t-57.5 -11.5t-82 -6.5t-93 -2q-41 0 -78 1t-65.5 4.5t-46 5.5t-17.5 6l-4 24q0 4 -1 6t-1 7zM45 434q0 18 46 25.5t111.5 9.5t140.5 2t134 4q10 0 17.5 -2t13.5 -31l4 -24 q0 -10 -21.5 -17.5t-57.5 -11.5t-82 -6t-93 -2q-41 0 -78 1t-65.5 4t-46 5t-17.5 6l-4 25q0 4 -1 6t-1 6z" />
<glyph unicode="&#x3e;" horiz-adv-x="526" d="M37 608q0 16 4 26.5t27 10.5q20 0 59 -11t104 -38q47 -20 106.5 -46t131.5 -87q10 -10 20.5 -39t10.5 -66t-51.5 -68.5t-117 -54t-125 -37t-75.5 -16.5q-10 -2 -25 -2q-20 0 -32 25l-11 22v9q2 16 23 20q12 2 44 10t72 20.5t82 28t77.5 29.5t58 27.5t22.5 21.5 q-4 12 -26.5 29.5t-53 36t-65.5 35t-61 26.5q-55 23 -98.5 32t-55.5 13l-25 4l-14 15z" />
<glyph unicode="?" horiz-adv-x="667" d="M72 -98q0 33 22.5 42t28.5 9q23 0 33 -12q2 4 8 4q8 0 12 -2l2 -2q4 0 20.5 -13.5t16.5 -42.5q0 -23 -19.5 -41t-45.5 -18q-29 0 -53.5 23.5t-24.5 52.5zM78 752q0 61 25.5 127.5t73.5 123t114.5 92t146.5 35.5q41 0 76 -8h2q53 -31 71.5 -69.5t18.5 -79.5q0 -39 -11 -74 t-22 -68q-4 -14 -8 -27t-8 -24q-23 -59 -47.5 -111.5t-48.5 -101.5h6q4 -2 12 -2l2 -10l-2 2q2 -4 4 -6t2 -4q0 -16 -16 -30.5t-45 -20.5q-33 -66 -64.5 -137.5t-57.5 -137t-44 -116t-25 -70.5q-12 -41 -20 -53.5t-39 -10.5q-2 0 -3 -1t-3 -1q-4 0 -7 10.5t-7 26.5 q0 8 10 51t31.5 107.5t54.5 146.5t76 168h-2q-31 0 -73 10.5t-81 40t-65.5 83t-26.5 139.5zM156 735q0 -98 49 -139t119 -41q16 0 26 1t21 3q14 29 32.5 63.5t32.5 63.5q35 80 65.5 156t30.5 131q0 43 -16 58.5t-27 21.5q0 4 -30 4q-29 0 -80 -11.5t-100.5 -45t-86 -97 t-36.5 -168.5z" />
<glyph unicode="@" horiz-adv-x="1474" d="M199 424q0 166 40 314.5t119.5 260t197.5 178t275 66.5q59 0 136 -22.5t147 -63.5t119 -98.5t55 -124.5q6 -35 8 -67.5t2 -67.5q0 -156 -52 -291t-128 -239.5t-160 -173t-147 -93.5q-20 -10 -35.5 -12t-29 -2t-25.5 -2t-27 -9q-53 0 -93 25t-66.5 63.5t-40 89 t-13.5 101.5q0 74 24.5 138.5t65.5 113.5t97.5 76.5t119.5 27.5q31 0 58.5 -11t49.5 -26.5t37 -32t21 -28.5q6 31 10.5 67.5t4.5 73.5t-7.5 78t-21.5 74t-36.5 54.5t-55.5 21.5q-29 0 -55.5 -15.5t-49 -39t-40 -50t-25.5 -49.5q-4 -35 -9 -64.5t-5 -39.5v-9l-13 -4h-30 q-29 0 -31 4.5t-2 14.5t2 60t5 107.5t5 107.5t2 63q0 6 5 13t36 7h21l16 -6l8 -10v-82q39 39 81 60.5t79 21.5t69.5 -14.5t55 -33t36 -36t13.5 -21.5q16 -2 23.5 -43t7.5 -100q0 -57 -5.5 -125t-14.5 -129t-20.5 -106.5t-23.5 -57.5l-10 -26l-18 -11l-25 6q-27 18 -27 41 q0 6 2 14.5t4 16.5v12q0 8 -5 36t-19 57.5t-40 53t-65 23.5q-61 0 -102 -30.5t-64.5 -67.5t-32.5 -68.5t-9 -33.5q-2 -10 -5 -21q-2 -10 -2 -22.5v-26.5q0 -23 4.5 -56.5t17.5 -64t38.5 -53.5t66.5 -23q25 0 47.5 7.5t55.5 25.5q23 6 73 40t107 97.5t113.5 157.5t93.5 221 q12 41 21.5 88.5t9.5 98.5q0 76 -25 140.5t-74 112.5t-124.5 75.5t-180.5 27.5q-92 0 -175 -29.5t-146 -91.5q-106 -133 -158.5 -296t-52.5 -322q0 -123 33.5 -234.5t90 -197.5t129 -136.5t150.5 -50.5q61 0 115.5 23.5t96.5 53.5t68.5 56.5t32.5 30.5q39 39 62.5 74 t41 61.5t34 42t45.5 15.5l12 -4q0 -4 1 -7.5t1 -9.5q0 -10 -12.5 -40t-59.5 -111q-12 -18 -39.5 -52t-71.5 -71t-104.5 -73t-140.5 -58q-27 -4 -47.5 -9.5t-42.5 -5.5q-80 0 -152.5 40t-131 103.5t-99.5 142.5t-59 155q-23 72 -30 138t-7 132z" />
<glyph unicode="A" horiz-adv-x="884" d="M25 225q0 154 57 306.5t149.5 273.5t207 196.5t231.5 75.5q53 0 101 -27.5t60 -80.5q10 10 29 10l25 -2l10 -23l-2 -30q-27 -127 -48.5 -233.5t-37.5 -204t-30.5 -190.5t-24.5 -190q-4 -16 -4 -27v-22q0 -43 12 -58t31 -15q20 0 37.5 12t21.5 27l14 16l27 4l20 -8 q12 -16 13 -29q0 -23 -35 -57q0 -10 -24.5 -28.5t-71.5 -18.5q-37 0 -71 23.5t-50 82.5q-12 -18 -41 -53t-74 -70t-105.5 -61.5t-136.5 -26.5q-80 0 -135 38t-90 98.5t-50 137t-15 154.5zM106 223q0 -43 8.5 -102.5t32 -113.5t66.5 -92t113 -38q66 0 126 36t105 82t72.5 86 t29.5 50q11 17 15 33q16 100 30.5 187t27.5 164t25.5 147.5t26.5 142.5q0 8 -2 38.5t-11 65.5t-32.5 62.5t-66.5 27.5q-63 0 -141 -40.5t-142 -98.5q-76 -72 -126 -151.5t-78.5 -146t-40 -109.5t-11.5 -39q-8 -25 -14 -56q-4 -27 -8.5 -60.5t-4.5 -74.5z" />
<glyph unicode="B" horiz-adv-x="909" d="M39 -53q20 199 42.5 367.5t42 299.5t34 220.5t22.5 128.5q-16 -8 -26.5 -17.5t-17.5 -16.5t-14 -12.5t-20 -5.5q-4 0 -18 1t-25 20q-2 2 -2 8q0 8 2 12v-2l19 26q18 25 60 56t111.5 57.5t172.5 26.5q72 0 129 -19.5t98 -54t62.5 -82t21.5 -102.5q0 -25 -6 -59.5 t-21.5 -72.5t-44 -76t-73.5 -64q76 -8 128 -35t86 -61.5t51 -73.5t24.5 -73t8.5 -58.5t1 -30.5q0 -84 -38 -148.5t-98.5 -112.5t-133 -82t-140 -54.5t-124 -30.5t-81.5 -12l-45 -4q-6 2 -13 8t-11 30q4 29 27.5 35t60.5 15q4 4 41 12t91 22.5t116.5 40t117 64.5t92 93 t44.5 130q-6 74 -30 121t-59.5 74.5t-79.5 39t-89 11.5q-98 0 -186.5 -25.5t-166.5 -48.5h-2q-35 -264 -51 -387t-55 -123q-14 0 -35 19v6zM193 514q57 20 133.5 44t147.5 59.5t120 91t49 143.5q0 49 -19.5 84t-50 56.5t-70.5 30.5t-81 9q-47 0 -89 -10t-75 -21q4 -6 4 -20 q0 -53 -23 -170t-46 -297z" />
<glyph unicode="C" horiz-adv-x="784" d="M31 252q0 145 49 300t131 282t189.5 207.5t226.5 80.5q37 0 68.5 -11t54.5 -40q43 -55 50 -97t11 -61q2 -12 2 -24v-23q0 -49 -12.5 -80.5t-40.5 -31.5q-14 0 -20.5 10t-7.5 25.5t0 34t1 32.5q0 6 -2 36t-11 62.5t-30.5 59t-60.5 26.5q-31 0 -66 -12t-71.5 -32.5 t-71.5 -49t-62 -61.5q-113 -123 -178 -289t-65 -340q0 -37 7 -101.5t30.5 -128t68.5 -109.5t119 -46q53 0 110.5 41t104.5 91t77 95t30 56q6 12 14 26.5t16 27.5t17.5 21.5t17.5 6.5q12 0 19.5 -14.5t7.5 -28.5q0 -23 -12.5 -55t-32.5 -68q-10 -12 -41 -54.5t-78 -89.5 t-108.5 -86t-131.5 -43q-92 0 -153.5 39t-98.5 102.5t-52 145.5t-15 168z" />
<glyph unicode="D" horiz-adv-x="1042" d="M35 932q0 16 25.5 34.5t54.5 37.5q12 6 43.5 22t78 31.5t105.5 28t125 12.5q78 0 156.5 -22t154.5 -77q88 -61 138.5 -138t75 -150.5t29.5 -132t5 -82.5v-15q0 4 -3 -47t-24.5 -131t-69.5 -173t-136 -173q-59 -53 -128 -88t-136.5 -54.5t-132 -26.5t-115.5 -7 q-121 0 -179.5 23.5t-58.5 31.5l2 8q0 16 20.5 25.5t40.5 9.5q25 0 60 -6v23q2 10 7 37.5t12.5 66.5t16.5 84t17 90q20 106 45 236q35 160 62 288q12 55 23 109.5t20.5 100.5t16.5 79t11 43l11 27l20 12l23 -6q27 -10 26 -35q0 -8 -2 -17.5t-4 -19.5q-4 -20 -20.5 -103 t-40 -198t-50 -245t-50 -243.5t-40 -196.5t-20.5 -101q-4 -12 -5 -21.5t-5 -17.5q10 -2 24.5 -2h30.5q53 0 129 11t162 52q74 27 138 83.5t112.5 133t76 168.5t27.5 193q0 92 -30.5 177t-82 152.5t-118 112.5t-136.5 58q-66 12 -118 12q-100 0 -166 -24.5t-88 -35.5 q-41 -18 -71 -34.5t-52 -16.5q-10 0 -22.5 5t-16.5 16z" />
<glyph unicode="E" horiz-adv-x="716" d="M27 281q0 137 37.5 253.5t84 200.5t85 131t38.5 43l10 13q11 12 32.5 31.5t54 42t80.5 44.5q18 10 48.5 19.5t65.5 10.5h5q33 0 64 -12q34 -14 62 -48q42 -59 50 -128q6 -47 5 -93q0 -22 -1 -44q-10 -66 -31 -132t-52.5 -124.5t-76.5 -104.5t-107 -73q-55 -21 -103 -21 h-10q-52 2 -92 13.5t-68 26t-40 18.5q-29 16 -49 33q-9 -63 -9 -124q0 -20 1 -41q4 -81 26 -150q23 -100 70 -140.5t95 -46.5q13 -2 25 -2q33 1 62 13q39 16 49 28q29 16 48.5 35.5l35 35t30.5 23.5t34 4q4 0 16 -4l6 -6l-4 -10q0 -10 -12 -31q-10 -16 -23.5 -32.5 t-29.5 -36.5q-12 -6 -37 -28t-63 -41.5t-90 -27.5q-13 -2 -28 -2q-42 0 -92 17q-63 33 -101 85t-59.5 115.5t-30.5 132t-11 134.5zM129 451q25 -10 55.5 -26.5t71.5 -35.5q14 -7 56 -17q20 -5 42 -5q26 -1 54 5q54 10 107.5 49.5t92.5 129.5q18 39 34 84q14 45 22 93 q5 34 6 70q0 14 -1 28q-3 50 -20 98q-14 51 -52 61q-15 4 -32 4q-25 0 -52 -9q-46 -15 -94 -51t-83 -75q-80 -86 -131 -190.5t-76 -212.5z" />
<glyph unicode="F" horiz-adv-x="462" d="M43 -143.5q0 8.5 2 18.5q2 14 6 57t10.5 105.5t14.5 139.5t16 161q-4 0 -8 -2t-8 -2t-10.5 6t-10.5 25l-6 24l2 17l10 8q4 0 14.5 3t26.5 7q8 82 15.5 160t14.5 145.5t12.5 119.5t7.5 81q-27 -4 -35 -6t-19 -2q-18 0 -28 28l-7 25l9 18l20 8q117 23 206 39.5t170 28.5 t164 23.5t187 27.5h21l14 -16l2 -6v-17q0 -29 -10 -34t-29 -9q-16 -2 -83.5 -13t-156 -25.5t-181.5 -30t-160 -25.5q-4 -37 -9.5 -103.5t-12.5 -140t-13 -142.5t-11 -109q33 8 96.5 20t153.5 29l13 -2l8 -17l4 -22q0 -6 1 -10.5t1 -8.5q0 -20 -80 -35.5t-205 -44.5 q-6 -47 -15 -126.5t-18.5 -160.5t-16.5 -146.5t-9 -84.5l-8 -30l-19 -15l-24 4q-18 6 -23.5 16.5t-5.5 26.5v14.5z" />
<glyph unicode="G" horiz-adv-x="817" d="M33 98q-5 50 -5 100q0 83 13 166q20 134 64.5 256.5t107.5 228t135 181.5q35 39 80 72t100 39q7 1 14 1q36 0 61 -18q30 -22 49.5 -51t28.5 -56.5t13 -35.5q4 59 5 90t4.5 44t11.5 16.5t26 5.5l27 -4l14 -9l4 -12q-8 -100 -13 -219t-19 -225q-33 -1 -51 -1h-15 q-16 1 -16 3q0 6 -1 42t-5 70q-2 12 -3 23.5t-4 21.5l-9 36t-25.5 80t-40.5 79q-22 33 -51 33h-3q-27 -2 -59.5 -25.5t-64 -59.5t-62.5 -78t-51 -79q-57 -96 -92 -192.5t-53.5 -175t-24.5 -130t-6 -59.5q-2 -14 -2 -35v-40.5t4 -55.5q4 -37 13 -80t28.5 -80t52.5 -61 q26 -18 64 -18q10 0 20 1q12 0 25.5 5.5t29.5 9.5q82 39 143.5 107.5t104.5 151.5t66.5 170t31.5 163q-8 0 -34.5 -5.5t-64.5 -11.5t-83 -14t-90 -17l-14 5l-17 36q2 4 1 5.5t1 5.5q-2 18 5.5 22t19.5 6q12 4 64.5 14.5t114 22.5t113.5 22.5t64 14.5q4 -2 7 -1t6 1 q4 0 10 -6t12 -25l2 -14l2 -10v-15l-14 -10q-4 -2 -3 -2t0 -1t-6.5 -2t-19.5 -3q-2 -84 -20.5 -166t-47 -154.5t-65.5 -134t-76 -102.5q-23 -23 -49.5 -47.5t-59 -46t-70.5 -36.5t-79 -20q-16 -2 -32 -2q-55 0 -94 23q-50 29 -81.5 74t-47 99t-19.5 99z" />
<glyph unicode="H" horiz-adv-x="774" d="M37 -57q0 6 1 12t1 14q0 23 10 108t24.5 200.5t32 247.5t33 248t25.5 200t12 106q4 29 7 47.5t32 22.5h25l16 -19l2 -32q-6 -172 -31.5 -342t-50.5 -346l471 51q20 125 35.5 249t28 223t23.5 160.5t28 61.5q2 0 19.5 2t27.5 -12l4 -15v-30q0 -12 -3 -43t-7 -72t-10.5 -90 t-12.5 -98q-14 -115 -32 -254q-20 -139 -37 -252q-6 -49 -13.5 -97.5t-12.5 -89.5t-8 -70.5t-3 -41.5l-6 -29l-17 -16l-24 2q-20 4 -26.5 16t-6.5 29q0 -4 7 84t36 301q-37 -6 -107.5 -13.5t-143.5 -15.5t-132 -13t-72 -7q-4 0 -6 -1t-6 -1q-2 0 -2 1t-2 1 q-8 -59 -17.5 -122t-16.5 -118t-11 -97t-4 -56l-4 -31l-19 -17l-24 2q-20 4 -26.5 17.5t-6.5 34.5z" />
<glyph unicode="I" horiz-adv-x="878" d="M31 -143l8 18l20 8q14 4 65.5 15.5t111 22.5t115 21.5t75.5 14.5q23 256 58.5 508t84.5 508q-72 -12 -140.5 -23.5t-123.5 -21.5t-93 -17.5t-50 -9.5q-10 -2 -17.5 -3t-13.5 -1q-20 0 -31 27l-8 24l12 19l23 10q223 51 446.5 84t456.5 65l25 -2l16 -14l2 -23 q0 -23 -17.5 -33t-64.5 -19t-130 -19t-212 -31q0 -10 -1 -18.5t-3 -18.5q-4 -18 -13 -90t-23.5 -171t-30 -213t-29.5 -216t-25.5 -181t-15.5 -108q39 6 87 12.5t94 12.5t81 10t47 6l23 -2l12 -14l2 -8l2 -17q0 -29 -12.5 -33t-30.5 -8q-14 -2 -69.5 -11t-131 -20.5 t-161.5 -25.5t-161 -26.5t-130.5 -22.5t-69.5 -12q-16 -4 -24 -5q-18 0 -29 29z" />
<glyph unicode="J" horiz-adv-x="618" d="M-25 18q0 98 28 152.5t61.5 80t62.5 31t31 5.5q4 0 11 -1t7 -3l2 -25q0 -18 -6 -27.5t-15.5 -16.5t-20.5 -15.5t-23 -24.5q-10 -6 -35 -46t-25 -97q0 -35 14.5 -72t44 -68.5t73.5 -52t106 -20.5q49 0 89 25.5t50 88.5q23 94 45.5 200t41 209t34.5 199.5t28.5 174.5 t19.5 130t11 68q2 10 2 19.5t2 19.5q-72 -12 -140 -24.5t-124.5 -21.5t-95.5 -17t-51 -10l-17.5 -3.5t-13.5 -1.5q-23 0 -33 27l-6 25l10 18l25 10q221 53 445.5 86t455.5 64l27 -2l14 -15l2 -6v-16q0 -20 -16.5 -31.5t-61.5 -19.5t-127 -18.5t-213 -30.5v-19 q-2 -27 -13 -114t-29.5 -202.5t-40 -242.5t-42 -233.5t-36 -177t-21.5 -70.5v-2q0 -6 -10 -34t-36 -58.5t-69 -54t-108 -23.5q-80 0 -139.5 27.5t-98.5 70.5t-57.5 93t-18.5 93z" />
<glyph unicode="K" horiz-adv-x="692" d="M31 -47q20 123 35.5 221t30 184t28.5 166t29.5 166t33 183.5t41.5 220.5l11 32l20 15l23 -8q27 -10 26 -39q0 -8 -1 -18.5t-3 -20.5q-4 -16 -12 -67.5t-21.5 -126.5t-30 -166t-32.5 -185v-4q123 154 246 303t256 297l20 16l27 -4l12 -12q12 -16 12 -27q0 -10 -6 -19 t-16 -22q-8 -10 -38 -46t-72 -86t-93 -111.5t-102.5 -123t-99.5 -117.5t-83 -99l15 -15q119 -156 231.5 -316.5t218.5 -328.5l8 -20l-6 -21l-20 -12q-16 -6 -23 -6q-12 0 -19 8t-15 18q-8 12 -41 59.5t-78 112t-96.5 138t-96.5 138t-77.5 112t-41.5 59.5q-4 4 -8 12 q-23 -23 -28 -31t-15 -16q-27 -156 -40 -245t-22 -134t-19.5 -57t-30.5 -12l-25 2l-12 20v33z" />
<glyph unicode="L" horiz-adv-x="258" d="M6 -170q2 16 12.5 73.5t23.5 132.5t28.5 157.5t29 152.5t21.5 115l8 45q2 0 10 38t20.5 97t28 129t29.5 134.5t24.5 113.5t14.5 65l8 31l19 14l24 -4q27 -10 27 -37q0 -10 -2 -20t-4 -23q-4 -27 -23.5 -123t-46.5 -225t-56.5 -275.5t-55 -272t-42 -216t-16.5 -106.5 q55 10 137 22.5t162 22.5h19l12 -16l2 -9v-18q0 -27 -9.5 -31t-25.5 -8q-16 -2 -63.5 -9t-100.5 -15.5t-100 -16.5t-64 -10q-4 0 -7 -1t-7 -1t-12 3t-14.5 13t-10.5 28.5t0 49.5z" />
<glyph unicode="M" horiz-adv-x="876" d="M31 -51q29 268 65.5 535.5t79.5 543.5l6 19q0 12 4 20t23 16l24 7l19 -11l8 -24q37 -197 92.5 -392.5t106.5 -404.5q96 207 197.5 410.5t193.5 416.5l14 25l21 8l22 -8q27 -10 27 -37q0 -8 -1 -16t-3 -19q-41 -270 -68.5 -467.5t-47 -324.5t-31 -187.5t-19.5 -60.5l-35 2 l-14 16v31q10 121 22.5 219.5t24.5 185.5t23.5 168.5t21.5 170.5q-84 -180 -145.5 -306.5t-102.5 -206t-61 -117.5l-21 -38l-4 -4l-22 -6q-4 0 -6.5 -1t-4.5 -1q-27 0 -30.5 14t-8.5 35q-6 18 -25.5 91t-46 171t-53 205.5t-47.5 197.5q-35 -268 -56 -445t-36.5 -284.5 t-31 -152.5t-35.5 -45l-25 2l-14 18v31z" />
<glyph unicode="N" horiz-adv-x="712" d="M35 -109.5q0 7.5 2 15.5q0 23 9 104.5t24.5 192t32 236.5t32 236.5t25.5 190.5t12 101q2 29 7 45t34 20l16 6l21 -12l12 -27q37 -78 68.5 -181t63.5 -225t67 -260t78 -286q57 328 93 545t60.5 347t40 183.5t29.5 53.5l33 -5l4 -4l9 -16l-1 -33q-20 -129 -35.5 -232.5 t-29 -192.5t-28 -173t-31.5 -173t-37.5 -191.5t-47.5 -229.5l-10 -30l-19 -17l-32 2q-29 2 -36 14.5t-18 43.5q-4 14 -19 66t-36.5 127t-47.5 166t-51.5 182t-49 177t-41.5 154q-12 -109 -22.5 -188.5t-21 -146t-18.5 -126t-18.5 -128t-20.5 -151.5t-22 -194l-6 -31l-17 -16 l-24 4q-20 4 -26.5 15.5t-6.5 27.5v13.5z" />
<glyph unicode="O" d="M35 127q0 180 42 334.5t96 271.5t106.5 190.5t72.5 96.5q39 43 76 67.5t66 24.5q12 0 24 -7t12 -15q2 -18 -25.5 -38t-51.5 -44q-33 -18 -88.5 -99.5t-109.5 -203t-93 -269t-39 -297.5q0 -109 28.5 -172t81.5 -67q11 -1 21 -1q66 -1 122 33q64 38 115.5 102t87 140 t54.5 145q25 90 37 181.5t12 179.5q0 102 -11.5 168.5t-27.5 108.5t-35.5 62.5t-34 33t-22.5 20t-4 21.5q6 20 37 20q29 0 60.5 -15.5t58 -61.5t44 -132t17.5 -227q0 -8 -4 -73.5t-19.5 -159t-47 -201t-88 -199.5t-141.5 -154.5t-208 -68.5q-8 -1 -16 -1q-55 1 -93 25 q-43 28 -67.5 72.5t-34.5 100t-10 108.5z" />
<glyph unicode="P" horiz-adv-x="743" d="M53 -152l2 31q2 16 8.5 62.5t15.5 108t20.5 128t20.5 121.5t14 92l5 37q0 6 7.5 50t19.5 106.5t25.5 135.5t26.5 134t21.5 102t10.5 43l2 5q4 6 22.5 23t54.5 35.5t93 33t139 14.5q68 0 112 -28.5t68.5 -76t34.5 -106.5t10 -119q0 -82 -17 -166t-50 -158.5t-82 -136 t-113 -98.5q-98 -61 -173 -77.5t-103 -16.5q-27 0 -39 1t-29 7q-18 -109 -27.5 -171t-15.5 -93t-15 -39t-30 -8l-24 4zM190 211q8 -2 16.5 -4t22.5 -2q20 0 62.5 9t90.5 27.5t97 49.5t86 74q43 51 67.5 106t37 102.5t14.5 62.5l6 46q-2 2 3 34t5 79t-4 89t-21.5 73.5t-50 50 t-90.5 18.5q-98 0 -154 -26.5t-63 -65.5q-4 -20 -16 -95t-29.5 -177.5t-39 -222.5t-40.5 -228z" />
<glyph unicode="Q" horiz-adv-x="745" d="M35 143q0 178 34.5 328t80 262.5t90.5 185t65 99.5q37 47 75 72.5t66 25.5q10 0 22.5 -6t12.5 -14l4 -9q0 -12 -24.5 -29.5t-52.5 -49.5q-31 -18 -80 -96t-95.5 -195t-79 -259.5t-32.5 -285.5q0 -100 21.5 -175t76.5 -97l2 28q2 29 7 72t12.5 94t17.5 99l6 14l17 6l24 -4 q25 -6 28 -14.5t3 -22.5q-2 -16 -10.5 -88t-18.5 -158q0 -16 -2 -22q23 0 73 25.5t102 77.5t95 133t56 192q24 124 24 248v10q0 137 -16 228t-37.5 145.5t-45.5 77t-38 22.5l-22 16q-10 4 -11 6v9q-2 2 -2 6t4 8q6 23 41 22q33 0 74 -25.5t60 -80.5q23 -37 49 -144.5 t26 -267.5q0 -45 -3 -115.5t-15 -150.5t-39 -164t-75 -157.5t-119.5 -129t-176.5 -79.5q-8 0 -12 -2q-8 -59 -10 -92t-5 -48.5t-10.5 -18.5t-27.5 -3h-25l-14 10l-4 14q0 10 3 51.5t7 86.5q-53 12 -87 50t-53.5 87t-27.5 100t-8 92z" />
<glyph unicode="R" horiz-adv-x="700" d="M27 -55q0 59 12 157.5t30.5 213t41 232.5t43 216t37 164.5t22.5 79.5l2 2q23 35 60.5 53t81.5 27.5t89 11.5t82 2q63 -2 103.5 -31t63 -72t30.5 -97t8 -107q0 -242 -100.5 -405t-272.5 -220q59 -8 111.5 -43t77.5 -94q23 -59 27 -110.5t4 -65.5l-5 -17l-14 -10l-24 2 q-29 4 -33 12.5t-6 22.5q0 84 -30 133t-80 75.5t-115.5 35t-139.5 8.5q-12 -63 -17 -106.5t-9.5 -69t-12.5 -36.5t-28 -11h-25l-14 18v29zM145 205q2 0 5.5 -1t7.5 -1q23 0 64.5 8t92 26.5t100.5 48t89 72.5q45 47 71.5 101.5t41 100.5t17.5 77t3 29q-2 -4 4 31.5t6 88.5 q0 45 -4 88.5t-21.5 77t-50 53t-88.5 19.5q-63 0 -119.5 -18.5t-78.5 -34.5q-4 -16 -6 -27q-4 -20 -18.5 -100t-34 -187.5t-41 -228.5t-40.5 -223z" />
<glyph unicode="S" horiz-adv-x="700" d="M35 59q-1 15 -1 28q0 39 8 69q11 42 25.5 69t28 40.5t17.5 13.5l6 -5q10 -4 18 -17t10 -26q0 -14 -5 -30.5t-11 -36t-11 -43t-5 -51.5q2 -23 13 -51.5t35.5 -53t62.5 -42t93 -17.5q47 0 91.5 14t78 41t53.5 63q18 32 17 70v8q-4 72 -31.5 134.5t-67.5 121t-86 114.5 t-86 115.5t-68 124t-32 140.5v10q0 52 20 100q22 52 60.5 88.5t91 57t111.5 20.5q80 0 136.5 -23.5t93 -60t54 -79.5t19.5 -80v-11q0 -80 -28 -130q-30 -54 -62 -54q-6 0 -18.5 2t-14.5 25q0 12 7.5 22.5t15.5 26.5t15 43q5 21 5 53v19q-2 18 -13 46.5t-34.5 54.5t-62.5 44 t-97 18q-84 0 -145 -46q-57 -43 -57 -130v-12q2 -72 29.5 -133t66.5 -118.5t83 -112t83 -111.5t65.5 -119.5t30.5 -134.5v-9q-1 -58 -23 -110q-24 -56 -68 -97.5t-105.5 -65t-131.5 -23.5q-55 0 -105 20.5t-89 54t-61.5 75.5t-24.5 87z" />
<glyph unicode="T" horiz-adv-x="282" d="M-250 948l10 19l23 8q12 4 51 11t89 17.5t104.5 20.5t100.5 18.5t76 13.5l29 5l30 5t76 11t101.5 14.5t105.5 15.5t89 11t51 6h25l16 -14l2 -8v-17q0 -20 -16.5 -30.5t-62.5 -18.5t-129 -19t-214 -32q0 -8 -1 -17.5t-3 -19.5q-2 -20 -12 -95t-24.5 -178.5t-32 -221 t-32 -221t-25.5 -179.5t-13 -94q-4 -27 -9 -43t-34 -18l-25 2l-14 16v31q12 111 21.5 195.5t18.5 159.5t19.5 144.5t21.5 146.5t26.5 169t35.5 211q-72 -12 -139.5 -24.5t-122.5 -21.5t-93 -16.5t-50 -9.5q-10 -2 -17.5 -3t-13.5 -1q-10 0 -18.5 5t-14.5 22z" />
<glyph unicode="U" horiz-adv-x="686" d="M33 123q0 113 19.5 222.5t47 219t59 219t58.5 220.5q8 37 17.5 61.5t41.5 24.5l25 -5l8 -26q0 -18 -6 -43q-14 -45 -33.5 -118t-40 -160t-40 -179t-36 -175t-25.5 -149.5t-9 -101.5q0 -29 2 -60.5t11 -59t27.5 -46t53.5 -18.5q39 0 79 9t80 22.5t78.5 28t75.5 24.5 q45 285 72 475t43 304t31.5 162t40.5 48l24 -2l4 -4l11 -12v-31q-2 -10 -6.5 -38t-9.5 -67t-11 -84l-12 -90q-14 -106 -33 -235q-2 0 -7 -34t-13.5 -86t-17.5 -114.5t-19.5 -120t-17.5 -100.5t-11 -57l-8 -29l-19 -12l-24 4q-27 10 -27 35q-31 -8 -69.5 -22.5t-80.5 -28 t-82 -23.5t-73 -10q-49 0 -84 21.5t-55.5 58t-29.5 84t-9 98.5z" />
<glyph unicode="V" horiz-adv-x="587" d="M31 901q0 31 8 56.5t37 25.5h8q20 -14 27 -94q2 -23 9 -91.5t20.5 -160.5t34 -198.5t46 -206t59 -179.5t74.5 -121q6 29 24.5 114t44.5 196.5t52.5 236.5t52 236.5t44 195.5t24.5 113q10 39 20.5 65.5t20.5 26.5l8 -2q6 0 14 -8q20 -14 21 -47q-2 -20 -6 -45t-10 -56 q-6 -33 -28 -133t-52.5 -244.5t-69.5 -319.5t-78 -359q-23 -35 -42 -50.5t-40 -15.5q-23 0 -41 14.5t-33.5 34t-26.5 37t-15 23.5q-35 61 -58.5 126.5t-41 131t-29 127t-19.5 116.5q-23 123 -34 203t-17 130t-7 77t-1 45z" />
<glyph unicode="W" horiz-adv-x="929" d="M33 432q0 80 5 155t13 134t14.5 99t10.5 54q6 29 11 44.5t34 15.5l24 -4l13 -19v-30q-6 -18 -13.5 -79t-13.5 -136.5t-10 -148.5t-4 -116q0 -4 2 -52t9 -120.5t20.5 -156.5t33.5 -158q27 57 62 127t70.5 140.5t72.5 137t68 117.5q10 8 24 8q12 0 22.5 -5t14.5 -7 q10 -16 29.5 -56t40.5 -83q23 -51 49 -111q10 -27 20 -51q10 -23 19.5 -49.5t19.5 -52.5q16 49 33.5 116.5t32 131t24 111.5t9.5 61v-3l5 36t9 91.5t8 122t4 127.5q0 55 -3 97.5t-11 56.5v29l12 18l25 4q16 0 27.5 -7t19.5 -35t11 -83t3 -153q0 -70 -5 -149t-19 -161 q-23 -158 -50.5 -264t-56.5 -171.5t-53.5 -94.5t-36.5 -29q-14 0 -23 13l-6 14l-6 12q-4 10 -23.5 58.5t-45 111t-51 127t-44.5 107.5q-31 -59 -71.5 -141.5t-80.5 -159t-72 -133t-40 -62.5q0 -6 -7 -11t-15.5 -9.5t-15.5 -7.5t-9 -3q-20 0 -26.5 14.5t-16.5 36.5 q-10 18 -25.5 72.5t-32 133.5t-27.5 176.5t-11 201.5z" />
<glyph unicode="X" horiz-adv-x="534" d="M31 -70q0 4 11 35t36.5 93.5t68.5 159.5t107 235q-16 57 -34.5 122.5t-36 124t-30 101.5t-18.5 57q-4 10 -6 17.5t-2 13.5l10 22l23 9q4 0 6 1t4 1q14 0 25.5 -9.5t24.5 -45.5t32.5 -105.5t54.5 -190.5q78 168 123 270.5t70.5 159t41 75t36.5 18.5l22 -7l4 -6l6 -16 q0 -8 -2 -16.5t-6 -18.5q-4 -12 -17.5 -43t-30.5 -72t-38.5 -89t-42.5 -97q-51 -115 -113 -252l-16 -33q31 -109 62.5 -220t59.5 -204.5t48.5 -161t26.5 -85.5q4 -16 7 -27.5t3 -21.5q0 -18 -19 -31l-22 -12l-23 12l-14 31q-8 14 -23.5 62t-35 111.5t-40 133t-38 127 t-28.5 95.5l-11 38q0 4 -2 10q-4 8 -6 25q-27 -55 -55.5 -119t-55 -120t-45 -99t-22.5 -58l-15 -28l-22 -13l-23 9q-20 10 -20 32z" />
<glyph unicode="Y" horiz-adv-x="655" d="M31 330q0 100 24.5 217t54 218t54 173t24.5 80q10 33 18.5 52.5t37.5 19.5l24 -5l11 -22q0 -18 -7 -39q-23 -70 -49 -157t-51 -180t-41 -184t-16 -167q0 -20 3 -47t11 -50.5t24.5 -41t43.5 -21.5q49 2 99 14.5t95 25.5t81 25.5t54 16.5q41 221 62.5 368.5t36 235.5 t28 124t37.5 36l25 -2l4 -4l10 -15l-2 -32q0 -14 -7 -59.5t-17.5 -106t-21.5 -126t-20.5 -121.5t-15.5 -95t-6 -45l-2 2q-2 0 -8 -37t-16.5 -93.5t-20.5 -123t-20.5 -129t-18.5 -109.5t-12 -63l-11 -29l-18 -14l-25 6q-16 6 -21 15t-5 24q0 6 2 21.5t8 49t15.5 90 t25.5 142.5q-16 -6 -49 -18.5t-74 -25.5t-90 -23.5t-100 -10.5q-47 0 -80 18.5t-52.5 50t-27.5 76t-8 95.5z" />
<glyph unicode="Z" horiz-adv-x="460" d="M31 -43q0 14 7 27.5t19 33.5q10 18 37 75t64 138.5t81 181t89 200t87 195.5t77 171q-195 -96 -281 -143.5t-88 -47.5q-12 0 -27 23l-12 23v18l12 10q113 72 234 133.5t243 116.5q4 2 13.5 4t19.5 2q13 0 15 -4q14 -31 14 -43q0 -8 -2 -12t-6 -8q-61 -125 -105.5 -217.5 t-79 -168t-65.5 -143t-66 -143.5t-76.5 -170t-101.5 -221q86 0 171 -5.5t171 -15.5l10 -4l4 -18l-2 -25q-4 -23 -8 -28t-12 -5q-35 0 -102.5 4.5t-134 10.5t-115.5 11l-49 5q-25 4 -30 16.5t-5 22.5z" />
<glyph unicode="\" horiz-adv-x="454" d="M-137 1079l6 17l2 6l25 6q29 0 37 -14.5t20 -44.5q8 -20 42 -100.5t81 -190t100 -234.5t99.5 -235.5t80 -191.5t39.5 -103q14 -31 15 -53q0 -23 -23 -33l-22 -6l-23 12l-12 29q-49 119 -89 213t-76 177t-69 159.5t-68.5 159.5t-73.5 178.5t-85 213.5z" />
<glyph unicode="_" horiz-adv-x="991" d="M70 -164q0 12 49 19.5t127 10.5t173 4t185 2t166 1t115 4q10 0 17 -2t13 -31l5 -24q0 -10 -41 -17.5t-107.5 -11.5t-150.5 -6t-170 -2q-74 0 -141.5 1t-120 4t-83 5t-30.5 6l-4 25q0 4 -1 6t-1 6z" />
<glyph unicode="`" horiz-adv-x="337" d="M18 1106l13 12l20 10q27 12 33 13q2 0 8 -6q4 -18 34 -35t66.5 -30t69.5 -21.5t43 -10.5q8 -2 11 -5t3 -32l-2 -24l-6 -16l-8 -3q-2 0 -3 -1t-5 -1q-29 0 -72 10.5t-86 29t-75.5 45t-41.5 57.5z" />
<glyph unicode="a" horiz-adv-x="608" d="M25 154q0 70 23.5 131t63.5 107t95 74t117 28q66 0 106.5 -34t56.5 -63q6 33 10.5 68t4.5 74q0 37 -6.5 75.5t-19.5 71.5t-36.5 53.5t-58.5 20.5q-27 0 -52.5 -15.5t-47 -38t-39 -48t-25.5 -46.5q-4 -33 -6 -64.5t-2 -39.5l-6 -8l-17 -6h-24q-23 2 -29 5t-6 11 q0 16 3 64.5t7 107.5q2 51 2 86t2 56.5t10.5 30.5t28.5 11h25l16 -6l4 -10v-76q84 74 156 74q51 0 89 -22.5t63.5 -57.5t38 -81t12.5 -91q0 -55 -7.5 -116.5t-18.5 -122t-23.5 -119t-22.5 -107.5q-2 -10 -25 -10q-16 0 -33.5 5t-17.5 11q0 2 2 16.5t4 33t5.5 35t3.5 26.5 q0 8 -5.5 34.5t-19.5 56.5t-39 52.5t-61 22.5q-47 0 -87 -22.5t-68 -59.5t-43 -84t-15 -94q0 -23 4 -57t17 -64.5t38 -52t68 -21.5q33 0 65.5 11.5t59 26.5t45 29.5t22.5 20.5q4 4 14.5 8t24.5 4q10 0 24.5 -7t14.5 -25q-4 -27 -31.5 -53.5t-68.5 -48t-87.5 -36t-82.5 -14.5 q-55 0 -96.5 23.5t-67 62.5t-38.5 89t-13 104z" />
<glyph unicode="b" horiz-adv-x="647" d="M18 -55q12 66 27.5 153.5t32 181t32 183.5t26.5 160.5t17.5 113.5t6.5 41l8 23l18 10l13 -2q25 23 72.5 49.5t113.5 26.5q49 0 79 -17.5t46 -44t22.5 -58.5t6.5 -58q0 -80 -20.5 -132.5t-63.5 -93.5q25 -14 50 -40.5t46.5 -63.5t36 -83t14.5 -95q0 -102 -45 -166 t-107.5 -99.5t-127 -49t-103.5 -13.5q-12 0 -39.5 1t-57.5 4t-55.5 10.5t-33.5 19.5l-15 16v23zM100 -39q14 -4 36.5 -5t51.5 -1q59 0 118 13.5t104 43t72.5 76.5t27.5 115q0 70 -16.5 110.5t-39 62t-47 29t-40.5 7.5l-11 2q-35 -16 -66.5 -23.5t-51.5 -7.5q-14 0 -34 4 t-28 8q-8 -70 -19.5 -138.5t-22.5 -127.5t-20.5 -103t-13.5 -65zM188 467l11 2q31 0 73.5 7t82.5 33t69 75t29 133q0 23 -9.5 51.5t-46.5 32.5q-57 0 -103.5 -28t-62.5 -46q-4 -35 -15 -104.5t-28 -155.5z" />
<glyph unicode="c" horiz-adv-x="600" d="M33 172q0 86 22.5 182.5t64.5 187.5t100.5 170t129.5 128q25 16 55.5 18t56 -9t43 -34.5t17.5 -58.5q0 -59 -11 -111.5t-28.5 -92.5t-38 -63.5t-38.5 -23.5q-8 0 -17 6l-14 18l2 25q2 10 7 19.5t9 23.5q2 0 10.5 20.5t15.5 49t13 60.5t6 56q0 27 -15 27t-35.5 -13.5 t-41 -32.5t-29.5 -32q-47 -63 -80.5 -129.5t-54 -121t-30 -88.5t-9.5 -31q0 -4 -11 -50.5t-11 -105.5q0 -18 4 -50t16.5 -62.5t32 -52t49.5 -21.5q57 0 105.5 44t83 98t57.5 102t29 55q10 23 15 39t22 20l6 6l8 -4l14 -8q14 -12 15 -33q0 -43 -31 -116.5t-82 -141.5 t-117 -113q-53 -36 -111 -36q-14 0 -28 2q-55 8 -89 33.5t-53.5 62.5t-26.5 83t-7 99z" />
<glyph unicode="d" horiz-adv-x="663" d="M-68 -68l9 25q8 14 18 18.5t27 4.5q23 0 42 -6.5t62 -6.5q10 0 14 17q0 14 6.5 65t16.5 122t21.5 153t23.5 158.5t21.5 140t13.5 98.5q-33 -18 -53.5 -33.5t-35 -27t-26.5 -18.5t-26 -7q-8 0 -21 6l-18 14v9q0 16 11 28.5t30 28.5q6 6 30.5 24.5t61.5 39t84 36t102 15.5 q70 0 125 -28t95 -76t61.5 -110.5t21.5 -129.5q0 -129 -34.5 -239t-105.5 -190.5t-175.5 -126t-243.5 -45.5q-72 0 -108.5 13.5t-44.5 23.5zM184 -20q190 39 283.5 170t93.5 327q0 129 -54 203t-171 74q-33 0 -41 -9.5t-8 -17.5v-4q0 -2 2 -2l4 37q-29 -197 -51 -359 q-10 -70 -19.5 -138t-17.5 -125.5t-13.5 -99.5t-7.5 -56z" />
<glyph unicode="e" horiz-adv-x="544" d="M29 190q0 111 35.5 222.5t82.5 214.5q59 125 119 178t105 53q59 0 96 -71.5t37 -182.5q0 -80 -24.5 -151.5t-71 -126t-113 -86t-150.5 -31.5q-18 0 -26 2q-4 -16 -4 -35.5v-40.5q0 -63 35.5 -101t82.5 -38q39 0 70 20.5t52.5 46t34.5 49t18 29.5q16 29 27 50.5t28 21.5 l20 -10q14 -14 15 -35q0 -23 -12.5 -48.5t-30.5 -56.5q0 -4 -15.5 -27.5t-43 -50t-66.5 -49t-90 -22.5q-59 0 -99.5 23.5t-65 61.5t-35.5 88t-11 103zM129 287q57 0 109.5 23.5t92.5 63.5t64.5 95t24.5 121q0 100 -22.5 142t-39.5 42q-20 0 -41.5 -25.5t-40 -58.5t-33 -63.5 t-18.5 -40.5q-2 -6 -13 -28.5t-25.5 -61.5t-30 -91.5t-27.5 -117.5z" />
<glyph unicode="f" horiz-adv-x="524" d="M14 -51q0 20 3 68.5t8.5 109.5t10.5 129t11 126t12.5 100t10.5 53q6 27 16 83t34.5 114.5t70.5 102.5t122 48q57 -2 96.5 -31t64 -68t34.5 -78.5t10 -62.5q0 -12 -2 -26.5t-6 -26.5t-12.5 -19.5t-22.5 -3.5q-29 6 -33 28.5t-6 53.5q-2 4 -7 28.5t-19.5 52.5t-40 50.5 t-66.5 24.5q-47 0 -76.5 -53.5t-49 -126t-29 -150.5t-15.5 -127q6 -4 36 -5t62.5 -3t59 -4t28.5 -8t-2 -19v-26l-8 -15l-6 -2q-44 -3 -89 -3t-91 3q-8 -80 -12.5 -130t-5.5 -80.5t-2 -48t-3 -32.5q-4 -35 -11 -61.5t-34 -28.5l-24 2l-17 21v41z" />
<glyph unicode="g" horiz-adv-x="544" d="M43 235q6 123 40 240t98.5 216.5t162.5 156.5q31 14 57.5 10t47 -21.5t35 -44t20.5 -55.5q3 -23 3 -48q0 -21 -2 -43q-5 -48 -20.5 -90t-38 -71.5t-49.5 -33.5q-8 0 -16 6l-19 12l3 31q4 8 8 20t10 23q6 0 13 19.5t13.5 49t8.5 61.5t-2 56q-4 23 -11.5 36t-23.5 9 t-40 -23.5t-58 -64.5q-43 -59 -77 -137t-54.5 -162t-26.5 -170q-2 -26 -2 -51q0 -58 10 -111q2 -18 7 -38.5t13.5 -37t19.5 -26.5t30 -8q45 6 87 39.5t72.5 77.5t50 90.5t23.5 78.5q-37 -8 -87 -16t-116 -12q-12 4 -20 24.5t-4 30.5q2 4 28.5 10t68.5 14.5t91 15.5t95 13 q18 4 26 -13t4 -42q-4 -55 -29.5 -118.5t-66.5 -120t-93 -97.5t-110 -49q-15 -2 -28 -2q-27 0 -47 8q-29 12 -48.5 33.5t-30 48.5t-14.5 49q-13 78 -13 167q0 29 1 60z" />
<glyph unicode="h" horiz-adv-x="587" d="M18 4q0 4 1 10t1 15q4 27 13.5 107.5t27.5 228.5q16 135 25.5 225t18 144t19.5 78t32 26l24 -2l15 -15l2 -26q-2 -12 -5.5 -48t-8.5 -84.5t-11 -101.5t-11 -98t-8 -75t-3 -32q63 6 96 9.5t58.5 5.5t57 3t93.5 1q2 8 3 15t1 18q16 125 23 206.5t13.5 131t14.5 70t29 22.5 h18l10 -4l13 -11l2 -22q0 -18 -6.5 -83t-12.5 -136q-8 -82 -16 -185q-18 -119 -33 -217l-12 -82t-11.5 -75.5t-8.5 -59t-5 -33.5l-8 -20l-18 -10l-25 4q-18 4 -23.5 12t-5.5 18q0 -2 12.5 91.5t34.5 267.5q-25 -2 -71.5 -5t-96 -6t-89.5 -5.5t-48 -4.5q-16 -88 -26.5 -166.5 t-14.5 -105.5l-8 -25l-18 -10l-23 4q-18 4 -24.5 13.5t-6.5 21.5z" />
<glyph unicode="i" horiz-adv-x="184" d="M-6 -57v-2q2 0 16.5 95t38.5 275q14 113 23.5 187.5t16.5 119t18.5 62.5t31.5 18l25 -2l14 -12l2 -20q-2 -16 -9 -75t-15 -124q-8 -76 -21 -168q-16 -90 -29 -166q-10 -66 -19 -123t-13 -74l-8 -18l-17 -8l-24 4q-18 4 -24.5 12t-6.5 19zM117 883.5q0 31.5 4 66.5t10 66 q2 4 9 2t18 -4l53 -8l4 -5q6 -4 6 -25.5t-2 -52t-7 -67.5t-9 -72l-4 -4q-51 -2 -62.5 0t-13.5 6q-4 12 -5 39t-1 58.5z" />
<glyph unicode="j" horiz-adv-x="579" d="M20 129q0 23 17.5 43.5t34.5 20.5q12 0 21 -14.5t9 -49.5q0 -4 3.5 -30.5t16.5 -57.5t38.5 -56.5t72.5 -25.5q41 0 80 32t64 97q57 158 74.5 272.5t22.5 189.5t11.5 110.5t42.5 35.5q14 0 21.5 -5t11.5 -9q4 -8 4 -14v-27q0 -117 -17.5 -251t-55 -248.5t-98 -191.5 t-148.5 -77q-72 0 -116 32t-68.5 73.5t-33 84.5t-8.5 66zM469 921v70.5t2 30.5q8 2 29 0l30 -4l11 -4l4 -4q4 -63 10 -108q4 -28 4 -59q0 -21 -2 -44l-4 -6l-16 -7h-25q-20 2 -26.5 3.5t-8.5 3.5q-4 14 -6 51t-2 77z" />
<glyph unicode="k" horiz-adv-x="591" d="M18 33q2 16 8.5 72.5t14.5 117.5q8 72 18 160q14 86 25 156q10 59 18.5 114.5t12.5 71.5l6 18l18 9l25 -4q29 -10 29 -29l-1 -7q-2 -7 -5 -35t-10 -80t-19 -138l52.5 52.5t51 50t37.5 37.5l14 15l32 31q32 31 71 71t73.5 77.5t40.5 48.5l15 10l14 -2l10 -6l15 -10 q16 -16 16 -27q0 -6 -5 -12.5t-11 -14.5q-10 -12 -52.5 -59t-98.5 -105.5t-116.5 -119t-107.5 -101.5q10 -16 34.5 -53t49.5 -72q29 -43 59 -90q35 -57 64 -106q25 -41 46 -78t25 -47l5 -15l-9 -16l-22 -12q-16 -8 -25 -8q-10 0 -14 5t-8 13t-23.5 39t-46.5 74t-57.5 92 t-59 93t-50 79t-30.5 49q-2 0 -6 -4q-16 -106 -22 -173t-12.5 -103.5t-16.5 -50t-31 -13.5l-24 2l-15 14z" />
<glyph unicode="l" horiz-adv-x="403" d="M27 -25q0 90 8 191.5t19.5 201t25.5 193.5t26.5 172t21.5 132.5t11 76.5q2 16 21.5 37.5t36.5 21.5q25 0 24 -47v2q-8 -53 -19.5 -134t-24.5 -175t-26.5 -193.5t-23.5 -188.5t-17.5 -160.5t-7.5 -108.5q0 -25 2 -30t9 -5q23 0 55.5 14.5t63 32t53 33.5t24.5 20 q14 10 31 11q23 0 33 -17.5t10 -21.5q-2 -12 -10 -24.5t-29 -22.5q-4 -2 -31.5 -18.5t-66.5 -35t-82 -34t-76 -15.5q-41 0 -51 22.5t-10 69.5z" />
<glyph unicode="m" horiz-adv-x="667" d="M6 53q4 55 13.5 135t20.5 174.5t22.5 195.5t21.5 198q0 18 29 26l24 6l19 -8l8 -16q2 -14 15.5 -67.5t29.5 -112.5q18 -68 39 -152q10 -39 18 -78q8 -35 17.5 -73.5t19.5 -75.5q16 39 36.5 83t37.5 83q20 45 41 88l76 151q29 59 55 112.5t35 68.5l12 16l20 4l21 -10 q18 -4 23.5 -13.5t5.5 -19.5v-13t-2 -16q-37 -242 -58.5 -414.5t-38 -283.5t-33 -163t-40.5 -54l-25 2l-14 16v27q12 102 23 189t21.5 166t23 153t24.5 151q-115 -240 -167 -346t-54 -108l-11 -8l-22 -9q-6 -2 -12 -2q-29 0 -56.5 113t-85.5 340q-20 -141 -27.5 -234.5 t-13.5 -149.5t-16 -78.5t-35 -22.5h-24l-15 12z" />
<glyph unicode="n" horiz-adv-x="598" d="M25 -74q0 16 2 25q0 12 5 52t11 96.5t14.5 125t16.5 137.5q16 127 23 213.5t14.5 137.5t17.5 73.5t31 24.5l24 6l19 -6l12 -20q39 -109 63.5 -184t44 -143.5t41 -145t52.5 -189.5q23 201 38 334t27.5 212t25.5 111.5t32 32.5l24 -2l4 -4l13 -10l4 -23q0 -8 -3 -30.5 t-6.5 -52t-8.5 -65.5t-9 -71q-10 -84 -27 -184q-14 -106 -26 -195q-6 -37 -11.5 -74.5t-9.5 -69.5t-7 -54.5t-5 -30.5q-4 -8 -17.5 -10t-23.5 -2q-35 0 -42 9t-15 34q-6 16 -25.5 84.5t-46.5 159.5t-56.5 190.5t-54.5 177.5q-4 -45 -9 -88t-9 -78q-6 -41 -12 -80 q-14 -109 -25 -196q-4 -39 -9 -77t-10 -70t-8.5 -54.5t-5.5 -30.5l-6 -22l-18 -11l-25 5q-18 4 -23 13t-5 19z" />
<glyph unicode="o" horiz-adv-x="532" d="M20 160q0 117 28 223t62.5 189t69.5 137.5t51 70.5q29 39 62 58.5t61 19.5q29 0 70 -18q49 -35 66.5 -139.5t17.5 -243.5q0 -35 -6 -86.5t-20.5 -107.5t-38 -113.5t-60.5 -102.5t-88 -72.5t-119 -27.5q-49 0 -78.5 20.5t-47 52t-24 68.5t-6.5 72zM106 174 q0 -59 12.5 -106.5t43.5 -47.5q68 0 112.5 32t73.5 81t44.5 107.5t23.5 109.5q4 33 6 67t2 68q0 57 -5 111.5t-13.5 96.5t-18.5 67.5t-18 25.5q-4 0 -20.5 -4t-29.5 -24q-18 -10 -54 -66.5t-71.5 -139.5t-61.5 -182.5t-26 -195.5z" />
<glyph unicode="p" horiz-adv-x="542" d="M18 -37q8 66 17.5 149t21 172t22.5 175t21.5 156.5t19.5 121t15 64.5q47 16 112.5 28.5t121.5 12.5q70 0 110.5 -53.5t40.5 -145.5q0 -74 -16.5 -154.5t-52 -148.5t-93 -112t-139.5 -44q-47 0 -60.5 4.5t-25.5 10.5q-14 -98 -20.5 -153.5t-11.5 -82t-14 -33t-28 -6.5 l-24 2l-15 15zM143 276l15 -2q12 -8 47 -8q37 0 82 17.5t78 66.5q37 59 53 138t16 153q0 51 -16.5 84t-79.5 33q-41 0 -77 -10.5t-52 -20.5q-4 -25 -10 -73t-15.5 -109.5t-19.5 -131t-21 -137.5z" />
<glyph unicode="q" horiz-adv-x="575" d="M18 207q0 113 22.5 233.5t68 219t110 162t150.5 63.5q10 0 21.5 -1t23.5 -3q33 -10 58.5 -45t41.5 -85.5t24.5 -115t8.5 -133.5q0 -59 -6 -140t-34 -160t-83 -145.5t-152 -99.5q-4 0 -6 -2q-6 -45 -9 -70.5t-6 -39t-11.5 -16.5t-26.5 -3l-25 2l-16 8l-2 10q0 8 2 39t6 64 q-55 2 -88 34.5t-48 73.5t-19.5 83t-4.5 67zM104 219q0 -90 17.5 -140t66.5 -50l7.5 37.5t11.5 56.5t11 54.5t7 31.5l6 8l19 2l22 -4q20 -4 25.5 -9t5.5 -11q0 2 -6 -41t-18 -115q61 31 98 86t56.5 121.5t25.5 138.5t6 137q0 59 -9.5 112.5t-23.5 93.5t-29.5 63.5 t-29.5 23.5q-41 0 -88 -43t-87 -121t-67 -187.5t-27 -244.5z" />
<glyph unicode="r" horiz-adv-x="538" d="M-23 -35q0 8 4.5 31.5t9.5 55.5t11 70t12 75q14 88 33 194q18 104 33 193q12 76 23.5 143.5t15.5 85.5l8 23l18 10l25 -4q16 -6 21.5 -14.5t5.5 -18.5q0 -6 -1 -15.5t-4.5 -25.5t-6.5 -44t-9 -73q14 23 31.5 48.5t40 47t49.5 36t57 14.5q41 0 69 -16.5t45 -42t24.5 -58.5 t7.5 -66q0 -55 -15.5 -98t-35.5 -43q-4 0 -6.5 1t-6.5 1l-24 6l-13 17l2 20q2 8 10.5 45t8.5 76q0 29 -9.5 50.5t-37.5 21.5q-39 0 -79 -43t-74 -101.5t-57.5 -116t-27.5 -88.5q-23 -133 -38 -218t-28.5 -134t-25.5 -67.5t-27 -18.5l-24 2l-15 15v24z" />
<glyph unicode="s" horiz-adv-x="546" d="M-8 82q0 49 11 82t25.5 52.5t25.5 26.5l12 7h2l18 -14q14 -14 14 -33q0 -23 -13 -49.5t-13 -65.5q0 -16 5 -35.5t20.5 -37t43 -30t70.5 -12.5q72 0 107.5 38t35.5 104q0 53 -20.5 99t-51 88t-65.5 82t-65.5 83t-51 90.5t-20.5 104.5q0 53 26.5 93t67.5 67.5t91 42 t100 14.5q74 0 116.5 -45.5t42.5 -96.5q0 -70 -29.5 -111.5t-58.5 -41.5q-10 0 -14 4l-16 16l4 31q6 12 19 32.5t13 61.5q0 27 -15 47.5t-60 20.5q-33 0 -68 -8.5t-62.5 -24.5t-45 -41t-17.5 -55q0 -78 42 -141.5t92 -125t92 -126t42 -144.5q0 -35 -12 -76t-41 -77.5 t-74 -61.5t-110 -25q-47 0 -86 16.5t-67.5 42t-45 60.5t-16.5 72z" />
<glyph unicode="t" horiz-adv-x="466" d="M39 657l4 17l10 8q10 2 47 12.5t78 22.5q6 51 9 85t8.5 55.5t13.5 30.5t27 13h24l14 -18l2 -35q-2 -12 -5 -40t-7 -65q2 0 33 8.5t68.5 18.5t73.5 18.5t46 10.5h13l14 -23l2 -16q2 -8 2 -21q0 -10 -17.5 -17t-50 -16.5t-83 -22.5t-113.5 -34q-20 -150 -36.5 -306.5 t-33.5 -309.5q-4 -39 3.5 -62.5t33.5 -23.5q20 0 46 14t48.5 31.5t39 34t16.5 20.5q6 6 25.5 16.5t41.5 -12.5q6 -6 7 -12t1 -10q0 -14 -10 -27.5t-26 -30.5q-8 -4 -25.5 -20.5t-45.5 -34.5t-62.5 -33.5t-77.5 -15.5q-39 0 -61.5 17.5t-33 43t-12.5 56t2 55.5 q8 70 17.5 146.5t18.5 153.5t17.5 150.5t18.5 135.5q-53 -14 -73.5 -18.5t-24.5 -4.5q-6 0 -11.5 6t-9.5 25z" />
<glyph unicode="u" horiz-adv-x="593" d="M12 51q0 106 15.5 216t36 202t38 156.5t21.5 83.5q6 29 14 45t37 16l25 -4l10 -21l-2 -32q-10 -33 -23.5 -87.5t-25 -118t-22.5 -132t-19 -130t-13.5 -110.5t-5.5 -74v-39.5t5.5 -40t16.5 -30.5t34 -12q29 0 63.5 9t66 20.5t54 20.5t29.5 9q16 4 22 4q37 233 55.5 385 t30.5 239t23.5 120.5t36.5 33.5h16l12 -4l10 -12v-25q-10 -109 -22 -209t-25.5 -198.5t-31 -200.5t-35.5 -213v-2q-6 -25 -19.5 -33t-28 -5t-24.5 13.5t-8 24.5q-10 0 -57.5 -21.5t-143.5 -39.5q-8 -2 -24 -2q-45 0 -73 17t-43 46t-20.5 64.5t-5.5 70.5z" />
<glyph unicode="v" horiz-adv-x="569" d="M20 358q0 127 6.5 202t16.5 115t24.5 52t30.5 12l25 -4l10 -26l-6 -43q-4 -23 -13.5 -102t-9.5 -179q0 -47 3.5 -108.5t9.5 -117t15 -94t22 -40.5q8 0 34.5 48t60.5 121.5t71.5 162.5t71.5 170t58.5 144.5t32.5 88.5q4 18 18.5 37.5t47.5 9.5q16 -14 16 -35 q0 -14 -5 -32.5t-13 -41.5q-6 -20 -29.5 -86.5t-58.5 -151.5t-75 -179.5t-81 -173t-79 -130t-64 -51.5q-4 0 -7 -1t-8 -1q-47 0 -71.5 55.5t-36.5 129t-14.5 145.5t-2.5 104z" />
<glyph unicode="w" horiz-adv-x="778" d="M51 291q0 100 4 181t14.5 139.5t28 90t45.5 31.5l23 -4l12 -22l-2 -33q-8 -16 -15 -62.5t-11.5 -109t-7.5 -132t-3 -130.5q0 -8 2 -48t8.5 -86.5t19.5 -83t36 -36.5q20 0 59 51q51 70 68.5 130t23.5 105t13.5 71t38.5 26q12 0 22 -6.5t12 -10.5l7 -37q2 -12 2 -47t4 -81 t15 -97t36 -94q2 -6 8 -6q27 0 53.5 40t49 103.5t41 143t31.5 158.5t20.5 150.5t7.5 121.5q0 37 -4 50t-4 27l12 21l22 8q37 0 44.5 -37t7.5 -80q0 -12 -4.5 -74.5t-14.5 -150.5t-29.5 -186.5t-52 -182.5t-78 -139t-108.5 -55q-35 0 -55.5 17.5t-32.5 44t-18.5 58 t-12.5 58.5q0 -4 -4 -8q-10 -18 -25.5 -48t-37 -57.5t-52 -48t-69.5 -20.5q-53 0 -83 46t-45.5 109.5t-18.5 129t-3 102.5z" />
<glyph unicode="x" horiz-adv-x="561" d="M10 -59q0 2 52.5 108.5t173.5 343.5q-12 29 -39 85.5t-54.5 114.5t-50 107.5t-29.5 63.5l-6 24l9 19l22 10q6 2 16 2q12 0 23 -13t30 -49t50 -100.5t80 -164.5q55 111 88 179t54.5 107t32.5 53.5t23 14.5t19 -2l22 -10l2 -5l7 -16l-9 -25q-6 -16 -30.5 -65t-54 -109.5 t-59.5 -122t-48 -98.5q51 -104 87 -176t58 -119q25 -55 41 -92q0 -16 -18 -29l-23 -12l-20 4l-15 19q-6 12 -24.5 47t-42 81t-48 95t-44.5 88q-23 -39 -53.5 -97.5t-60.5 -115.5t-53.5 -102t-31.5 -58l-16 -22l-21 -6l-20 14q-18 12 -19 29z" />
<glyph unicode="y" horiz-adv-x="589" d="M31 745l8 19l22 10q6 2 17 2q25 0 73 -97t148 -302q47 82 90 165t77 150.5t57.5 110.5t35.5 43t19 -2l22 -10l2 -5l6 -16l-8 -25q-49 -100 -100 -202.5t-100.5 -198.5t-93.5 -180t-76.5 -146.5t-52 -98.5t-17.5 -36l-17 -22l-20 -6l-21 14q-18 12 -18 29l3 9t18.5 43 t48 100.5t94.5 185.5q-8 18 -26.5 56t-40 84t-45 95t-45 92t-36 74t-18.5 41z" />
<glyph unicode="z" horiz-adv-x="622" d="M18 -53l7 12l8 4q2 14 16 31q8 12 38 58t71 110.5t89 140.5t95 150.5t88 139t68 105.5q-41 -4 -101.5 -10t-118 -13t-102.5 -12.5t-55 -5.5q-4 0 -6 -1t-6 -1q-8 0 -12.5 6.5t-8.5 26.5l-4 25l4 16l12 6q10 2 47 7.5t78 11.5q49 8 107 14q57 4 106 8q41 4 79 6t48 2h6 h9.5t11.5 -2l22 -10l9 -18q2 -2 -2.5 -14.5t-8.5 -16.5q-6 -8 -19 -29.5t-31.5 -50.5t-41 -64.5t-43.5 -70.5q-53 -82 -112 -182q-45 -68 -86 -133q-35 -55 -75 -114t-67 -99q184 31 375 36l14 -2l9 -16l2 -8v-17q0 -29 -6.5 -31.5t-20.5 -4.5q-8 -2 -44 -5.5t-83 -9.5 t-101.5 -11t-102.5 -11t-83 -10.5t-43 -4.5q-10 0 -21.5 1t-13.5 30v16v13v-2v4z" />
<glyph unicode="&#xa8;" horiz-adv-x="530" d="M53 1044q0 18 8.5 30.5t18.5 20t20.5 9.5t14.5 2q16 0 28.5 -3t12.5 -11q0 -2 -1 -3.5t-1 -3.5l-4 -12l-9 -8h-8q-12 6 -18 6q-14 0 -15 -22q0 -16 11.5 -36t33.5 -20q10 0 23.5 14.5t13.5 28.5q0 20 -22 23l-6 4v22q2 10 12 11h-2q2 0 12 -1t20.5 -8.5t19.5 -21.5t9 -41 q0 -29 -22.5 -50.5t-55.5 -21.5t-63.5 29t-30.5 63zM293 1044q0 18 8 30.5t18.5 20t20.5 9.5t14 2q16 0 28.5 -3t12.5 -11q0 -2 -1 -3.5t-1 -3.5l-4 -12l-8 -8h-8q-12 6 -19 6q-14 0 -14 -22q0 -16 11 -36t34 -20q10 0 23.5 14.5t13.5 28.5q0 20 -23 23l-6 4v22q2 10 13 11 h-3q2 0 12.5 -1t20.5 -8.5t19.5 -21.5t9.5 -41q0 -29 -22.5 -50.5t-55.5 -21.5t-63.5 29t-30.5 63z" />
<glyph unicode="&#xad;" horiz-adv-x="505" d="M16 336q0 18 46.5 25.5t112 9.5t140 2t134.5 4q10 0 17 -2t13 -31l4 -25q0 -10 -21.5 -17t-57 -11t-82 -6t-93.5 -2q-41 0 -77.5 1t-65.5 4t-46 5t-17 6l-5 25q0 4 -1 6t-1 6z" />
<glyph unicode="&#xb4;" horiz-adv-x="333" d="M16 1001q0 29 3.5 32t11.5 5q10 2 42.5 10.5t69.5 21.5t67 29.5t34 35.5q6 6 8 6q4 0 33 -13l20 -10l12 -12l-2 -8q-8 -31 -40.5 -57.5t-75.5 -45t-87 -29t-71 -10.5q-4 0 -5 1t-3 1l-8 3l-7 16z" />
<glyph unicode="&#xbf;" horiz-adv-x="667" d="M72 -98q0 33 22.5 42t28.5 9q23 0 33 -12q2 4 8 4q8 0 12 -2l2 -2q4 0 20.5 -13.5t16.5 -42.5q0 -23 -19.5 -41t-45.5 -18q-29 0 -53.5 23.5t-24.5 52.5zM78 752q0 61 25.5 127.5t73.5 123t114.5 92t146.5 35.5q41 0 76 -8h2q53 -31 71.5 -69.5t18.5 -79.5q0 -39 -11 -74 t-22 -68q-4 -14 -8 -27t-8 -24q-23 -59 -47.5 -111.5t-48.5 -101.5h6q4 -2 12 -2l2 -10l-2 2q2 -4 4 -6t2 -4q0 -16 -16 -30.5t-45 -20.5q-33 -66 -64.5 -137.5t-57.5 -137t-44 -116t-25 -70.5q-12 -41 -20 -53.5t-39 -10.5q-2 0 -3 -1t-3 -1q-4 0 -7 10.5t-7 26.5 q0 8 10 51t31.5 107.5t54.5 146.5t76 168h-2q-31 0 -73 10.5t-81 40t-65.5 83t-26.5 139.5zM156 735q0 -98 49 -139t119 -41q16 0 26 1t21 3q14 29 32.5 63.5t32.5 63.5q35 80 65.5 156t30.5 131q0 43 -16 58.5t-27 21.5q0 4 -30 4q-29 0 -80 -11.5t-100.5 -45t-86 -97 t-36.5 -168.5z" />
<glyph unicode="&#xc0;" horiz-adv-x="792" d="M-65 225q0 154 57 306.5t149.5 273.5t207 196.5t231.5 75.5q53 0 101 -27.5t60 -80.5q10 10 29 10l25 -2l10 -23l-2 -30q-27 -127 -48.5 -233.5t-37.5 -204t-30.5 -190.5t-24.5 -190q-4 -16 -4 -27v-22q0 -43 12 -58t31 -15q20 0 37.5 12t21.5 27l14 16l27 4l20 -8 q12 -16 13 -29q0 -23 -35 -57q0 -10 -24.5 -28.5t-71.5 -18.5q-37 0 -71 23.5t-50 82.5q-12 -18 -41 -53t-74 -70t-105.5 -61.5t-136.5 -26.5q-80 0 -135 38t-90 98.5t-50 137t-15 154.5zM16 223q0 -43 8.5 -102.5t32 -113.5t66.5 -92t113 -38q66 0 126 36t105 82t72.5 86 t29.5 50q11 17 15 33q16 100 30.5 187t27.5 164t25.5 147.5t26.5 142.5q0 8 -2 38.5t-11 65.5t-32.5 62.5t-66.5 27.5q-63 0 -141 -40.5t-142 -98.5q-76 -72 -126 -151.5t-78.5 -146t-40 -109.5t-11.5 -39q-8 -25 -14 -56q-4 -27 -8.5 -60.5t-4.5 -74.5zM503 1344l13 12 l20 10q27 12 33 13q2 0 8 -6q4 -18 34 -35t66.5 -30t69.5 -21.5t43 -10.5q8 -2 11 -5t3 -32l-2 -24l-6 -16l-8 -3q-2 0 -3 -1t-5 -1q-29 0 -72 10.5t-86 29t-75.5 45t-41.5 57.5z" />
<glyph unicode="&#xc1;" horiz-adv-x="792" d="M-65 225q0 154 57 306.5t149.5 273.5t207 196.5t231.5 75.5q53 0 101 -27.5t60 -80.5q10 10 29 10l25 -2l10 -23l-2 -30q-27 -127 -48.5 -233.5t-37.5 -204t-30.5 -190.5t-24.5 -190q-4 -16 -4 -27v-22q0 -43 12 -58t31 -15q20 0 37.5 12t21.5 27l14 16l27 4l20 -8 q12 -16 13 -29q0 -23 -35 -57q0 -10 -24.5 -28.5t-71.5 -18.5q-37 0 -71 23.5t-50 82.5q-12 -18 -41 -53t-74 -70t-105.5 -61.5t-136.5 -26.5q-80 0 -135 38t-90 98.5t-50 137t-15 154.5zM16 223q0 -43 8.5 -102.5t32 -113.5t66.5 -92t113 -38q66 0 126 36t105 82t72.5 86 t29.5 50q11 17 15 33q16 100 30.5 187t27.5 164t25.5 147.5t26.5 142.5q0 8 -2 38.5t-11 65.5t-32.5 62.5t-66.5 27.5q-63 0 -141 -40.5t-142 -98.5q-76 -72 -126 -151.5t-78.5 -146t-40 -109.5t-11.5 -39q-8 -25 -14 -56q-4 -27 -8.5 -60.5t-4.5 -74.5zM479 1228 q0 29 3.5 32t11.5 5q10 2 42.5 10.5t69.5 21.5t67 29.5t34 35.5q6 6 8 6q4 0 33 -13l20 -10l12 -12l-2 -8q-8 -31 -40.5 -57.5t-75.5 -45t-87 -29t-71 -10.5q-4 0 -5 1t-3 1l-8 3l-7 16z" />
<glyph unicode="&#xc2;" horiz-adv-x="792" d="M-65 225q0 154 57 306.5t149.5 273.5t207 196.5t231.5 75.5q53 0 101 -27.5t60 -80.5q10 10 29 10l25 -2l10 -23l-2 -30q-27 -127 -48.5 -233.5t-37.5 -204t-30.5 -190.5t-24.5 -190q-4 -16 -4 -27v-22q0 -43 12 -58t31 -15q20 0 37.5 12t21.5 27l14 16l27 4l20 -8 q12 -16 13 -29q0 -23 -35 -57q0 -10 -24.5 -28.5t-71.5 -18.5q-37 0 -71 23.5t-50 82.5q-12 -18 -41 -53t-74 -70t-105.5 -61.5t-136.5 -26.5q-80 0 -135 38t-90 98.5t-50 137t-15 154.5zM16 223q0 -43 8.5 -102.5t32 -113.5t66.5 -92t113 -38q66 0 126 36t105 82t72.5 86 t29.5 50q11 17 15 33q16 100 30.5 187t27.5 164t25.5 147.5t26.5 142.5q0 8 -2 38.5t-11 65.5t-32.5 62.5t-66.5 27.5q-63 0 -141 -40.5t-142 -98.5q-76 -72 -126 -151.5t-78.5 -146t-40 -109.5t-11.5 -39q-8 -25 -14 -56q-4 -27 -8.5 -60.5t-4.5 -74.5zM438 1217v6 q14 23 46 69t110 128q47 -47 89 -92.5t77 -96.5l2 -8l-16 -20l-13 -11q-18 -18 -26 -18q4 0 -31 31.5t-82 91.5q-53 -63 -71.5 -93t-22.5 -30q-8 0 -31 16z" />
<glyph unicode="&#xc3;" horiz-adv-x="792" d="M-65 225q0 154 57 306.5t149.5 273.5t207 196.5t231.5 75.5q53 0 101 -27.5t60 -80.5q10 10 29 10l25 -2l10 -23l-2 -30q-27 -127 -48.5 -233.5t-37.5 -204t-30.5 -190.5t-24.5 -190q-4 -16 -4 -27v-22q0 -43 12 -58t31 -15q20 0 37.5 12t21.5 27l14 16l27 4l20 -8 q12 -16 13 -29q0 -23 -35 -57q0 -10 -24.5 -28.5t-71.5 -18.5q-37 0 -71 23.5t-50 82.5q-12 -18 -41 -53t-74 -70t-105.5 -61.5t-136.5 -26.5q-80 0 -135 38t-90 98.5t-50 137t-15 154.5zM16 223q0 -43 8.5 -102.5t32 -113.5t66.5 -92t113 -38q66 0 126 36t105 82t72.5 86 t29.5 50q11 17 15 33q16 100 30.5 187t27.5 164t25.5 147.5t26.5 142.5q0 8 -2 38.5t-11 65.5t-32.5 62.5t-66.5 27.5q-63 0 -141 -40.5t-142 -98.5q-76 -72 -126 -151.5t-78.5 -146t-40 -109.5t-11.5 -39q-8 -25 -14 -56q-4 -27 -8.5 -60.5t-4.5 -74.5zM454 1270l9 10l18 8 q10 4 21 5q8 0 11 -5.5t7 -10.5t10 -10t19 -5q10 0 29.5 7t45 16.5t54 17.5t59.5 8q33 0 52.5 -12.5t29.5 -26.5q12 -19 18 -39q4 -12 5 -16q0 -10 -23 -17l-18 -6l-15 2l-6 8q-4 8 -11 23.5t-24 15.5q-39 0 -52 -2t-23.5 -8t-29 -15t-67.5 -22q-16 -4 -24 -4q-20 0 -37 8.5 t-29 19.5t-18 21.5t-6 14.5v2z" />
<glyph unicode="&#xc4;" horiz-adv-x="792" d="M-65 225q0 154 57 306.5t149.5 273.5t207 196.5t231.5 75.5q53 0 101 -27.5t60 -80.5q10 10 29 10l25 -2l10 -23l-2 -30q-27 -127 -48.5 -233.5t-37.5 -204t-30.5 -190.5t-24.5 -190q-4 -16 -4 -27v-22q0 -43 12 -58t31 -15q20 0 37.5 12t21.5 27l14 16l27 4l20 -8 q12 -16 13 -29q0 -23 -35 -57q0 -10 -24.5 -28.5t-71.5 -18.5q-37 0 -71 23.5t-50 82.5q-12 -18 -41 -53t-74 -70t-105.5 -61.5t-136.5 -26.5q-80 0 -135 38t-90 98.5t-50 137t-15 154.5zM16 223q0 -43 8.5 -102.5t32 -113.5t66.5 -92t113 -38q66 0 126 36t105 82t72.5 86 t29.5 50q11 17 15 33q16 100 30.5 187t27.5 164t25.5 147.5t26.5 142.5q0 8 -2 38.5t-11 65.5t-32.5 62.5t-66.5 27.5q-63 0 -141 -40.5t-142 -98.5q-76 -72 -126 -151.5t-78.5 -146t-40 -109.5t-11.5 -39q-8 -25 -14 -56q-4 -27 -8.5 -60.5t-4.5 -74.5zM430 1284 q0 18 8.5 30.5t18.5 20t20.5 9.5t14.5 2q16 0 28.5 -3t12.5 -11q0 -2 -1 -3.5t-1 -3.5l-4 -12l-9 -8h-8q-12 6 -18 6q-14 0 -15 -22q0 -16 11.5 -36t33.5 -20q10 0 23.5 14.5t13.5 28.5q0 20 -22 23l-6 4v22q2 10 12 11h-2q2 0 12 -1t20.5 -8.5t19.5 -21.5t9 -41 q0 -29 -22.5 -50.5t-55.5 -21.5t-63.5 29t-30.5 63zM670 1284q0 18 8 30.5t18.5 20t20.5 9.5t14 2q16 0 28.5 -3t12.5 -11q0 -2 -1 -3.5t-1 -3.5l-4 -12l-8 -8h-8q-12 6 -19 6q-14 0 -14 -22q0 -16 11 -36t34 -20q10 0 23.5 14.5t13.5 28.5q0 20 -23 23l-6 4v22q2 10 13 11 h-3q2 0 12.5 -1t20.5 -8.5t19.5 -21.5t9.5 -41q0 -29 -22.5 -50.5t-55.5 -21.5t-63.5 29t-30.5 63z" />
<glyph unicode="&#xc5;" horiz-adv-x="792" d="M-65 225q0 154 57 306.5t149.5 273.5t207 196.5t231.5 75.5q53 0 101 -27.5t60 -80.5q10 10 29 10l25 -2l10 -23l-2 -30q-27 -127 -48.5 -233.5t-37.5 -204t-30.5 -190.5t-24.5 -190q-4 -16 -4 -27v-22q0 -43 12 -58t31 -15q20 0 37.5 12t21.5 27l14 16l27 4l20 -8 q12 -16 13 -29q0 -23 -35 -57q0 -10 -24.5 -28.5t-71.5 -18.5q-37 0 -71 23.5t-50 82.5q-12 -18 -41 -53t-74 -70t-105.5 -61.5t-136.5 -26.5q-80 0 -135 38t-90 98.5t-50 137t-15 154.5zM16 223q0 -43 8.5 -102.5t32 -113.5t66.5 -92t113 -38q66 0 126 36t105 82t72.5 86 t29.5 50q11 17 15 33q16 100 30.5 187t27.5 164t25.5 147.5t26.5 142.5q0 8 -2 38.5t-11 65.5t-32.5 62.5t-66.5 27.5q-63 0 -141 -40.5t-142 -98.5q-76 -72 -126 -151.5t-78.5 -146t-40 -109.5t-11.5 -39q-8 -25 -14 -56q-4 -27 -8.5 -60.5t-4.5 -74.5zM592 1277 q0 18 8.5 30.5t18.5 20t20.5 9.5t14.5 2q16 0 28.5 -3t12.5 -11q0 -2 -1 -3.5t-1 -3.5l-4 -12l-9 -8h-8q-12 6 -18 6q-14 0 -15 -22q0 -16 11.5 -36t33.5 -20q10 0 23.5 14.5t13.5 28.5q0 20 -22 23l-6 4v22q2 10 12 11h-2q2 0 12 -1t20.5 -8.5t19.5 -21.5t9 -41 q0 -29 -22.5 -50.5t-55.5 -21.5t-63.5 29t-30.5 63z" />
<glyph unicode="&#xc6;" horiz-adv-x="1355" d="M-133 -166q0 6 20.5 42t68.5 111.5t125 196.5t189 295q131 205 212 330t128 193.5t69.5 92t35.5 23.5q12 0 27.5 -4t15.5 -16v-391q10 88 18 148t17.5 97t19.5 53.5t27 18.5h10q18 4 62 11t89.5 15.5t81 13.5t39.5 5l39 5t90.5 11.5t96.5 11.5t57 5l16 -2l13 -23l2 -16 q0 -29 -7.5 -33t-23.5 -6q-10 -2 -49 -7t-92.5 -13.5t-115 -16.5t-116.5 -15t-98 -14.5t-60 -9.5q-4 -37 -12 -105.5t-18 -144t-19.5 -146.5t-13.5 -110q47 12 77 19.5t55.5 11.5t53 10t68.5 17l8 -4l10 -15l4 -22l5 -25q0 -8 -37 -19.5t-86 -22.5t-98.5 -21.5t-73.5 -16.5 q-6 -41 -16.5 -103.5t-21.5 -130t-21.5 -131t-18.5 -104.5q113 23 180.5 38.5t122.5 26.5t114.5 22.5t151.5 27.5l19 -2l12 -12l4 -25q0 -29 -8 -34t-25 -9q-10 -2 -56 -11t-107.5 -22.5t-132 -28t-133 -26.5t-107.5 -21.5t-58 -9.5q-4 -2 -7 -2t-7 -2h-2q-6 0 -14 4l-9 4 q-27 10 -26 35q0 10 2 19.5t4 21.5q2 16 10 67.5t19.5 125t26 163t26.5 183.5q12 88 21.5 159.5t17.5 131.5q0 -88 -2 -169t-5 -168t-7.5 -186.5t-12.5 -222.5l-4 -29l-16 -16l-25 2q-23 4 -29 16.5t-6 28.5q0 33 2 86q2 45 3 112.5t6 164.5q-4 0 -6.5 -1t-6.5 -1 q-8 0 -37.5 -4.5t-70.5 -8.5t-88 -9t-88 -9t-72 -8t-39 -4q-4 0 -5 -1t-5 -1q-41 -61 -87 -133t-89 -136.5t-75 -114t-44 -65.5q-10 -16 -19.5 -25.5t-25.5 -13.5l-6 -2l-19 16q-12 12 -12 29zM303 369q59 6 100 10t76 7t74 7t96 10l15 -4q0 27 1 53.5t1 55.5q4 135 6 257 t4 196q-190 -307 -282.5 -451.5t-90.5 -140.5z" />
<glyph unicode="&#xc7;" horiz-adv-x="774" d="M33 252q0 145 49 300t131 282t189.5 207.5t226.5 80.5q37 0 68.5 -11t54.5 -40q43 -55 50 -97t11 -61q2 -12 2 -24v-23q0 -49 -12 -80.5t-41 -31.5q-4 0 -6 2h-8q-8 0 -10.5 30.5t-2.5 69.5q0 6 -2 36t-11 62.5t-30.5 59t-60.5 26.5q-96 0 -179 -65.5t-147.5 -160.5 t-108.5 -202.5t-61 -191.5q-6 -23 -10 -47q-4 -23 -6 -52.5t-2 -64.5q0 -37 7 -101.5t30.5 -128t68.5 -109.5t119 -46q53 0 110.5 41t104.5 91t77 95t30 56q18 41 34.5 63.5t22.5 22.5l8 -4q12 0 19.5 -14.5t7.5 -28.5q0 -23 -12.5 -55t-32.5 -68q-10 -12 -41 -54.5 t-78 -89.5t-108.5 -86t-131.5 -43q-27 0 -50 4t-46 11l-22.5 -52.5t-37 -77t-43 -68.5t-40.5 -30q-27 0 -39.5 19.5t-12.5 23.5q0 6 17.5 34t40 61.5t44 66.5t32.5 49q-47 29 -78 73t-49.5 98t-26.5 115.5t-8 127.5z" />
<glyph unicode="&#xc8;" horiz-adv-x="745" d="M27 281q0 137 37.5 253.5t84 200.5t85 131t38.5 43l10 13q11 12 32.5 31.5t54 42t80.5 44.5q18 10 48.5 19.5t65.5 10.5t69 -12.5t62 -47.5q41 -59 49.5 -128t4.5 -137q-10 -66 -31 -132t-52.5 -124.5t-76.5 -104.5t-107 -73q-61 -23 -113.5 -20.5t-92 13.5t-67.5 25.5 t-40 18.5q-29 16 -49 33q-12 -84 -8 -165t26 -150q23 -100 70 -140.5t95 -46.5t87 10.5t49 28.5q29 16 48.5 35.5l35 35t30.5 23.5t34 4q4 0 16 -4l6 -6l-4 -10q0 -10 -12 -31q-10 -16 -23.5 -32.5t-29.5 -36.5q-12 -6 -37 -28t-63 -41.5t-90 -27.5t-120 15q-63 33 -101 85 t-59.5 115.5t-30.5 132t-11 134.5zM129 451q25 -10 55.5 -26.5t71.5 -35.5q14 -8 56 -17.5t95.5 1t107.5 49.5t93 129q18 39 33.5 84t23 93t4.5 98.5t-20 97.5q-14 51 -52 61t-84 -5t-94 -51t-83 -75q-80 -86 -131 -190.5t-76 -212.5zM485 1329l13 12l20 10q27 12 33 13 q2 0 8 -6q4 -18 34 -35t66.5 -30t69.5 -21.5t43 -10.5q8 -2 11 -5t3 -32l-2 -24l-6 -16l-8 -3q-2 0 -3 -1t-5 -1q-29 0 -72 10.5t-86 29t-75.5 45t-41.5 57.5z" />
<glyph unicode="&#xc9;" horiz-adv-x="733" d="M27 281q0 137 37.5 253.5t84 200.5t85 131t38.5 43l10 13q11 12 32.5 31.5t54 42t80.5 44.5q18 10 48.5 19.5t65.5 10.5t69 -12.5t62 -47.5q41 -59 49.5 -128t4.5 -137q-10 -66 -31 -132t-52.5 -124.5t-76.5 -104.5t-107 -73q-61 -23 -113.5 -20.5t-92 13.5t-67.5 25.5 t-40 18.5q-29 16 -49 33q-12 -84 -8 -165t26 -150q23 -100 70 -140.5t95 -46.5t87 10.5t49 28.5q29 16 48.5 35.5l35 35t30.5 23.5t34 4q4 0 16 -4l6 -6l-4 -10q0 -10 -12 -31q-10 -16 -23.5 -32.5t-29.5 -36.5q-12 -6 -37 -28t-63 -41.5t-90 -27.5t-120 15q-63 33 -101 85 t-59.5 115.5t-30.5 132t-11 134.5zM129 451q25 -10 55.5 -26.5t71.5 -35.5q14 -8 56 -17.5t95.5 1t107.5 49.5t93 129q18 39 33.5 84t23 93t4.5 98.5t-20 97.5q-14 51 -52 61t-84 -5t-94 -51t-83 -75q-80 -86 -131 -190.5t-76 -212.5zM452 1218q0 29 3.5 32t11.5 5 q10 2 42.5 10.5t69.5 21.5t67 29.5t34 35.5q6 6 8 6q4 0 33 -13l20 -10l12 -12l-2 -8q-8 -31 -40.5 -57.5t-75.5 -45t-87 -29t-71 -10.5q-4 0 -5 1t-3 1l-8 3l-7 16z" />
<glyph unicode="&#xca;" horiz-adv-x="745" d="M27 281q0 137 37.5 253.5t84 200.5t85 131t38.5 43l10 13q11 12 32.5 31.5t54 42t80.5 44.5q18 10 48.5 19.5t65.5 10.5t69 -12.5t62 -47.5q41 -59 49.5 -128t4.5 -137q-10 -66 -31 -132t-52.5 -124.5t-76.5 -104.5t-107 -73q-61 -23 -113.5 -20.5t-92 13.5t-67.5 25.5 t-40 18.5q-29 16 -49 33q-12 -84 -8 -165t26 -150q23 -100 70 -140.5t95 -46.5t87 10.5t49 28.5q29 16 48.5 35.5l35 35t30.5 23.5t34 4q4 0 16 -4l6 -6l-4 -10q0 -10 -12 -31q-10 -16 -23.5 -32.5t-29.5 -36.5q-12 -6 -37 -28t-63 -41.5t-90 -27.5t-120 15q-63 33 -101 85 t-59.5 115.5t-30.5 132t-11 134.5zM129 451q25 -10 55.5 -26.5t71.5 -35.5q14 -8 56 -17.5t95.5 1t107.5 49.5t93 129q18 39 33.5 84t23 93t4.5 98.5t-20 97.5q-14 51 -52 61t-84 -5t-94 -51t-83 -75q-80 -86 -131 -190.5t-76 -212.5zM456 1223v6q14 23 46 69t110 128 q47 -47 89 -92.5t77 -96.5l2 -8l-16 -20l-13 -11q-18 -18 -26 -18q4 0 -31 31.5t-82 91.5q-53 -63 -71.5 -93t-22.5 -30q-8 0 -31 16z" />
<glyph unicode="&#xcb;" horiz-adv-x="739" d="M27 281q0 137 37.5 253.5t84 200.5t85 131t38.5 43l10 13q11 12 32.5 31.5t54 42t80.5 44.5q18 10 48.5 19.5t65.5 10.5t69 -12.5t62 -47.5q41 -59 49.5 -128t4.5 -137q-10 -66 -31 -132t-52.5 -124.5t-76.5 -104.5t-107 -73q-61 -23 -113.5 -20.5t-92 13.5t-67.5 25.5 t-40 18.5q-29 16 -49 33q-12 -84 -8 -165t26 -150q23 -100 70 -140.5t95 -46.5t87 10.5t49 28.5q29 16 48.5 35.5l35 35t30.5 23.5t34 4q4 0 16 -4l6 -6l-4 -10q0 -10 -12 -31q-10 -16 -23.5 -32.5t-29.5 -36.5q-12 -6 -37 -28t-63 -41.5t-90 -27.5t-120 15q-63 33 -101 85 t-59.5 115.5t-30.5 132t-11 134.5zM129 451q25 -10 55.5 -26.5t71.5 -35.5q14 -8 56 -17.5t95.5 1t107.5 49.5t93 129q18 39 33.5 84t23 93t4.5 98.5t-20 97.5q-14 51 -52 61t-84 -5t-94 -51t-83 -75q-80 -86 -131 -190.5t-76 -212.5zM385 1267q0 18 8.5 30.5t18.5 20 t20.5 9.5t14.5 2q16 0 28.5 -3t12.5 -11q0 -2 -1 -3.5t-1 -3.5l-4 -12l-9 -8h-8q-12 6 -18 6q-14 0 -15 -22q0 -16 11.5 -36t33.5 -20q10 0 23.5 14.5t13.5 28.5q0 20 -22 23l-6 4v22q2 10 12 11h-2q2 0 12 -1t20.5 -8.5t19.5 -21.5t9 -41q0 -29 -22.5 -50.5t-55.5 -21.5 t-63.5 29t-30.5 63zM625 1267q0 18 8 30.5t18.5 20t20.5 9.5t14 2q16 0 28.5 -3t12.5 -11q0 -2 -1 -3.5t-1 -3.5l-4 -12l-8 -8h-8q-12 6 -19 6q-14 0 -14 -22q0 -16 11 -36t34 -20q10 0 23.5 14.5t13.5 28.5q0 20 -23 23l-6 4v22q2 10 13 11h-3q2 0 12.5 -1t20.5 -8.5 t19.5 -21.5t9.5 -41q0 -29 -22.5 -50.5t-55.5 -21.5t-63.5 29t-30.5 63z" />
<glyph unicode="&#xcc;" horiz-adv-x="878" d="M31 -143l8 18l20 8q14 4 65.5 15.5t111 22.5t115 21.5t75.5 14.5q23 256 58.5 508t84.5 508q-72 -12 -140.5 -23.5t-123.5 -21.5t-93 -17.5t-50 -9.5q-10 -2 -17.5 -3t-13.5 -1q-20 0 -31 27l-8 24l12 19l23 10q223 51 446.5 84t456.5 65l25 -2l16 -14l2 -23 q0 -23 -17.5 -33t-64.5 -19t-130 -19t-212 -31q0 -10 -1 -18.5t-3 -18.5q-4 -18 -13 -90t-23.5 -171t-30 -213t-29.5 -216t-25.5 -181t-15.5 -108q39 6 87 12.5t94 12.5t81 10t47 6l23 -2l12 -14l2 -8l2 -17q0 -29 -12.5 -33t-30.5 -8q-14 -2 -69.5 -11t-131 -20.5 t-161.5 -25.5t-161 -26.5t-130.5 -22.5t-69.5 -12q-16 -4 -24 -5q-18 0 -29 29zM389 1319l13 12l20 10q27 12 33 13q2 0 8 -6q4 -18 34 -35t66.5 -30t69.5 -21.5t43 -10.5q8 -2 11 -5t3 -32l-2 -24l-6 -16l-8 -3q-2 0 -3 -1t-5 -1q-29 0 -72 10.5t-86 29t-75.5 45 t-41.5 57.5z" />
<glyph unicode="&#xcd;" horiz-adv-x="878" d="M31 -143l8 18l20 8q14 4 65.5 15.5t111 22.5t115 21.5t75.5 14.5q23 256 58.5 508t84.5 508q-72 -12 -140.5 -23.5t-123.5 -21.5t-93 -17.5t-50 -9.5q-10 -2 -17.5 -3t-13.5 -1q-20 0 -31 27l-8 24l12 19l23 10q223 51 446.5 84t456.5 65l25 -2l16 -14l2 -23 q0 -23 -17.5 -33t-64.5 -19t-130 -19t-212 -31q0 -10 -1 -18.5t-3 -18.5q-4 -18 -13 -90t-23.5 -171t-30 -213t-29.5 -216t-25.5 -181t-15.5 -108q39 6 87 12.5t94 12.5t81 10t47 6l23 -2l12 -14l2 -8l2 -17q0 -29 -12.5 -33t-30.5 -8q-14 -2 -69.5 -11t-131 -20.5 t-161.5 -25.5t-161 -26.5t-130.5 -22.5t-69.5 -12q-16 -4 -24 -5q-18 0 -29 29zM434 1216q0 29 3.5 32t11.5 5q10 2 42.5 10.5t69.5 21.5t67 29.5t34 35.5q6 6 8 6q4 0 33 -13l20 -10l12 -12l-2 -8q-8 -31 -40.5 -57.5t-75.5 -45t-87 -29t-71 -10.5q-4 0 -5 1t-3 1l-8 3 l-7 16z" />
<glyph unicode="&#xce;" horiz-adv-x="878" d="M31 -143l8 18l20 8q14 4 65.5 15.5t111 22.5t115 21.5t75.5 14.5q23 256 58.5 508t84.5 508q-72 -12 -140.5 -23.5t-123.5 -21.5t-93 -17.5t-50 -9.5q-10 -2 -17.5 -3t-13.5 -1q-20 0 -31 27l-8 24l12 19l23 10q223 51 446.5 84t456.5 65l25 -2l16 -14l2 -23 q0 -23 -17.5 -33t-64.5 -19t-130 -19t-212 -31q0 -10 -1 -18.5t-3 -18.5q-4 -18 -13 -90t-23.5 -171t-30 -213t-29.5 -216t-25.5 -181t-15.5 -108q39 6 87 12.5t94 12.5t81 10t47 6l23 -2l12 -14l2 -8l2 -17q0 -29 -12.5 -33t-30.5 -8q-14 -2 -69.5 -11t-131 -20.5 t-161.5 -25.5t-161 -26.5t-130.5 -22.5t-69.5 -12q-16 -4 -24 -5q-18 0 -29 29zM438 1217v6q14 23 46 69t110 128q47 -47 89 -92.5t77 -96.5l2 -8l-16 -20l-13 -11q-18 -18 -26 -18q4 0 -31 31.5t-82 91.5q-53 -63 -71.5 -93t-22.5 -30q-8 0 -31 16z" />
<glyph unicode="&#xcf;" horiz-adv-x="878" d="M31 -143l8 18l20 8q14 4 65.5 15.5t111 22.5t115 21.5t75.5 14.5q23 256 58.5 508t84.5 508q-72 -12 -140.5 -23.5t-123.5 -21.5t-93 -17.5t-50 -9.5q-10 -2 -17.5 -3t-13.5 -1q-20 0 -31 27l-8 24l12 19l23 10q223 51 446.5 84t456.5 65l25 -2l16 -14l2 -23 q0 -23 -17.5 -33t-64.5 -19t-130 -19t-212 -31q0 -10 -1 -18.5t-3 -18.5q-4 -18 -13 -90t-23.5 -171t-30 -213t-29.5 -216t-25.5 -181t-15.5 -108q39 6 87 12.5t94 12.5t81 10t47 6l23 -2l12 -14l2 -8l2 -17q0 -29 -12.5 -33t-30.5 -8q-14 -2 -69.5 -11t-131 -20.5 t-161.5 -25.5t-161 -26.5t-130.5 -22.5t-69.5 -12q-16 -4 -24 -5q-18 0 -29 29zM379 1243q0 18 8.5 30.5t18.5 20t20.5 9.5t14.5 2q16 0 28.5 -3t12.5 -11q0 -2 -1 -3.5t-1 -3.5l-4 -12l-9 -8h-8q-12 6 -18 6q-14 0 -15 -22q0 -16 11.5 -36t33.5 -20q10 0 23.5 14.5 t13.5 28.5q0 20 -22 23l-6 4v22q2 10 12 11h-2q2 0 12 -1t20.5 -8.5t19.5 -21.5t9 -41q0 -29 -22.5 -50.5t-55.5 -21.5t-63.5 29t-30.5 63zM619 1243q0 18 8 30.5t18.5 20t20.5 9.5t14 2q16 0 28.5 -3t12.5 -11q0 -2 -1 -3.5t-1 -3.5l-4 -12l-8 -8h-8q-12 6 -19 6 q-14 0 -14 -22q0 -16 11 -36t34 -20q10 0 23.5 14.5t13.5 28.5q0 20 -23 23l-6 4v22q2 10 13 11h-3q2 0 12.5 -1t20.5 -8.5t19.5 -21.5t9.5 -41q0 -29 -22.5 -50.5t-55.5 -21.5t-63.5 29t-30.5 63z" />
<glyph unicode="&#xd0;" horiz-adv-x="1042" d="M35 932q0 16 25.5 34.5t54.5 37.5q12 6 43.5 22t78 31.5t105.5 28t125 12.5q78 0 155.5 -22.5t155.5 -76.5q88 -61 138.5 -139t75 -149.5t29.5 -131t5 -83.5v-15q0 4 -3 -47t-24.5 -131t-69.5 -173t-136 -173q-59 -53 -128 -88t-136.5 -54.5t-132 -26.5t-115.5 -7 q-121 0 -179.5 23.5t-58.5 31.5l2 8q0 16 20.5 25.5t40.5 9.5q25 0 60 -6v23q2 14 10 57t18.5 98t22.5 116.5t23 115.5q-76 0 -132.5 5t-56.5 11l-4 25q0 4 -1 6t-1 6q0 10 17.5 17t46 11.5t66.5 5.5t81 1q2 8 3 16t3 12q2 6 2 11q29 127 51 233q10 45 20.5 90t18.5 84 t14.5 66.5t10.5 38.5l10 26l21 13l22 -7q27 -10 27 -34q0 -8 -2 -17.5t-4 -19.5q-4 -16 -13.5 -65.5t-25 -120t-32.5 -155.5t-36 -171q35 2 69 2t62 4q10 0 17.5 -2t13.5 -31l4 -25q0 -16 -54.5 -24t-127.5 -12q-25 -117 -42.5 -197t-27.5 -129t-15 -71l-5 -21 q10 -2 24.5 -2h30.5q53 0 129 11t162 52q74 27 138 83.5t112.5 133t76 168.5t27.5 193q0 92 -30.5 177t-82 152.5t-118 112.5t-136.5 58q-66 12 -118 12q-100 0 -166 -24.5t-88 -35.5q-41 -18 -71 -34.5t-52 -16.5q-10 0 -22.5 5t-16.5 16z" />
<glyph unicode="&#xd1;" horiz-adv-x="759" d="M35 -109.5q0 7.5 2 15.5q0 23 9 104.5t24.5 192t32 236.5t32 236.5t25.5 190.5t12 101q2 29 7 45t34 20l16 6l21 -12l12 -27q37 -78 68.5 -181t63.5 -225t67 -260t78 -286q57 328 93 545t60.5 347t40 183.5t29.5 53.5l33 -5l4 -4l10 -16l-2 -33q-20 -129 -35.5 -232.5 t-29 -192.5t-28 -173t-31.5 -173t-37.5 -191.5t-47.5 -229.5l-10 -30l-19 -17l-32 2q-29 2 -36 14.5t-18 43.5q-4 14 -19 66t-36.5 127t-47.5 166t-51.5 182t-49 177t-41.5 154q-12 -109 -22.5 -188.5t-21 -146t-18.5 -126t-18.5 -128t-20.5 -151.5t-22 -194l-6 -31l-17 -16 l-24 4q-20 4 -26.5 15.5t-6.5 27.5v13.5zM292 1257l9 10l18 8q10 4 21 5q8 0 11 -5.5t7 -10.5t10 -10t19 -5q10 0 29.5 7t45 16.5t54 17.5t59.5 8q33 0 52.5 -12.5t29.5 -26.5q12 -19 18 -39q4 -12 5 -16q0 -10 -23 -17l-18 -6l-15 2l-6 8q-4 8 -11 23.5t-24 15.5 q-39 0 -52 -2t-23.5 -8t-29 -15t-67.5 -22q-16 -4 -24 -4q-20 0 -37 8.5t-29 19.5t-18 21.5t-6 14.5v2z" />
<glyph unicode="&#xd2;" d="M35 127q0 180 42 334.5t96 271.5t106.5 190.5t72.5 96.5q39 43 76 67.5t66 24.5q12 0 24 -7t12 -15q2 -18 -25.5 -38t-51.5 -44q-33 -18 -88.5 -99.5t-109.5 -203t-93 -269t-39 -297.5q0 -109 28.5 -172t81.5 -67q78 -6 142.5 32.5t116 102t87 139.5t54.5 145 q25 90 37 181.5t12 179.5q0 102 -11.5 168.5t-27.5 108.5t-35.5 62.5t-34 33t-22.5 20t-4 21.5q6 20 37 20q29 0 60.5 -15.5t58 -61.5t44 -132t17.5 -227q0 -8 -4 -73.5t-19.5 -159t-47 -201t-88 -199.5t-141.5 -154.5t-208 -68.5q-66 -4 -109 23.5t-67.5 72.5t-34.5 100.5 t-10 108.5zM385 1333l13 12l20 10q27 12 33 13q2 0 8 -6q4 -18 34 -35t66.5 -30t69.5 -21.5t43 -10.5q8 -2 11 -5t3 -32l-2 -24l-6 -16l-8 -3q-2 0 -3 -1t-5 -1q-29 0 -72 10.5t-86 29t-75.5 45t-41.5 57.5z" />
<glyph unicode="&#xd3;" d="M35 127q0 180 42 334.5t96 271.5t106.5 190.5t72.5 96.5q39 43 76 67.5t66 24.5q12 0 24 -7t12 -15q2 -18 -25.5 -38t-51.5 -44q-33 -18 -88.5 -99.5t-109.5 -203t-93 -269t-39 -297.5q0 -109 28.5 -172t81.5 -67q78 -6 142.5 32.5t116 102t87 139.5t54.5 145 q25 90 37 181.5t12 179.5q0 102 -11.5 168.5t-27.5 108.5t-35.5 62.5t-34 33t-22.5 20t-4 21.5q6 20 37 20q29 0 60.5 -15.5t58 -61.5t44 -132t17.5 -227q0 -8 -4 -73.5t-19.5 -159t-47 -201t-88 -199.5t-141.5 -154.5t-208 -68.5q-66 -4 -109 23.5t-67.5 72.5t-34.5 100.5 t-10 108.5zM395 1222q0 29 3.5 32t11.5 5q10 2 42.5 10.5t69.5 21.5t67 29.5t34 35.5q6 6 8 6q4 0 33 -13l20 -10l12 -12l-2 -8q-8 -31 -40.5 -57.5t-75.5 -45t-87 -29t-71 -10.5q-4 0 -5 1t-3 1l-8 3l-7 16z" />
<glyph unicode="&#xd4;" d="M35 127q0 180 42 334.5t96 271.5t106.5 190.5t72.5 96.5q39 43 76 67.5t66 24.5q12 0 24 -7t12 -15q2 -18 -25.5 -38t-51.5 -44q-33 -18 -88.5 -99.5t-109.5 -203t-93 -269t-39 -297.5q0 -109 28.5 -172t81.5 -67q78 -6 142.5 32.5t116 102t87 139.5t54.5 145 q25 90 37 181.5t12 179.5q0 102 -11.5 168.5t-27.5 108.5t-35.5 62.5t-34 33t-22.5 20t-4 21.5q6 20 37 20q29 0 60.5 -15.5t58 -61.5t44 -132t17.5 -227q0 -8 -4 -73.5t-19.5 -159t-47 -201t-88 -199.5t-141.5 -154.5t-208 -68.5q-66 -4 -109 23.5t-67.5 72.5t-34.5 100.5 t-10 108.5zM389 1223v6q14 23 46 69t110 128q47 -47 89 -92.5t77 -96.5l2 -8l-16 -20l-13 -11q-18 -18 -26 -18q4 0 -31 31.5t-82 91.5q-53 -63 -71.5 -93t-22.5 -30q-8 0 -31 16z" />
<glyph unicode="&#xd5;" d="M35 127q0 180 42 334.5t96 271.5t106.5 190.5t72.5 96.5q39 43 76 67.5t66 24.5q12 0 24 -7t12 -15q2 -18 -25.5 -38t-51.5 -44q-33 -18 -88.5 -99.5t-109.5 -203t-93 -269t-39 -297.5q0 -109 28.5 -172t81.5 -67q78 -6 142.5 32.5t116 102t87 139.5t54.5 145 q25 90 37 181.5t12 179.5q0 102 -11.5 168.5t-27.5 108.5t-35.5 62.5t-34 33t-22.5 20t-4 21.5q6 20 37 20q29 0 60.5 -15.5t58 -61.5t44 -132t17.5 -227q0 -8 -4 -73.5t-19.5 -159t-47 -201t-88 -199.5t-141.5 -154.5t-208 -68.5q-66 -4 -109 23.5t-67.5 72.5t-34.5 100.5 t-10 108.5zM346 1257l9 10l18 8q10 4 21 5q8 0 11 -5.5t7 -10.5t10 -10t19 -5q10 0 29.5 7t45 16.5t54 17.5t59.5 8q33 0 52.5 -12.5t29.5 -26.5q12 -19 18 -39q4 -12 5 -16q0 -10 -23 -17l-18 -6l-15 2l-6 8q-4 8 -11 23.5t-24 15.5q-39 0 -52 -2t-23.5 -8t-29 -15 t-67.5 -22q-16 -4 -24 -4q-20 0 -37 8.5t-29 19.5t-18 21.5t-6 14.5v2z" />
<glyph unicode="&#xd6;" d="M35 127q0 180 42 334.5t96 271.5t106.5 190.5t72.5 96.5q39 43 76 67.5t66 24.5q12 0 24 -7t12 -15q2 -18 -25.5 -38t-51.5 -44q-33 -18 -88.5 -99.5t-109.5 -203t-93 -269t-39 -297.5q0 -109 28.5 -172t81.5 -67q78 -6 142.5 32.5t116 102t87 139.5t54.5 145 q25 90 37 181.5t12 179.5q0 102 -11.5 168.5t-27.5 108.5t-35.5 62.5t-34 33t-22.5 20t-4 21.5q6 20 37 20q29 0 60.5 -15.5t58 -61.5t44 -132t17.5 -227q0 -8 -4 -73.5t-19.5 -159t-47 -201t-88 -199.5t-141.5 -154.5t-208 -68.5q-66 -4 -109 23.5t-67.5 72.5t-34.5 100.5 t-10 108.5zM336 1280q0 18 8.5 30.5t18.5 20t20.5 9.5t14.5 2q16 0 28.5 -3t12.5 -11q0 -2 -1 -3.5t-1 -3.5l-4 -12l-9 -8h-8q-12 6 -18 6q-14 0 -15 -22q0 -16 11.5 -36t33.5 -20q10 0 23.5 14.5t13.5 28.5q0 20 -22 23l-6 4v22q2 10 12 11h-2q2 0 12 -1t20.5 -8.5 t19.5 -21.5t9 -41q0 -29 -22.5 -50.5t-55.5 -21.5t-63.5 29t-30.5 63zM576 1280q0 18 8 30.5t18.5 20t20.5 9.5t14 2q16 0 28.5 -3t12.5 -11q0 -2 -1 -3.5t-1 -3.5l-4 -12l-8 -8h-8q-12 6 -19 6q-14 0 -14 -22q0 -16 11 -36t34 -20q10 0 23.5 14.5t13.5 28.5q0 20 -23 23 l-6 4v22q2 10 13 11h-3q2 0 12.5 -1t20.5 -8.5t19.5 -21.5t9.5 -41q0 -29 -22.5 -50.5t-55.5 -21.5t-63.5 29t-30.5 63z" />
<glyph unicode="&#xd7;" horiz-adv-x="622" d="M53 66q16 27 45 63q23 33 61 82t91 119q-14 16 -41 49t-54.5 67.5t-50 63.5t-28.5 37l-6 14l6 12l20 7h17q12 0 23 -8.5t29.5 -30t48.5 -58.5t79 -96q47 63 76.5 104t47 64t29 31t21.5 8h18l21 -6l2 -2l8 -11l-8 -14q-6 -10 -26.5 -38.5t-47 -64.5t-52.5 -72t-42 -56 q53 -59 88 -101.5t57 -70.5q25 -33 43 -54q0 -10 -18 -18l-18 -6l-21 2l-14 10q-6 6 -23.5 27.5t-41 48.5t-48.5 55.5t-45 50.5l-45 -57.5t-53.5 -67t-47 -59.5t-28.5 -35l-14 -12l-19 -2l-18 6q-20 10 -21 19z" />
<glyph unicode="&#xd8;" d="M35 127q0 180 42 334.5t96 271.5t106.5 190.5t72.5 96.5q39 43 76 67.5t66 24.5q12 0 24 -7t12 -15l5 -9q0 -12 -29 -30.5t-53 -42.5q-33 -18 -88.5 -99.5t-109.5 -203t-93 -269t-39 -297.5q0 -31 2 -59.5t6 -50.5q45 106 104.5 248.5t120 287t115.5 276.5t92 218 q-10 8 -16 12t-6 10q0 7 6 13q6 20 37 20h2q10 23 15 38t9 22q10 29 17.5 44t40.5 15l24 -6l2 -6l6 -17l-6 -35q-8 -23 -16 -42t-16 -40q20 -16 38.5 -45.5t33 -79t22.5 -119t8 -165.5q0 -8 -1 -69.5t-14.5 -149.5t-44 -190.5t-88 -194.5t-147.5 -163t-223 -95 q-10 -2 -18.5 -3t-16.5 -1q-41 0 -72 18l-18 -49l-12 -29l-23 -12l-23 6q-23 10 -22 33q0 10 2 23.5t12 29.5q2 8 8.5 25.5t16.5 42.5q-27 51 -36 113.5t-9 113.5zM178 -76q29 -25 55 -24q72 0 136.5 40t117 101t90 135t56.5 143q25 90 37 181.5t12 179.5q0 127 -17 199.5 t-40 113.5q-109 -274 -221.5 -535t-225.5 -534z" />
<glyph unicode="&#xd9;" horiz-adv-x="686" d="M33 123q0 113 19.5 222.5t47 219t59 219t58.5 220.5q8 37 17.5 61.5t41.5 24.5l25 -5l8 -26q0 -18 -6 -43q-14 -45 -33.5 -118t-40 -160t-40 -179t-36 -175t-25.5 -149.5t-9 -101.5q0 -29 2 -60.5t11 -59t27.5 -46t53.5 -18.5q39 0 79 9t80 22.5t78.5 28t75.5 24.5 q45 285 72 475t43 304t31.5 162t40.5 48l24 -2l4 -4l11 -12v-31q-2 -10 -6.5 -38t-9.5 -67t-11 -84l-12 -90q-14 -106 -33 -235q-2 0 -7 -34t-13.5 -86t-17.5 -114.5t-19.5 -120t-17.5 -100.5t-11 -57l-8 -29l-19 -12l-24 4q-27 10 -27 35q-31 -8 -69.5 -22.5t-80.5 -28 t-82 -23.5t-73 -10q-49 0 -84 21.5t-55.5 58t-29.5 84t-9 98.5zM344 1348l13 12l20 10q27 12 33 13q2 0 8 -6q4 -18 34 -35t66.5 -30t69.5 -21.5t43 -10.5q8 -2 11 -5t3 -32l-2 -24l-6 -16l-8 -3q-2 0 -3 -1t-5 -1q-29 0 -72 10.5t-86 29t-75.5 45t-41.5 57.5z" />
<glyph unicode="&#xda;" horiz-adv-x="686" d="M33 123q0 113 19.5 222.5t47 219t59 219t58.5 220.5q8 37 17.5 61.5t41.5 24.5l25 -5l8 -26q0 -18 -6 -43q-14 -45 -33.5 -118t-40 -160t-40 -179t-36 -175t-25.5 -149.5t-9 -101.5q0 -29 2 -60.5t11 -59t27.5 -46t53.5 -18.5q39 0 79 9t80 22.5t78.5 28t75.5 24.5 q45 285 72 475t43 304t31.5 162t40.5 48l24 -2l4 -4l11 -12v-31q-2 -10 -6.5 -38t-9.5 -67t-11 -84l-12 -90q-14 -106 -33 -235q-2 0 -7 -34t-13.5 -86t-17.5 -114.5t-19.5 -120t-17.5 -100.5t-11 -57l-8 -29l-19 -12l-24 4q-27 10 -27 35q-31 -8 -69.5 -22.5t-80.5 -28 t-82 -23.5t-73 -10q-49 0 -84 21.5t-55.5 58t-29.5 84t-9 98.5zM368 1226q0 29 3.5 32t11.5 5q10 2 42.5 10.5t69.5 21.5t67 29.5t34 35.5q6 6 8 6q4 0 33 -13l20 -10l12 -12l-2 -8q-8 -31 -40.5 -57.5t-75.5 -45t-87 -29t-71 -10.5q-4 0 -5 1t-3 1l-8 3l-7 16z" />
<glyph unicode="&#xdb;" horiz-adv-x="686" d="M33 123q0 113 19.5 222.5t47 219t59 219t58.5 220.5q8 37 17.5 61.5t41.5 24.5l25 -5l8 -26q0 -18 -6 -43q-14 -45 -33.5 -118t-40 -160t-40 -179t-36 -175t-25.5 -149.5t-9 -101.5q0 -29 2 -60.5t11 -59t27.5 -46t53.5 -18.5q39 0 79 9t80 22.5t78.5 28t75.5 24.5 q45 285 72 475t43 304t31.5 162t40.5 48l24 -2l4 -4l11 -12v-31q-2 -10 -6.5 -38t-9.5 -67t-11 -84l-12 -90q-14 -106 -33 -235q-2 0 -7 -34t-13.5 -86t-17.5 -114.5t-19.5 -120t-17.5 -100.5t-11 -57l-8 -29l-19 -12l-24 4q-27 10 -27 35q-31 -8 -69.5 -22.5t-80.5 -28 t-82 -23.5t-73 -10q-49 0 -84 21.5t-55.5 58t-29.5 84t-9 98.5zM352 1221v6q14 23 46 69t110 128q47 -47 89 -92.5t77 -96.5l2 -8l-16 -20l-13 -11q-18 -18 -26 -18q4 0 -31 31.5t-82 91.5q-53 -63 -71.5 -93t-22.5 -30q-8 0 -31 16z" />
<glyph unicode="&#xdc;" horiz-adv-x="686" d="M33 123q0 113 19.5 222.5t47 219t59 219t58.5 220.5q8 37 17.5 61.5t41.5 24.5l25 -5l8 -26q0 -18 -6 -43q-14 -45 -33.5 -118t-40 -160t-40 -179t-36 -175t-25.5 -149.5t-9 -101.5q0 -29 2 -60.5t11 -59t27.5 -46t53.5 -18.5q39 0 79 9t80 22.5t78.5 28t75.5 24.5 q45 285 72 475t43 304t31.5 162t40.5 48l24 -2l4 -4l11 -12v-31q-2 -10 -6.5 -38t-9.5 -67t-11 -84l-12 -90q-14 -106 -33 -235q-2 0 -7 -34t-13.5 -86t-17.5 -114.5t-19.5 -120t-17.5 -100.5t-11 -57l-8 -29l-19 -12l-24 4q-27 10 -27 35q-31 -8 -69.5 -22.5t-80.5 -28 t-82 -23.5t-73 -10q-49 0 -84 21.5t-55.5 58t-29.5 84t-9 98.5zM329 1277q0 18 8.5 30.5t18.5 20t20.5 9.5t14.5 2q16 0 28.5 -3t12.5 -11q0 -2 -1 -3.5t-1 -3.5l-4 -12l-9 -8h-8q-12 6 -18 6q-14 0 -15 -22q0 -16 11.5 -36t33.5 -20q10 0 23.5 14.5t13.5 28.5q0 20 -22 23 l-6 4v22q2 10 12 11h-2q2 0 12 -1t20.5 -8.5t19.5 -21.5t9 -41q0 -29 -22.5 -50.5t-55.5 -21.5t-63.5 29t-30.5 63zM569 1277q0 18 8 30.5t18.5 20t20.5 9.5t14 2q16 0 28.5 -3t12.5 -11q0 -2 -1 -3.5t-1 -3.5l-4 -12l-8 -8h-8q-12 6 -19 6q-14 0 -14 -22q0 -16 11 -36 t34 -20q10 0 23.5 14.5t13.5 28.5q0 20 -23 23l-6 4v22q2 10 13 11h-3q2 0 12.5 -1t20.5 -8.5t19.5 -21.5t9.5 -41q0 -29 -22.5 -50.5t-55.5 -21.5t-63.5 29t-30.5 63z" />
<glyph unicode="&#xdd;" horiz-adv-x="749" d="M31 330q0 100 24.5 217t54 218t54 173t24.5 80q10 33 18.5 52.5t37.5 19.5l24 -5l11 -22q0 -18 -7 -39q-23 -70 -49 -157t-51 -180t-41 -184t-16 -167q0 -20 3 -47t11 -50.5t24.5 -41t43.5 -21.5q49 2 99 14.5t95 25.5t81 25.5t54 16.5q41 221 62.5 368.5t36 235.5 t28 124t37.5 36l25 -2l4 -4l10 -15l-2 -32q0 -14 -7 -59.5t-17.5 -106t-21.5 -126t-20.5 -121.5t-15.5 -95t-6 -45l-2 2q-2 0 -8 -37t-16.5 -93.5t-20.5 -123t-20.5 -129t-18.5 -109.5t-12 -63l-11 -29l-18 -14l-25 6q-16 6 -21 15t-5 24q0 6 2 21.5t8 49t15.5 90 t25.5 142.5q-16 -6 -49 -18.5t-74 -25.5t-90 -23.5t-100 -10.5q-47 0 -80 18.5t-52.5 50t-27.5 76t-8 95.5zM383 1230q0 29 3.5 32t11.5 5q10 2 42.5 10.5t69.5 21.5t67 29.5t34 35.5q6 6 8 6q4 0 33 -13l20 -10l12 -12l-2 -8q-8 -31 -40.5 -57.5t-75.5 -45t-87 -29 t-71 -10.5q-4 0 -5 1t-3 1l-8 3l-7 16z" />
<glyph unicode="&#xe0;" horiz-adv-x="626" d="M43 154q0 70 23.5 131t63.5 107t95 74t117 28q66 0 106.5 -34t56.5 -63q6 33 10.5 68t4.5 74q0 37 -6.5 75.5t-19.5 71.5t-36.5 53.5t-58.5 20.5q-27 0 -52.5 -15.5t-47 -38t-39 -48t-25.5 -46.5q-4 -33 -6 -64.5t-2 -39.5l-6 -8l-17 -6h-24q-23 2 -29 5t-6 11 q0 16 3 64.5t7 107.5q2 51 2 86t2 56.5t10.5 30.5t28.5 11h25l16 -6l4 -10v-76q84 74 156 74q51 0 89 -22.5t63.5 -57.5t38 -81t12.5 -91q0 -55 -7.5 -116.5t-18.5 -122t-23.5 -119t-22.5 -107.5q-2 -10 -25 -10q-16 0 -33.5 5t-17.5 11q0 2 2 16.5t4 33t5.5 35t3.5 26.5 q0 8 -5.5 34.5t-19.5 56.5t-39 52.5t-61 22.5q-47 0 -87 -22.5t-68 -59.5t-43 -84t-15 -94q0 -23 4 -57t17 -64.5t38 -52t68 -21.5q33 0 65.5 11.5t59 26.5t45 29.5t22.5 20.5q4 4 14.5 8t24.5 4q10 0 24.5 -7t14.5 -25q-4 -27 -31.5 -53.5t-68.5 -48t-87.5 -36t-82.5 -14.5 q-55 0 -96.5 23.5t-67 62.5t-38.5 89t-13 104zM251 1106l13 12l20 10q27 12 33 13q2 0 8 -6q4 -18 34 -35t66.5 -30t69.5 -21.5t43 -10.5q8 -2 11 -5t3 -32l-2 -24l-6 -16l-8 -3q-2 0 -3 -1t-5 -1q-29 0 -72 10.5t-86 29t-75.5 45t-41.5 57.5z" />
<glyph unicode="&#xe1;" horiz-adv-x="626" d="M43 154q0 70 23.5 131t63.5 107t95 74t117 28q66 0 106.5 -34t56.5 -63q6 33 10.5 68t4.5 74q0 37 -6.5 75.5t-19.5 71.5t-36.5 53.5t-58.5 20.5q-27 0 -52.5 -15.5t-47 -38t-39 -48t-25.5 -46.5q-4 -33 -6 -64.5t-2 -39.5l-6 -8l-17 -6h-24q-23 2 -29 5t-6 11 q0 16 3 64.5t7 107.5q2 51 2 86t2 56.5t10.5 30.5t28.5 11h25l16 -6l4 -10v-76q84 74 156 74q51 0 89 -22.5t63.5 -57.5t38 -81t12.5 -91q0 -55 -7.5 -116.5t-18.5 -122t-23.5 -119t-22.5 -107.5q-2 -10 -25 -10q-16 0 -33.5 5t-17.5 11q0 2 2 16.5t4 33t5.5 35t3.5 26.5 q0 8 -5.5 34.5t-19.5 56.5t-39 52.5t-61 22.5q-47 0 -87 -22.5t-68 -59.5t-43 -84t-15 -94q0 -23 4 -57t17 -64.5t38 -52t68 -21.5q33 0 65.5 11.5t59 26.5t45 29.5t22.5 20.5q4 4 14.5 8t24.5 4q10 0 24.5 -7t14.5 -25q-4 -27 -31.5 -53.5t-68.5 -48t-87.5 -36t-82.5 -14.5 q-55 0 -96.5 23.5t-67 62.5t-38.5 89t-13 104zM249 1001q0 29 3.5 32t11.5 5q10 2 42.5 10.5t69.5 21.5t67 29.5t34 35.5q6 6 8 6q4 0 33 -13l20 -10l12 -12l-2 -8q-8 -31 -40.5 -57.5t-75.5 -45t-87 -29t-71 -10.5q-4 0 -5 1t-3 1l-8 3l-7 16z" />
<glyph unicode="&#xe2;" horiz-adv-x="626" d="M43 154q0 70 23.5 131t63.5 107t95 74t117 28q66 0 106.5 -34t56.5 -63q6 33 10.5 68t4.5 74q0 37 -6.5 75.5t-19.5 71.5t-36.5 53.5t-58.5 20.5q-27 0 -52.5 -15.5t-47 -38t-39 -48t-25.5 -46.5q-4 -33 -6 -64.5t-2 -39.5l-6 -8l-17 -6h-24q-23 2 -29 5t-6 11 q0 16 3 64.5t7 107.5q2 51 2 86t2 56.5t10.5 30.5t28.5 11h25l16 -6l4 -10v-76q84 74 156 74q51 0 89 -22.5t63.5 -57.5t38 -81t12.5 -91q0 -55 -7.5 -116.5t-18.5 -122t-23.5 -119t-22.5 -107.5q-2 -10 -25 -10q-16 0 -33.5 5t-17.5 11q0 2 2 16.5t4 33t5.5 35t3.5 26.5 q0 8 -5.5 34.5t-19.5 56.5t-39 52.5t-61 22.5q-47 0 -87 -22.5t-68 -59.5t-43 -84t-15 -94q0 -23 4 -57t17 -64.5t38 -52t68 -21.5q33 0 65.5 11.5t59 26.5t45 29.5t22.5 20.5q4 4 14.5 8t24.5 4q10 0 24.5 -7t14.5 -25q-4 -27 -31.5 -53.5t-68.5 -48t-87.5 -36t-82.5 -14.5 q-55 0 -96.5 23.5t-67 62.5t-38.5 89t-13 104zM231 979v6q14 23 46 69t110 128q47 -47 89 -92.5t77 -96.5l2 -8l-16 -20l-13 -11q-18 -18 -26 -18q4 0 -31 31.5t-82 91.5q-53 -63 -71.5 -93t-22.5 -30q-8 0 -31 16z" />
<glyph unicode="&#xe3;" horiz-adv-x="626" d="M43 154q0 70 23.5 131t63.5 107t95 74t117 28q66 0 106.5 -34t56.5 -63q6 33 10.5 68t4.5 74q0 37 -6.5 75.5t-19.5 71.5t-36.5 53.5t-58.5 20.5q-27 0 -52.5 -15.5t-47 -38t-39 -48t-25.5 -46.5q-4 -33 -6 -64.5t-2 -39.5l-6 -8l-17 -6h-24q-23 2 -29 5t-6 11 q0 16 3 64.5t7 107.5q2 51 2 86t2 56.5t10.5 30.5t28.5 11h25l16 -6l4 -10v-76q84 74 156 74q51 0 89 -22.5t63.5 -57.5t38 -81t12.5 -91q0 -55 -7.5 -116.5t-18.5 -122t-23.5 -119t-22.5 -107.5q-2 -10 -25 -10q-16 0 -33.5 5t-17.5 11q0 2 2 16.5t4 33t5.5 35t3.5 26.5 q0 8 -5.5 34.5t-19.5 56.5t-39 52.5t-61 22.5q-47 0 -87 -22.5t-68 -59.5t-43 -84t-15 -94q0 -23 4 -57t17 -64.5t38 -52t68 -21.5q33 0 65.5 11.5t59 26.5t45 29.5t22.5 20.5q4 4 14.5 8t24.5 4q10 0 24.5 -7t14.5 -25q-4 -27 -31.5 -53.5t-68.5 -48t-87.5 -36t-82.5 -14.5 q-55 0 -96.5 23.5t-67 62.5t-38.5 89t-13 104zM229 1024l9 10l18 8q10 4 21 5q8 0 11 -5.5t7 -10.5t10 -10t19 -5q10 0 29.5 7t45 16.5t54 17.5t59.5 8q33 0 52.5 -12.5t29.5 -26.5q12 -19 18 -39q4 -12 5 -16q0 -10 -23 -17l-18 -6l-15 2l-6 8q-4 8 -11 23.5t-24 15.5 q-39 0 -52 -2t-23.5 -8t-29 -15t-67.5 -22q-16 -4 -24 -4q-20 0 -37 8.5t-29 19.5t-18 21.5t-6 14.5v2z" />
<glyph unicode="&#xe4;" horiz-adv-x="626" d="M43 154q0 70 23.5 131t63.5 107t95 74t117 28q66 0 106.5 -34t56.5 -63q6 33 10.5 68t4.5 74q0 37 -6.5 75.5t-19.5 71.5t-36.5 53.5t-58.5 20.5q-27 0 -52.5 -15.5t-47 -38t-39 -48t-25.5 -46.5q-4 -33 -6 -64.5t-2 -39.5l-6 -8l-17 -6h-24q-23 2 -29 5t-6 11 q0 16 3 64.5t7 107.5q2 51 2 86t2 56.5t10.5 30.5t28.5 11h25l16 -6l4 -10v-76q84 74 156 74q51 0 89 -22.5t63.5 -57.5t38 -81t12.5 -91q0 -55 -7.5 -116.5t-18.5 -122t-23.5 -119t-22.5 -107.5q-2 -10 -25 -10q-16 0 -33.5 5t-17.5 11q0 2 2 16.5t4 33t5.5 35t3.5 26.5 q0 8 -5.5 34.5t-19.5 56.5t-39 52.5t-61 22.5q-47 0 -87 -22.5t-68 -59.5t-43 -84t-15 -94q0 -23 4 -57t17 -64.5t38 -52t68 -21.5q33 0 65.5 11.5t59 26.5t45 29.5t22.5 20.5q4 4 14.5 8t24.5 4q10 0 24.5 -7t14.5 -25q-4 -27 -31.5 -53.5t-68.5 -48t-87.5 -36t-82.5 -14.5 q-55 0 -96.5 23.5t-67 62.5t-38.5 89t-13 104zM200 1044q0 18 8.5 30.5t18.5 20t20.5 9.5t14.5 2q16 0 28.5 -3t12.5 -11q0 -2 -1 -3.5t-1 -3.5l-4 -12l-9 -8h-8q-12 6 -18 6q-14 0 -15 -22q0 -16 11.5 -36t33.5 -20q10 0 23.5 14.5t13.5 28.5q0 20 -22 23l-6 4v22 q2 10 12 11h-2q2 0 12 -1t20.5 -8.5t19.5 -21.5t9 -41q0 -29 -22.5 -50.5t-55.5 -21.5t-63.5 29t-30.5 63zM440 1044q0 18 8 30.5t18.5 20t20.5 9.5t14 2q16 0 28.5 -3t12.5 -11q0 -2 -1 -3.5t-1 -3.5l-4 -12l-8 -8h-8q-12 6 -19 6q-14 0 -14 -22q0 -16 11 -36t34 -20 q10 0 23.5 14.5t13.5 28.5q0 20 -23 23l-6 4v22q2 10 13 11h-3q2 0 12.5 -1t20.5 -8.5t19.5 -21.5t9.5 -41q0 -29 -22.5 -50.5t-55.5 -21.5t-63.5 29t-30.5 63z" />
<glyph unicode="&#xe5;" horiz-adv-x="626" d="M43 154q0 70 23.5 131t63.5 107t95 74t117 28q66 0 106.5 -34t56.5 -63q6 33 10.5 68t4.5 74q0 37 -6.5 75.5t-19.5 71.5t-36.5 53.5t-58.5 20.5q-27 0 -52.5 -15.5t-47 -38t-39 -48t-25.5 -46.5q-4 -33 -6 -64.5t-2 -39.5l-6 -8l-17 -6h-24q-23 2 -29 5t-6 11 q0 16 3 64.5t7 107.5q2 51 2 86t2 56.5t10.5 30.5t28.5 11h25l16 -6l4 -10v-76q84 74 156 74q51 0 89 -22.5t63.5 -57.5t38 -81t12.5 -91q0 -55 -7.5 -116.5t-18.5 -122t-23.5 -119t-22.5 -107.5q-2 -10 -25 -10q-16 0 -33.5 5t-17.5 11q0 2 2 16.5t4 33t5.5 35t3.5 26.5 q0 8 -5.5 34.5t-19.5 56.5t-39 52.5t-61 22.5q-47 0 -87 -22.5t-68 -59.5t-43 -84t-15 -94q0 -23 4 -57t17 -64.5t38 -52t68 -21.5q33 0 65.5 11.5t59 26.5t45 29.5t22.5 20.5q4 4 14.5 8t24.5 4q10 0 24.5 -7t14.5 -25q-4 -27 -31.5 -53.5t-68.5 -48t-87.5 -36t-82.5 -14.5 q-55 0 -96.5 23.5t-67 62.5t-38.5 89t-13 104zM323 1044q0 18 8.5 30.5t18.5 20t20.5 9.5t14.5 2q16 0 28.5 -3t12.5 -11q0 -2 -1 -3.5t-1 -3.5l-4 -12l-9 -8h-8q-12 6 -18 6q-14 0 -15 -22q0 -16 11.5 -36t33.5 -20q10 0 23.5 14.5t13.5 28.5q0 20 -22 23l-6 4v22 q2 10 12 11h-2q2 0 12 -1t20.5 -8.5t19.5 -21.5t9 -41q0 -29 -22.5 -50.5t-55.5 -21.5t-63.5 29t-30.5 63z" />
<glyph unicode="&#xe6;" horiz-adv-x="1032" d="M57 154q0 70 23.5 131t63.5 107t95.5 74t116.5 28t101.5 -31t58.5 -60q4 35 9 65t10 54v17q0 37 -6.5 75.5t-19.5 71.5t-36.5 53.5t-58.5 20.5q-27 0 -52.5 -15.5t-47 -38t-39 -48t-25.5 -46.5q-4 -33 -6 -64.5t-2 -39.5l-6 -8l-17 -6h-24q-23 2 -29 5t-6 11q0 16 3 64.5 t7 107.5q2 51 2 86t2 56.5t10.5 30.5t28.5 11h25l16 -6l4 -10v-76q84 74 156 74q66 0 110.5 -37t67.5 -92q18 6 75.5 22.5t121 36t116.5 34.5t66 19q4 2 12 3q12 0 23 -29l6 -14v-27l-11 -6q-55 -23 -94 -36t-75.5 -24.5t-80.5 -21.5t-112 -27q-4 -35 -13.5 -95t-17.5 -114 q33 8 62.5 15.5t61.5 13.5t68 13t83 18l10 -2l8 -17l2 -24q0 -29 -4 -32t-12 -5q-6 -2 -43 -10.5t-83 -19.5t-93 -22.5t-74 -17.5q-2 -8 -15.5 -81.5t-43.5 -221.5q0 -2 2 -2q23 6 47 12t45 13q23 8 47 14q51 10 92 18q35 8 66.5 13.5t42.5 7.5l12 -2l10 -15l4 -24 q0 -6 1 -10t1 -9q0 -12 -5 -15t-13 -5q-12 -2 -68.5 -15.5t-122 -28.5t-122 -28.5t-68.5 -15.5q-4 -2 -12 -2q-4 0 -7 2q-43 -35 -104 -57.5t-111 -22.5q-55 0 -96 23.5t-66.5 62.5t-39 89t-13.5 104zM145 154q0 -23 4.5 -57t17.5 -64.5t37.5 -52t67.5 -21.5q53 0 103.5 27 t75.5 47q4 18 8 47t10 65q4 18 8 52l6 51q0 8 -5 34.5t-19.5 56.5t-39 52.5t-61.5 22.5q-47 0 -87 -22.5t-67.5 -59.5t-43 -84t-15.5 -94z" />
<glyph unicode="&#xe7;" horiz-adv-x="595" d="M16 -291q0 2 4 10q14 18 32 45t35 54.5t33.5 54.5t29.5 47q-59 35 -88 104.5t-29 147.5q0 86 25.5 184.5t71.5 192.5t107.5 176t133.5 131q23 14 47 14q41 0 72.5 -34.5t31.5 -79.5q0 -59 -11 -111.5t-28.5 -92.5t-38 -63.5t-38.5 -23.5q-8 0 -17 6l-14 18l2 25 q2 10 7 19.5t9 23.5q2 0 10.5 20.5t15.5 49t13 60.5t6 56q0 18 -5 30.5t-15 12.5q-14 0 -38 -21.5t-63 -72.5q-47 -63 -80.5 -129.5t-54 -121t-30 -88.5t-9.5 -31q0 -4 -11 -50.5t-11 -105.5q0 -18 4 -50t16.5 -61.5t32 -51t49.5 -21.5q57 0 104.5 44t81 97t55 101t28.5 55 q10 23 18 39t25 20l6 6l8 -4l14 -8q14 -12 15 -33q0 -43 -32 -111.5t-81 -133t-107.5 -111.5t-109.5 -47h-17.5t-17.5 2q-8 -23 -22.5 -52.5t-31 -61.5t-37 -61.5t-40.5 -54.5q-6 -2 -14 -2q-27 0 -39.5 19.5t-12.5 23.5z" />
<glyph unicode="&#xe8;" horiz-adv-x="542" d="M27 190q0 111 35.5 222.5t82.5 214.5q59 125 119 178t105 53q59 0 96 -71.5t37 -182.5q0 -80 -24.5 -151.5t-71 -126t-113 -86t-150.5 -31.5q-18 0 -26 2q-4 -16 -4 -35.5v-40.5q0 -63 35.5 -101t82.5 -38q39 0 70 20.5t52.5 46t34.5 49t18 29.5q16 29 27 50.5t28 21.5 l20 -10q14 -14 15 -35q0 -23 -12.5 -48.5t-30.5 -56.5q0 -4 -15.5 -27.5t-43 -50t-66.5 -49t-90 -22.5q-59 0 -99.5 23.5t-65 61.5t-35.5 88t-11 103zM127 287q57 0 109.5 23.5t92.5 63.5t64.5 95t24.5 121q0 100 -22.5 142t-39.5 42q-20 0 -41.5 -25.5t-40 -58.5t-33 -63.5 t-18.5 -40.5q-2 -6 -13 -28.5t-25.5 -61.5t-30 -91.5t-27.5 -117.5zM237 1106l13 12l20 10q27 12 33 13q2 0 8 -6q4 -18 34 -35t66.5 -30t69.5 -21.5t43 -10.5q8 -2 11 -5t3 -32l-2 -24l-6 -16l-8 -3q-2 0 -3 -1t-5 -1q-29 0 -72 10.5t-86 29t-75.5 45t-41.5 57.5z" />
<glyph unicode="&#xe9;" horiz-adv-x="540" d="M25 190q0 111 35.5 222.5t82.5 214.5q59 125 119 178t105 53q59 0 96 -71.5t37 -182.5q0 -80 -24.5 -151.5t-71 -126t-113 -86t-150.5 -31.5q-18 0 -26 2q-4 -16 -4 -35.5v-40.5q0 -63 35.5 -101t82.5 -38q39 0 70 20.5t52.5 46t34.5 49t18 29.5q16 29 27 50.5t28 21.5 l20 -10q14 -14 15 -35q0 -23 -12.5 -48.5t-30.5 -56.5q0 -4 -15.5 -27.5t-43 -50t-66.5 -49t-90 -22.5q-59 0 -99.5 23.5t-65 61.5t-35.5 88t-11 103zM125 287q57 0 109.5 23.5t92.5 63.5t64.5 95t24.5 121q0 100 -22.5 142t-39.5 42q-20 0 -41.5 -25.5t-40 -58.5t-33 -63.5 t-18.5 -40.5q-2 -6 -13 -28.5t-25.5 -61.5t-30 -91.5t-27.5 -117.5zM209 1001q0 29 3.5 32t11.5 5q10 2 42.5 10.5t69.5 21.5t67 29.5t34 35.5q6 6 8 6q4 0 33 -13l20 -10l12 -12l-2 -8q-8 -31 -40.5 -57.5t-75.5 -45t-87 -29t-71 -10.5q-4 0 -5 1t-3 1l-8 3l-7 16z" />
<glyph unicode="&#xea;" horiz-adv-x="542" d="M27 190q0 111 35.5 222.5t82.5 214.5q59 125 119 178t105 53q59 0 96 -71.5t37 -182.5q0 -80 -24.5 -151.5t-71 -126t-113 -86t-150.5 -31.5q-18 0 -26 2q-4 -16 -4 -35.5v-40.5q0 -63 35.5 -101t82.5 -38q39 0 70 20.5t52.5 46t34.5 49t18 29.5q16 29 27 50.5t28 21.5 l20 -10q14 -14 15 -35q0 -23 -12.5 -48.5t-30.5 -56.5q0 -4 -15.5 -27.5t-43 -50t-66.5 -49t-90 -22.5q-59 0 -99.5 23.5t-65 61.5t-35.5 88t-11 103zM127 287q57 0 109.5 23.5t92.5 63.5t64.5 95t24.5 121q0 100 -22.5 142t-39.5 42q-20 0 -41.5 -25.5t-40 -58.5t-33 -63.5 t-18.5 -40.5q-2 -6 -13 -28.5t-25.5 -61.5t-30 -91.5t-27.5 -117.5zM215 979v6q14 23 46 69t110 128q47 -47 89 -92.5t77 -96.5l2 -8l-16 -20l-13 -11q-18 -18 -26 -18q4 0 -31 31.5t-82 91.5q-53 -63 -71.5 -93t-22.5 -30q-8 0 -31 16z" />
<glyph unicode="&#xeb;" horiz-adv-x="552" d="M35 190q0 111 35.5 222.5t82.5 214.5q59 125 119 178t105 53q59 0 96 -71.5t37 -182.5q0 -80 -24.5 -151.5t-71 -126t-113 -86t-150.5 -31.5q-18 0 -26 2q-4 -16 -4 -35.5v-40.5q0 -63 35.5 -101t82.5 -38q39 0 70 20.5t52.5 46t34.5 49t18 29.5q16 29 27 50.5t28 21.5 l20 -10q14 -14 15 -35q0 -23 -12.5 -48.5t-30.5 -56.5q0 -4 -15.5 -27.5t-43 -50t-66.5 -49t-90 -22.5q-59 0 -99.5 23.5t-65 61.5t-35.5 88t-11 103zM135 287q57 0 109.5 23.5t92.5 63.5t64.5 95t24.5 121q0 100 -22.5 142t-39.5 42q-20 0 -41.5 -25.5t-40 -58.5t-33 -63.5 t-18.5 -40.5q-2 -6 -13 -28.5t-25.5 -61.5t-30 -91.5t-27.5 -117.5zM190 1044q0 18 8.5 30.5t18.5 20t20.5 9.5t14.5 2q16 0 28.5 -3t12.5 -11q0 -2 -1 -3.5t-1 -3.5l-4 -12l-9 -8h-8q-12 6 -18 6q-14 0 -15 -22q0 -16 11.5 -36t33.5 -20q10 0 23.5 14.5t13.5 28.5 q0 20 -22 23l-6 4v22q2 10 12 11h-2q2 0 12 -1t20.5 -8.5t19.5 -21.5t9 -41q0 -29 -22.5 -50.5t-55.5 -21.5t-63.5 29t-30.5 63zM430 1044q0 18 8 30.5t18.5 20t20.5 9.5t14 2q16 0 28.5 -3t12.5 -11q0 -2 -1 -3.5t-1 -3.5l-4 -12l-8 -8h-8q-12 6 -19 6q-14 0 -14 -22 q0 -16 11 -36t34 -20q10 0 23.5 14.5t13.5 28.5q0 20 -23 23l-6 4v22q2 10 13 11h-3q2 0 12.5 -1t20.5 -8.5t19.5 -21.5t9.5 -41q0 -29 -22.5 -50.5t-55.5 -21.5t-63.5 29t-30.5 63z" />
<glyph unicode="&#xec;" horiz-adv-x="229" d="M23 -57v-2q2 0 16 95t39 275q14 113 23.5 187.5t16.5 119t18 62.5t32 18l25 -2l14 -12l2 -20q-2 -16 -9 -75t-16 -124q-8 -76 -20 -168q-16 -90 -29 -166q-10 -66 -19.5 -123t-13.5 -74l-8 -18l-16 -8l-25 4q-18 4 -24 12t-6 19zM68 971l12 12l20 10q27 12 33 13 q2 0 8 -7q4 -18 34 -34.5t67 -29.5t69.5 -21.5t42.5 -10.5q8 -2 11.5 -5t3.5 -32l-2 -24l-7 -17l-8 -2q-2 0 -3 -1t-5 -1q-29 0 -72 10.5t-86 29t-75.5 45t-40.5 57.5z" />
<glyph unicode="&#xed;" horiz-adv-x="229" d="M23 -57q0 -10 6 -18.5t24 -12.5l25 -4l16 8l8 18q4 16 13.5 74t19.5 123q12 76 29 166q12 92 20 168q8 66 15.5 124t9.5 75l-2 20l-14 12l-25 2q-20 0 -31.5 -18t-18.5 -62.5t-16.5 -119t-23.5 -187.5q-25 -180 -39 -275t-16 -95v2zM41 866q0 29 3 32t11 5q10 2 43 10.5 t70 21.5t66.5 29.5t33.5 34.5q6 6 8 7q4 0 33 -13l21 -10l12 -12l-2 -8q-8 -31 -41 -57.5t-76 -45t-87 -29t-70 -10.5q-4 0 -5.5 1t-3.5 1l-8 2l-6 17z" />
<glyph unicode="&#xee;" horiz-adv-x="229" d="M23 -57v-2q2 0 16 95t39 275q14 113 23.5 187.5t16.5 119t18 62.5t32 18l25 -2l14 -12l2 -20q-2 -16 -9 -75t-16 -124q-8 -76 -20 -168q-16 -90 -29 -166q-10 -66 -19.5 -123t-13.5 -74l-8 -18l-16 -8l-25 4q-18 4 -24 12t-6 19zM55 866v6q18 20 59.5 58.5t133.5 101.5 q37 -53 69.5 -106.5t55.5 -110.5v-8l-21 -19l-14 -6q-20 -16 -29 -12q4 -2 -23.5 36t-62.5 107q-66 -53 -89 -77.5t-28 -24.5q-10 4 -26 23z" />
<glyph unicode="&#xef;" horiz-adv-x="229" d="M-8 913q0 18 8 30.5t18.5 20t20.5 9.5t14 2q16 0 28.5 -3t12.5 -11q0 -2 -1 -3.5t-1 -3.5l-4 -12l-8 -8h-8q-12 6 -19 6q-14 0 -14 -22q0 -16 11 -36t34 -20q10 0 23.5 14.5t13.5 28.5q0 20 -23 23l-6 4v22q2 10 12 11h-2q2 0 12.5 -1t20.5 -8.5t19.5 -21.5t9.5 -41 q0 -29 -22.5 -50.5t-55.5 -21.5t-63.5 29t-30.5 63zM23 -57v-2q2 0 16 95t39 275q14 113 23.5 187.5t16.5 119t18 62.5t32 18l25 -2l14 -12l2 -20q-2 -16 -9 -75t-16 -124q-8 -76 -20 -168q-16 -90 -29 -166q-10 -66 -19.5 -123t-13.5 -74l-8 -18l-16 -8l-25 4q-18 4 -24 12 t-6 19zM231 913q0 18 8.5 30.5t18.5 20t20.5 9.5t14.5 2q16 0 28.5 -3t12.5 -11q0 -2 -1 -3.5t-1 -3.5l-4 -12l-9 -8h-8q-12 6 -18 6q-14 0 -14 -22q0 -16 11 -36t34 -20q10 0 23 14.5t13 28.5q0 20 -22 23l-6 4v22q2 10 12 11h-2q2 0 12.5 -1t20.5 -8.5t19 -21.5t9 -41 q0 -29 -22 -50.5t-55 -21.5t-64 29t-31 63z" />
<glyph unicode="&#xf1;" horiz-adv-x="598" d="M25 -74q0 16 2 25q0 12 5 52t11 96.5t14.5 125t16.5 137.5q16 127 23 213.5t14.5 137.5t17.5 73.5t31 24.5l24 6l19 -6l12 -20q39 -109 63.5 -184t44 -143.5t41 -145t52.5 -189.5q23 201 38 334t27.5 212t25.5 111.5t32 32.5l24 -2l4 -4l13 -10l4 -23q0 -8 -3 -30.5 t-6.5 -52t-8.5 -65.5t-9 -71q-10 -84 -27 -184q-14 -106 -26 -195q-6 -37 -11.5 -74.5t-9.5 -69.5t-7 -54.5t-5 -30.5q-4 -8 -17.5 -10t-23.5 -2q-35 0 -42 9t-15 34q-6 16 -25.5 84.5t-46.5 159.5t-56.5 190.5t-54.5 177.5q-4 -45 -9 -88t-9 -78q-6 -41 -12 -80 q-14 -109 -25 -196q-4 -39 -9 -77t-10 -70t-8.5 -54.5t-5.5 -30.5l-6 -22l-18 -11l-25 5q-18 4 -23 13t-5 19zM170 1024l9 10l18 8q10 4 21 5q8 0 11 -5.5t7 -10.5t10 -10t19 -5q10 0 29.5 7t45 16.5t54 17.5t59.5 8q33 0 52.5 -12.5t29.5 -26.5q12 -19 18 -39q4 -12 5 -16 q0 -10 -23 -17l-18 -6l-15 2l-6 8q-4 8 -11 23.5t-24 15.5q-39 0 -52 -2t-23.5 -8t-29 -15t-67.5 -22q-16 -4 -24 -4q-20 0 -37 8.5t-29 19.5t-18 21.5t-6 14.5v2z" />
<glyph unicode="&#xf2;" horiz-adv-x="532" d="M20 160q0 117 28 223t62.5 189t69.5 137.5t51 70.5q29 39 62 58.5t61 19.5q29 0 70 -18q49 -35 66.5 -139.5t17.5 -243.5q0 -35 -6 -86.5t-20.5 -107.5t-38 -113.5t-60.5 -102.5t-88 -72.5t-119 -27.5q-49 0 -78.5 20.5t-47 52t-24 68.5t-6.5 72zM106 174 q0 -59 12.5 -106.5t43.5 -47.5q68 0 112.5 32t73.5 81t44.5 107.5t23.5 109.5q4 33 6 67t2 68q0 57 -5 111.5t-13.5 96.5t-18.5 67.5t-18 25.5q-4 0 -20.5 -4t-29.5 -24q-18 -10 -54 -66.5t-71.5 -139.5t-61.5 -182.5t-26 -195.5zM239 1106l13 12l20 10q27 12 33 13 q2 0 8 -6q4 -18 34 -35t66.5 -30t69.5 -21.5t43 -10.5q8 -2 11 -5t3 -32l-2 -24l-6 -16l-8 -3q-2 0 -3 -1t-5 -1q-29 0 -72 10.5t-86 29t-75.5 45t-41.5 57.5z" />
<glyph unicode="&#xf3;" horiz-adv-x="532" d="M20 160q0 117 28 223t62.5 189t69.5 137.5t51 70.5q29 39 62 58.5t61 19.5q29 0 70 -18q49 -35 66.5 -139.5t17.5 -243.5q0 -35 -6 -86.5t-20.5 -107.5t-38 -113.5t-60.5 -102.5t-88 -72.5t-119 -27.5q-49 0 -78.5 20.5t-47 52t-24 68.5t-6.5 72zM106 174 q0 -59 12.5 -106.5t43.5 -47.5q68 0 112.5 32t73.5 81t44.5 107.5t23.5 109.5q4 33 6 67t2 68q0 57 -5 111.5t-13.5 96.5t-18.5 67.5t-18 25.5q-4 0 -20.5 -4t-29.5 -24q-18 -10 -54 -66.5t-71.5 -139.5t-61.5 -182.5t-26 -195.5zM249 1001q0 29 3.5 32t11.5 5 q10 2 42.5 10.5t69.5 21.5t67 29.5t34 35.5q6 6 8 6q4 0 33 -13l20 -10l12 -12l-2 -8q-8 -31 -40.5 -57.5t-75.5 -45t-87 -29t-71 -10.5q-4 0 -5 1t-3 1l-8 3l-7 16z" />
<glyph unicode="&#xf4;" horiz-adv-x="532" d="M20 160q0 117 28 223t62.5 189t69.5 137.5t51 70.5q29 39 62 58.5t61 19.5q29 0 70 -18q49 -35 66.5 -139.5t17.5 -243.5q0 -35 -6 -86.5t-20.5 -107.5t-38 -113.5t-60.5 -102.5t-88 -72.5t-119 -27.5q-49 0 -78.5 20.5t-47 52t-24 68.5t-6.5 72zM106 174 q0 -59 12.5 -106.5t43.5 -47.5q68 0 112.5 32t73.5 81t44.5 107.5t23.5 109.5q4 33 6 67t2 68q0 57 -5 111.5t-13.5 96.5t-18.5 67.5t-18 25.5q-4 0 -20.5 -4t-29.5 -24q-18 -10 -54 -66.5t-71.5 -139.5t-61.5 -182.5t-26 -195.5zM241 979v6q14 23 46 69t110 128 q47 -47 89 -92.5t77 -96.5l2 -8l-16 -20l-13 -11q-18 -18 -26 -18q4 0 -31 31.5t-82 91.5q-53 -63 -71.5 -93t-22.5 -30q-8 0 -31 16z" />
<glyph unicode="&#xf5;" horiz-adv-x="532" d="M20 160q0 117 28 223t62.5 189t69.5 137.5t51 70.5q29 39 62 58.5t61 19.5q29 0 70 -18q49 -35 66.5 -139.5t17.5 -243.5q0 -35 -6 -86.5t-20.5 -107.5t-38 -113.5t-60.5 -102.5t-88 -72.5t-119 -27.5q-49 0 -78.5 20.5t-47 52t-24 68.5t-6.5 72zM106 174 q0 -59 12.5 -106.5t43.5 -47.5q68 0 112.5 32t73.5 81t44.5 107.5t23.5 109.5q4 33 6 67t2 68q0 57 -5 111.5t-13.5 96.5t-18.5 67.5t-18 25.5q-4 0 -20.5 -4t-29.5 -24q-18 -10 -54 -66.5t-71.5 -139.5t-61.5 -182.5t-26 -195.5zM190 1024l9 10l18 8q10 4 21 5q8 0 11 -5.5 t7 -10.5t10 -10t19 -5q10 0 29.5 7t45 16.5t54 17.5t59.5 8q33 0 52.5 -12.5t29.5 -26.5q12 -19 18 -39q4 -12 5 -16q0 -10 -23 -17l-18 -6l-15 2l-6 8q-4 8 -11 23.5t-24 15.5q-39 0 -52 -2t-23.5 -8t-29 -15t-67.5 -22q-16 -4 -24 -4q-20 0 -37 8.5t-29 19.5t-18 21.5 t-6 14.5v2z" />
<glyph unicode="&#xf6;" horiz-adv-x="532" d="M20 160q0 117 28 223t62.5 189t69.5 137.5t51 70.5q29 39 62 58.5t61 19.5q29 0 70 -18q49 -35 66.5 -139.5t17.5 -243.5q0 -35 -6 -86.5t-20.5 -107.5t-38 -113.5t-60.5 -102.5t-88 -72.5t-119 -27.5q-49 0 -78.5 20.5t-47 52t-24 68.5t-6.5 72zM106 174 q0 -59 12.5 -106.5t43.5 -47.5q68 0 112.5 32t73.5 81t44.5 107.5t23.5 109.5q4 33 6 67t2 68q0 57 -5 111.5t-13.5 96.5t-18.5 67.5t-18 25.5q-4 0 -20.5 -4t-29.5 -24q-18 -10 -54 -66.5t-71.5 -139.5t-61.5 -182.5t-26 -195.5zM194 1044q0 18 8.5 30.5t18.5 20t20.5 9.5 t14.5 2q16 0 28.5 -3t12.5 -11q0 -2 -1 -3.5t-1 -3.5l-4 -12l-9 -8h-8q-12 6 -18 6q-14 0 -15 -22q0 -16 11.5 -36t33.5 -20q10 0 23.5 14.5t13.5 28.5q0 20 -22 23l-6 4v22q2 10 12 11h-2q2 0 12 -1t20.5 -8.5t19.5 -21.5t9 -41q0 -29 -22.5 -50.5t-55.5 -21.5t-63.5 29 t-30.5 63zM434 1044q0 18 8 30.5t18.5 20t20.5 9.5t14 2q16 0 28.5 -3t12.5 -11q0 -2 -1 -3.5t-1 -3.5l-4 -12l-8 -8h-8q-12 6 -19 6q-14 0 -14 -22q0 -16 11 -36t34 -20q10 0 23.5 14.5t13.5 28.5q0 20 -23 23l-6 4v22q2 10 13 11h-3q2 0 12.5 -1t20.5 -8.5t19.5 -21.5 t9.5 -41q0 -29 -22.5 -50.5t-55.5 -21.5t-63.5 29t-30.5 63z" />
<glyph unicode="&#xf7;" horiz-adv-x="559" d="M18 336q0 23 51.5 29t123.5 6q49 0 100 -1t96 -1q37 0 67.5 2t47.5 6q10 0 18 -2t17 -31l2 -16l2 -9l-6 -16l-13 -6q-10 -4 -41.5 -6t-68.5 -3t-73 -2t-50 -1h-76h-51.5h-51t-42 -1t-23.5 -3l-12 4l-10 14l-5 25q0 4 -1 6t-1 6zM152 156q0 18 8 30.5t18 19.5t20.5 9 t14.5 2q16 0 28.5 -3t12.5 -11q0 -2 -1 -3t-1 -3l-4 -13l-8 -8h-9q-12 6 -18 6q-14 0 -14 -22q0 -16 11 -36t34 -20q10 0 23.5 14.5t13.5 28.5q0 20 -23 23l-6 4v23q2 10 12 10h-2q2 0 12.5 -1t20.5 -8.5t19.5 -21.5t9.5 -41q0 -29 -22.5 -50.5t-55.5 -21.5t-63.5 29 t-30.5 64zM211 530q0 18 8 30.5t18.5 20t20.5 9.5t14 2q16 0 28.5 -3t12.5 -11q0 -2 -1 -3.5t-1 -3.5l-4 -12l-8 -8h-8q-12 6 -19 6q-14 0 -14 -22q0 -16 11.5 -36t33.5 -20q10 0 23.5 14.5t13.5 28.5q0 20 -23 23l-6 4v22q2 10 13 11h-2q2 0 12 -1t20.5 -8.5t19.5 -21.5 t9 -41q0 -29 -22.5 -50.5t-55.5 -21.5t-63.5 29t-30.5 63z" />
<glyph unicode="&#xf8;" horiz-adv-x="532" d="M2 -178q0 10 2 23.5t12 29.5q4 12 16.5 44t30.5 79q-27 33 -35 77t-8 85q0 117 28 223t62.5 189t69.5 137.5t51 70.5q29 39 62 58.5t61 19.5q27 0 68 -18q14 35 23.5 57.5t13.5 32.5q10 29 17 44t40 15l25 -6l2 -6l6 -16l-6 -35q-18 -47 -34.5 -89t-33.5 -81 q18 -55 25.5 -132t7.5 -167q0 -35 -6 -86.5t-20.5 -107.5t-38 -113.5t-60.5 -102.5t-88 -72.5t-119 -27.5q-25 0 -43 6q-12 -31 -24.5 -62.5t-26.5 -66.5l-12 -29l-23 -12l-22 6q-23 10 -23 33zM106 140.5q0 -15.5 5 -31.5q31 74 67.5 159.5t73.5 172.5t71.5 169t63.5 150 q-10 27 -18 26q-4 0 -20.5 -4t-29.5 -24q-18 -10 -54 -66.5t-71.5 -139.5t-61.5 -182.5t-26 -195.5v-33.5zM168 35q53 2 95 31.5t74 75.5t51.5 101.5t27.5 106.5q4 33 6 67t2 68q0 66 -6 127q-33 -78 -62.5 -145.5t-59.5 -136t-61.5 -140t-66.5 -155.5z" />
<glyph unicode="&#xf9;" horiz-adv-x="593" d="M12 51q0 106 15.5 216t36 202t38 156.5t21.5 83.5q6 29 14 45t37 16l25 -4l10 -21l-2 -32q-10 -33 -23.5 -87.5t-25 -118t-22.5 -132t-19 -130t-13.5 -110.5t-5.5 -74v-39.5t5.5 -40t16.5 -30.5t34 -12q29 0 63.5 9t66 20.5t54 20.5t29.5 9q16 4 22 4q37 233 55.5 385 t30.5 239t23.5 120.5t36.5 33.5h16l12 -4l10 -12v-25q-10 -109 -22 -209t-25.5 -198.5t-31 -200.5t-35.5 -213v-2q-6 -25 -19.5 -33t-28 -5t-24.5 13.5t-8 24.5q-10 0 -57.5 -21.5t-143.5 -39.5q-8 -2 -24 -2q-45 0 -73 17t-43 46t-20.5 64.5t-5.5 70.5zM215 1106l13 12 l20 10q27 12 33 13q2 0 8 -6q4 -18 34 -35t66.5 -30t69.5 -21.5t43 -10.5q8 -2 11 -5t3 -32l-2 -24l-6 -16l-8 -3q-2 0 -3 -1t-5 -1q-29 0 -72 10.5t-86 29t-75.5 45t-41.5 57.5z" />
<glyph unicode="&#xfa;" horiz-adv-x="593" d="M12 51q0 106 15.5 216t36 202t38 156.5t21.5 83.5q6 29 14 45t37 16l25 -4l10 -21l-2 -32q-10 -33 -23.5 -87.5t-25 -118t-22.5 -132t-19 -130t-13.5 -110.5t-5.5 -74v-39.5t5.5 -40t16.5 -30.5t34 -12q29 0 63.5 9t66 20.5t54 20.5t29.5 9q16 4 22 4q37 233 55.5 385 t30.5 239t23.5 120.5t36.5 33.5h16l12 -4l10 -12v-25q-10 -109 -22 -209t-25.5 -198.5t-31 -200.5t-35.5 -213v-2q-6 -25 -19.5 -33t-28 -5t-24.5 13.5t-8 24.5q-10 0 -57.5 -21.5t-143.5 -39.5q-8 -2 -24 -2q-45 0 -73 17t-43 46t-20.5 64.5t-5.5 70.5zM231 1001 q0 29 3.5 32t11.5 5q10 2 42.5 10.5t69.5 21.5t67 29.5t34 35.5q6 6 8 6q4 0 33 -13l20 -10l12 -12l-2 -8q-8 -31 -40.5 -57.5t-75.5 -45t-87 -29t-71 -10.5q-4 0 -5 1t-3 1l-8 3l-7 16z" />
<glyph unicode="&#xfb;" horiz-adv-x="593" d="M12 51q0 106 15.5 216t36 202t38 156.5t21.5 83.5q6 29 14 45t37 16l25 -4l10 -21l-2 -32q-10 -33 -23.5 -87.5t-25 -118t-22.5 -132t-19 -130t-13.5 -110.5t-5.5 -74v-39.5t5.5 -40t16.5 -30.5t34 -12q29 0 63.5 9t66 20.5t54 20.5t29.5 9q16 4 22 4q37 233 55.5 385 t30.5 239t23.5 120.5t36.5 33.5h16l12 -4l10 -12v-25q-10 -109 -22 -209t-25.5 -198.5t-31 -200.5t-35.5 -213v-2q-6 -25 -19.5 -33t-28 -5t-24.5 13.5t-8 24.5q-10 0 -57.5 -21.5t-143.5 -39.5q-8 -2 -24 -2q-45 0 -73 17t-43 46t-20.5 64.5t-5.5 70.5zM198 979v6 q14 23 46 69t110 128q47 -47 89 -92.5t77 -96.5l2 -8l-16 -20l-13 -11q-18 -18 -26 -18q4 0 -31 31.5t-82 91.5q-53 -63 -71.5 -93t-22.5 -30q-8 0 -31 16z" />
<glyph unicode="&#xfc;" horiz-adv-x="593" d="M12 51q0 106 15.5 216t36 202t38 156.5t21.5 83.5q6 29 14 45t37 16l25 -4l10 -21l-2 -32q-10 -33 -23.5 -87.5t-25 -118t-22.5 -132t-19 -130t-13.5 -110.5t-5.5 -74v-39.5t5.5 -40t16.5 -30.5t34 -12q29 0 63.5 9t66 20.5t54 20.5t29.5 9q16 4 22 4q37 233 55.5 385 t30.5 239t23.5 120.5t36.5 33.5h16l12 -4l10 -12v-25q-10 -109 -22 -209t-25.5 -198.5t-31 -200.5t-35.5 -213v-2q-6 -25 -19.5 -33t-28 -5t-24.5 13.5t-8 24.5q-10 0 -57.5 -21.5t-143.5 -39.5q-8 -2 -24 -2q-45 0 -73 17t-43 46t-20.5 64.5t-5.5 70.5zM162 1044 q0 18 8.5 30.5t18.5 20t20.5 9.5t14.5 2q16 0 28.5 -3t12.5 -11q0 -2 -1 -3.5t-1 -3.5l-4 -12l-9 -8h-8q-12 6 -18 6q-14 0 -15 -22q0 -16 11.5 -36t33.5 -20q10 0 23.5 14.5t13.5 28.5q0 20 -22 23l-6 4v22q2 10 12 11h-2q2 0 12 -1t20.5 -8.5t19.5 -21.5t9 -41 q0 -29 -22.5 -50.5t-55.5 -21.5t-63.5 29t-30.5 63zM402 1044q0 18 8 30.5t18.5 20t20.5 9.5t14 2q16 0 28.5 -3t12.5 -11q0 -2 -1 -3.5t-1 -3.5l-4 -12l-8 -8h-8q-12 6 -19 6q-14 0 -14 -22q0 -16 11 -36t34 -20q10 0 23.5 14.5t13.5 28.5q0 20 -23 23l-6 4v22q2 10 13 11 h-3q2 0 12.5 -1t20.5 -8.5t19.5 -21.5t9.5 -41q0 -29 -22.5 -50.5t-55.5 -21.5t-63.5 29t-30.5 63z" />
<glyph unicode="&#xfd;" horiz-adv-x="536" d="M-20 745l8 19l22 10q6 2 17 2q25 0 73 -97t148 -302q47 82 90 165t77 150.5t57.5 110.5t35.5 43t19 -2l22 -10l2 -5l6 -16l-8 -25q-49 -100 -100 -202.5t-100.5 -198.5t-93.5 -180t-76.5 -146.5t-52 -98.5t-17.5 -36l-17 -22l-20 -6l-21 14q-18 12 -18 29l3 9t18.5 43 t48 100.5t94.5 185.5q-8 18 -26.5 56t-40 84t-45 95t-45 92t-36 74t-18.5 41zM145 1001q0 29 3.5 32t11.5 5q10 2 42.5 10.5t69.5 21.5t67 29.5t34 35.5q6 6 8 6q4 0 33 -13l20 -10l12 -12l-2 -8q-8 -31 -40.5 -57.5t-75.5 -45t-87 -29t-71 -10.5q-4 0 -5 1t-3 1l-8 3l-7 16 z" />
<glyph unicode="&#xff;" horiz-adv-x="536" d="M-20 745l8 19l22 10q6 2 17 2q25 0 73 -97t148 -302q47 82 90 165t77 150.5t57.5 110.5t35.5 43t19 -2l22 -10l2 -5l6 -16l-8 -25q-49 -100 -100 -202.5t-100.5 -198.5t-93.5 -180t-76.5 -146.5t-52 -98.5t-17.5 -36l-17 -22l-20 -6l-21 14q-18 12 -18 29l3 9t18.5 43 t48 100.5t94.5 185.5q-8 18 -26.5 56t-40 84t-45 95t-45 92t-36 74t-18.5 41zM61 1044q0 18 8.5 30.5t18.5 20t20.5 9.5t14.5 2q16 0 28.5 -3t12.5 -11q0 -2 -1 -3.5t-1 -3.5l-4 -12l-9 -8h-8q-12 6 -18 6q-14 0 -15 -22q0 -16 11.5 -36t33.5 -20q10 0 23.5 14.5t13.5 28.5 q0 20 -22 23l-6 4v22q2 10 12 11h-2q2 0 12 -1t20.5 -8.5t19.5 -21.5t9 -41q0 -29 -22.5 -50.5t-55.5 -21.5t-63.5 29t-30.5 63zM301 1044q0 18 8 30.5t18.5 20t20.5 9.5t14 2q16 0 28.5 -3t12.5 -11q0 -2 -1 -3.5t-1 -3.5l-4 -12l-8 -8h-8q-12 6 -19 6q-14 0 -14 -22 q0 -16 11 -36t34 -20q10 0 23.5 14.5t13.5 28.5q0 20 -23 23l-6 4v22q2 10 13 11h-3q2 0 12.5 -1t20.5 -8.5t19.5 -21.5t9.5 -41q0 -29 -22.5 -50.5t-55.5 -21.5t-63.5 29t-30.5 63z" />
<glyph unicode="&#x152;" horiz-adv-x="1310" d="M53 127q0 180 42 334.5t96.5 271.5t106.5 190.5t73 96.5q39 43 75.5 67.5t65.5 24.5q12 0 24.5 -7t12.5 -15l4 -9q0 -12 -28.5 -30.5t-53.5 -42.5q-33 -18 -88 -99.5t-109.5 -203t-93.5 -269t-39 -297.5q0 -109 29 -174t82 -65q72 0 136.5 40t116.5 101t90 135t56 143 q6 23 11.5 46.5t9.5 46.5l2 4q6 47 12 87t10 79q2 25 3 49t1 49q0 147 -22.5 224t-48 112t-48 44t-22.5 21q0 6 6 13q6 20 37 20q39 0 80 -27.5t70 -121.5q14 57 43 59h10q18 4 62 11t89 15.5t81 13.5t40 5l39 5t90 11.5t96.5 11.5t57.5 5l16 -2l13 -23l2 -16 q0 -29 -7.5 -33t-23.5 -6q-10 -2 -49 -7t-92.5 -13.5t-115 -16.5t-116.5 -15t-98 -14.5t-60 -9.5q-4 -37 -12 -105.5t-18.5 -144t-19.5 -146.5t-13 -110q47 12 76.5 19.5t55.5 11.5t53.5 10t68.5 17l8 -4l10 -15l4 -22l5 -25q0 -8 -37 -19.5t-86.5 -22.5t-98.5 -21.5 t-73 -16.5q-6 -41 -16.5 -103.5t-22 -130t-21.5 -131t-18 -104.5q113 23 180.5 38.5t122.5 26.5t114.5 22.5t151.5 27.5l19 -2l12 -12l4 -25q0 -29 -8 -34t-25 -9q-10 -2 -56 -11t-107.5 -22.5t-132 -28t-133 -26.5t-107.5 -21.5t-58 -9.5q-10 -4 -17 -3t-22 7 q-27 10 -26 35q0 10 2 19.5t4 21.5q2 16 9 61.5l17 110.5q-31 -45 -73.5 -89t-94 -78t-107.5 -54.5t-114 -15.5q-55 4 -89 36.5t-53 80.5t-26.5 101.5t-7.5 96.5z" />
<glyph unicode="&#x153;" horiz-adv-x="946" d="M12 160q0 117 28 223t62.5 189t69.5 137.5t51 70.5q29 39 61.5 58.5t61.5 19.5q49 0 85 -35t52 -127q6 20 19 23q12 2 68.5 19.5t123 37t122.5 35.5t69 20q4 2 12 3q12 0 23 -29l6 -14v-27l-11 -6q-55 -23 -94 -36t-75.5 -24.5t-80.5 -21.5t-112 -27q-4 -35 -13.5 -95 t-17.5 -114q33 8 62.5 15.5t61.5 13.5t68 13t83 18l10 -2l8 -17l2 -24q0 -29 -4 -32t-12 -5q-6 -2 -43 -10.5t-83 -19.5t-93 -22.5t-74 -17.5q-2 -8 -14.5 -81.5t-44.5 -223.5l46 12t46 13q25 8 49 14q51 10 92 18q35 8 66.5 13.5t42.5 7.5l12 -2l10 -15l4 -24q0 -6 1 -10 t1 -9q0 -12 -5 -15t-13 -5q-12 -2 -68.5 -15.5t-122 -28.5t-122 -28.5t-68.5 -15.5q-4 -2 -12 -2q-6 0 -9 4l-14 4q-29 10 -29 27q0 6 2 14q2 12 7 37q-35 -41 -84.5 -66.5t-112.5 -25.5q-49 0 -79 20.5t-47 52t-23.5 68.5t-6.5 72zM98 174q0 -59 12.5 -99t43.5 -40 q55 0 98 29.5t75.5 75.5t52.5 102.5t28 107.5q4 33 6 67t2 68q0 57 -5 111.5t-13.5 96.5t-18.5 67.5t-19 25.5q-4 0 -20 -4t-29 -24q-18 -10 -54 -66.5t-71.5 -139.5t-61.5 -182.5t-26 -195.5z" />
<glyph unicode="&#x178;" horiz-adv-x="749" d="M31 330q0 100 24.5 217t54 218t54 173t24.5 80q10 33 18.5 52.5t37.5 19.5l24 -5l11 -22q0 -18 -7 -39q-23 -70 -49 -157t-51 -180t-41 -184t-16 -167q0 -20 3 -47t11 -50.5t24.5 -41t43.5 -21.5q49 2 99 14.5t95 25.5t81 25.5t54 16.5q41 221 62.5 368.5t36 235.5 t28 124t37.5 36l25 -2l4 -4l10 -15l-2 -32q0 -14 -7 -59.5t-17.5 -106t-21.5 -126t-20.5 -121.5t-15.5 -95t-6 -45l-2 2q-2 0 -8 -37t-16.5 -93.5t-20.5 -123t-20.5 -129t-18.5 -109.5t-12 -63l-11 -29l-18 -14l-25 6q-16 6 -21 15t-5 24q0 6 2 21.5t8 49t15.5 90 t25.5 142.5q-16 -6 -49 -18.5t-74 -25.5t-90 -23.5t-100 -10.5q-47 0 -80 18.5t-52.5 50t-27.5 76t-8 95.5zM303 1265q0 18 8.5 30.5t18.5 20t20.5 9.5t14.5 2q16 0 28.5 -3t12.5 -11q0 -2 -1 -3.5t-1 -3.5l-4 -12l-9 -8h-8q-12 6 -18 6q-14 0 -15 -22q0 -16 11.5 -36 t33.5 -20q10 0 23.5 14.5t13.5 28.5q0 20 -22 23l-6 4v22q2 10 12 11h-2q2 0 12 -1t20.5 -8.5t19.5 -21.5t9 -41q0 -29 -22.5 -50.5t-55.5 -21.5t-63.5 29t-30.5 63zM543 1265q0 18 8 30.5t18.5 20t20.5 9.5t14 2q16 0 28.5 -3t12.5 -11q0 -2 -1 -3.5t-1 -3.5l-4 -12l-8 -8 h-8q-12 6 -19 6q-14 0 -14 -22q0 -16 11 -36t34 -20q10 0 23.5 14.5t13.5 28.5q0 20 -23 23l-6 4v22q2 10 13 11h-3q2 0 12.5 -1t20.5 -8.5t19.5 -21.5t9.5 -41q0 -29 -22.5 -50.5t-55.5 -21.5t-63.5 29t-30.5 63z" />
<glyph unicode="&#x2c6;" horiz-adv-x="360" d="M18 979v6q14 23 46 69t110 128q47 -47 89 -92.5t77 -96.5l2 -8l-16 -20l-13 -11q-18 -18 -26 -18q4 0 -31 31.5t-82 91.5q-53 -63 -71.5 -93t-22.5 -30q-8 0 -31 16z" />
<glyph unicode="&#x2dc;" horiz-adv-x="423" d="M20 1024l9 10l18 8q10 4 21 5q8 0 11 -5.5t7 -10.5t10 -10t19 -5q10 0 29.5 7t45 16.5t54 17.5t59.5 8q33 0 52.5 -12.5t29.5 -26.5q12 -19 18 -39q4 -12 5 -16q0 -10 -23 -17l-18 -6l-15 2l-6 8q-4 8 -11 23.5t-24 15.5q-39 0 -52 -2t-23.5 -8t-29 -15t-67.5 -22 q-16 -4 -24 -4q-20 0 -37 8.5t-29 19.5t-18 21.5t-6 14.5v2z" />
<glyph unicode="&#x2000;" horiz-adv-x="713" />
<glyph unicode="&#x2001;" horiz-adv-x="1426" />
<glyph unicode="&#x2002;" horiz-adv-x="713" />
<glyph unicode="&#x2003;" horiz-adv-x="1426" />
<glyph unicode="&#x2004;" horiz-adv-x="475" />
<glyph unicode="&#x2005;" horiz-adv-x="356" />
<glyph unicode="&#x2006;" horiz-adv-x="237" />
<glyph unicode="&#x2007;" horiz-adv-x="237" />
<glyph unicode="&#x2008;" horiz-adv-x="178" />
<glyph unicode="&#x2009;" horiz-adv-x="285" />
<glyph unicode="&#x200a;" horiz-adv-x="79" />
<glyph unicode="&#x2010;" horiz-adv-x="505" d="M16 336q0 18 46.5 25.5t112 9.5t140 2t134.5 4q10 0 17 -2t13 -31l4 -25q0 -10 -21.5 -17t-57 -11t-82 -6t-93.5 -2q-41 0 -77.5 1t-65.5 4t-46 5t-17 6l-5 25q0 4 -1 6t-1 6z" />
<glyph unicode="&#x2011;" horiz-adv-x="505" d="M16 336q0 18 46.5 25.5t112 9.5t140 2t134.5 4q10 0 17 -2t13 -31l4 -25q0 -10 -21.5 -17t-57 -11t-82 -6t-93.5 -2q-41 0 -77.5 1t-65.5 4t-46 5t-17 6l-5 25q0 4 -1 6t-1 6z" />
<glyph unicode="&#x2012;" horiz-adv-x="505" d="M16 336q0 18 46.5 25.5t112 9.5t140 2t134.5 4q10 0 17 -2t13 -31l4 -25q0 -10 -21.5 -17t-57 -11t-82 -6t-93.5 -2q-41 0 -77.5 1t-65.5 4t-46 5t-17 6l-5 25q0 4 -1 6t-1 6z" />
<glyph unicode="&#x2013;" horiz-adv-x="1062" d="M16 336q0 18 102 25.5t245.5 9.5t307 2t294.5 4q22 0 37.5 -2t28.5 -31l9 -25q0 -10 -47 -17t-125 -11t-180 -6t-205 -2q-90 0 -170 1t-143.5 4t-101 5t-37.5 6l-11 25q0 4 -2 6t-2 6z" />
<glyph unicode="&#x2014;" horiz-adv-x="2086" d="M16 336q0 18 204 25.5t491 9.5t614 2t590 4q44 0 74.5 -2t56.5 -31l18 -25q0 -10 -94.5 -17t-250 -11t-359.5 -6t-410 -2q-180 0 -340 1t-287 4t-201.5 5t-74.5 6l-22 25q0 4 -4.5 6t-4.5 6z" />
<glyph unicode="&#x2019;" horiz-adv-x="348" d="M168 956q0 2 4 11q20 27 47 66.5t49 78.5q27 45 56 94q10 0 28 -8l23 -10l2 -2q0 -12 -12.5 -44t-33 -72t-46 -82t-52.5 -73q-6 -2 -14 -2q-27 0 -39 19.5t-12 23.5z" />
<glyph unicode="&#x2026;" horiz-adv-x="774" d="M96 -41q0 2 4 10q20 27 35 48.5t25 37.5q10 18 18 33q10 0 29 -8l22 -10l2 -2q4 -8 5 -17q0 -20 -16.5 -54t-57.5 -79q-6 -2 -15 -2q-27 0 -39 19.5t-12 23.5zM313 -41q0 2 4 10q20 27 35 48.5t25 37.5q10 18 18 33q10 0 29 -8l22 -10l3 -2q4 -8 4 -17q0 -20 -16.5 -54 t-57.5 -79q-6 -2 -14 -2q-27 0 -39.5 19.5t-12.5 23.5zM555 -41q0 2 4 10q20 27 34.5 48.5t24.5 37.5q10 18 19 33q10 0 29 -8l22 -10l2 -2q4 -8 4 -17q0 -20 -16 -54t-57 -79q-6 -2 -15 -2q-27 0 -39 19.5t-12 23.5z" />
<glyph unicode="&#x202f;" horiz-adv-x="285" />
<glyph unicode="&#x205f;" horiz-adv-x="356" />
<glyph unicode="&#x20ac;" horiz-adv-x="708" d="M66 123v18q0 29 2 34t10 5q-2 0 10 1t32.5 2t48.5 3t58 4q0 10 3 20.5t3 18.5h-118l-11 7v12l-6 4v29q0 29 14.5 36t43.5 7h49h27.5t33.5 2q18 43 40 89t48.5 86t61.5 69.5t80 39.5q39 4 62.5 -7t36.5 -28.5t17 -39t4 -37.5q0 -20 -6 -40t-12 -34t-12 -22l-6 -9 q-12 -18 -24.5 -31.5t-29.5 -13.5q-14 0 -24 10l-17 17l-6 22l17 23q12 4 20 26.5t8 42.5q0 31 -16 31q-25 2 -46.5 -21.5t-40 -56t-32.5 -65.5t-22 -51l16 4t12 2h11q10 0 16 -5t6 -36v-43l-10 -6q-4 0 -32 -3t-52 -3q-4 -8 -6 -16.5t-6 -16.5q20 0 32.5 1t22.5 1t15 -7.5 t9 -29.5v-45l-12 -4q-4 0 -28.5 -4t-49.5 -9q0 -70 54 -69q20 0 41.5 10t39 24.5t28.5 31t11 26.5l17 23l22 6l29 -13q14 -14 14 -30q0 -10 -6 -23.5t-14 -30.5q-4 -4 -15.5 -22.5t-33 -37.5t-54 -35.5t-79.5 -16.5q-39 0 -67 14t-46.5 35.5t-27.5 49.5t-11 52 q-12 0 -32.5 -1t-40 -1t-36 -1t-22.5 -1z" />
<glyph unicode="&#x2122;" horiz-adv-x="1249" d="M199 1001l8 15l14 4q14 4 64.5 14t105.5 20.5t99 17.5l45 7l44 7q44 8 99 16t106.5 15t65.5 7h16l11 -10l2 -6v-10q0 -14 -11.5 -21.5t-44 -13.5t-89 -13.5t-148.5 -21.5q0 -6 -1 -12t-1 -15q0 -14 -7.5 -66t-17.5 -124t-22.5 -152.5t-22.5 -152.5t-17.5 -125t-9.5 -66 q-4 -18 -7 -29.5t-23 -13.5l-17 2l-10 13v20q12 115 21.5 194t19.5 152.5t23.5 157.5t33.5 209q-49 -8 -96 -16.5t-85 -15.5t-64.5 -12t-34.5 -7q-6 0 -11.5 -1t-9.5 -1q-8 0 -14 3t-10 15zM557 319q0 4 37 13.5t94 19.5t126 22.5t131.5 23t110.5 17.5t62 11q4 2 7 2t8 -10 l2 -12q0 -4 -53.5 -15.5t-126 -26t-143.5 -27.5t-103 -18q-57 -10 -102.5 -14t-45.5 0l-2 8q0 4 -2 6zM668 432v12q12 119 28.5 236t34.5 238l4 8q0 10 10 14l11 4l8 -4l4 -12q16 -86 41 -170t47 -176q41 90 85 179t85 181l6 10l10 4l9 -4q12 -2 12 -16q0 -4 -1 -7t-1 -7 q-35 -238 -50.5 -346.5t-23.5 -108.5h-14l-6 8v14q4 51 9 94.5t11 81t11.5 73.5t9.5 75q-74 -158 -109 -224.5t-37 -66.5l-2 -2l-8 -2q-2 0 -4 -2q-12 0 -13 6t-6 15q-2 8 -11 39.5t-20.5 74.5t-23.5 91.5t-20 86.5q-14 -117 -23.5 -194.5t-16.5 -124.5t-13.5 -66.5 t-16.5 -19.5h-10z" />
<glyph unicode="&#x25fc;" horiz-adv-x="849" d="M0 0v850h850v-850h-850z" />
</font>
</defs>
</svg>
